<svg xmlns="http://www.w3.org/2000/svg" xmlns:xlink="http://www.w3.org/1999/xlink" fill="none" version="1.1" width="24" height="24" viewBox="0 0 24 24"><defs><clipPath id="master_svg0_287_2560"><rect x="0" y="0" width="24" height="24" rx="0"/></clipPath></defs><g clip-path="url(#master_svg0_287_2560)"><g><path d="M2.01538056625,17.9054L2.01535627625,17.9055Q2.00634765625,17.9523,2.00634765625,18Q2.00634765625,18.0492,2.01595501625,18.0975Q2.02556235625,18.1458,2.04440785625,18.1913Q2.06325335625,18.2368,2.09061285625,18.2778Q2.11797265625,18.3187,2.15279465625,18.3536Q2.18761665625,18.3884,2.22856265625,18.4157Q2.26950865625,18.4431,2.31500565625,18.4619Q2.36050265625,18.4808,2.40880265625,18.4904Q2.45710165625,18.5,2.50634765625,18.5Q2.54960165625,18.5,2.59221365625,18.4926Q2.63482565625,18.4851,2.67552865625,18.4705Q2.7162316562499997,18.4559,2.75381665625,18.4345Q2.79140165625,18.4131,2.82475165625,18.3855Q2.85810165625,18.358,2.88622665625,18.3251Q2.91435065625,18.2922,2.93641365625,18.255Q2.9584766562500002,18.2178,2.97382265625,18.1774Q2.98916865625,18.1369,2.99734065625,18.0945L2.99745465625,18.0939Q3.86766765625,13.5719,4.75894765625,9.84979Q5.48084765625,6.83493,6.96852765625,4.75781Q8.58560765625,2.5,10.40263765625,2.5Q12.23424765625,2.5,13.67484765625,4.26604Q15.00014765625,5.89077,15.00014765625,7.5Q15.00014765625,7.54925,15.00974765625,7.59755Q15.01934765625,7.64584,15.03814765625,7.69134Q15.05704765625,7.73684,15.08444765625,7.77778Q15.11174765625,7.81873,15.14654765625,7.85355Q15.18144765625,7.88837,15.22234765625,7.91573Q15.26324765625,7.94309,15.30874765625,7.96194Q15.35424765625,7.98078,15.40254765625,7.99039Q15.45084765625,8,15.50014765625,8Q15.54934765625,8,15.59764765625,7.99039Q15.64594765625,7.98078,15.69144765625,7.96194Q15.73694765625,7.94309,15.77794765625,7.91573Q15.81884765625,7.88837,15.85364765625,7.85355Q15.88854765625,7.81873,15.91584765625,7.77778Q15.94324765625,7.73684,15.96204765625,7.69134Q15.98094765625,7.64584,15.99054765625,7.59755Q16.00014765625,7.54925,16.00014765625,7.5Q16.00014765625,5.53464,14.44974765625,3.63395Q12.70904765625,1.5,10.40263765625,1.5Q8.07179765625,1.5,6.15553765625,4.17553Q4.55390765625,6.41176,3.78643765625,9.61692Q2.89009765625,13.3602,2.01580008625,17.9032L2.01538056625,17.9054ZM19.01284765625,12.3627Q19.42324765625,14.1365,20.54174765625,16.6999Q20.57094765625,16.7668,20.61794765625,16.8226Q20.66504765625,16.8783,20.72614765625,16.918300000000002Q20.78714765625,16.9583,20.85714765625,16.979100000000003Q20.92704765625,17,21.00004765625,17Q21.04924765625,17,21.09754765625,16.9904Q21.14584765625,16.980800000000002,21.19134765625,16.9619Q21.23684765625,16.9431,21.27774765625,16.9157Q21.31874765625,16.8884,21.35354765625,16.8536Q21.38834765625,16.8187,21.41574765625,16.7778Q21.44304765625,16.736800000000002,21.46194765625,16.6913Q21.48074765625,16.6458,21.49034765625,16.5975Q21.50004765625,16.5492,21.50004765625,16.5Q21.50004765625,16.395699999999998,21.45824765625,16.3001Q20.37674765625,13.8212,19.98714765625,12.1373Q19.60934765625,10.50449,18.74094765625,9.41505Q17.61314765625,8,16.00004765625,8Q14.18914765625,8,13.21704765625,9.51069Q12.50004765625,10.62499,12.50004765625,12Q12.50004765625,12.0492,12.50964765625,12.0975Q12.51924765625,12.1458,12.53804765625,12.1913Q12.55694765625,12.2368,12.58424765625,12.2778Q12.61164765625,12.3187,12.64644765625,12.3536Q12.68124765625,12.3884,12.72224765625,12.4157Q12.76314765625,12.4431,12.80864765625,12.4619Q12.85414765625,12.4808,12.90244765625,12.4904Q12.95074765625,12.5,13.00004765625,12.5Q13.04924765625,12.5,13.09754765625,12.4904Q13.14584765625,12.4808,13.19134765625,12.4619Q13.23684765625,12.4431,13.27774765625,12.4157Q13.31874765625,12.3884,13.35354765625,12.3536Q13.38834765625,12.3187,13.41574765625,12.2778Q13.44304765625,12.2368,13.46194765625,12.1913Q13.48074765625,12.1458,13.49034765625,12.0975Q13.50004765625,12.0492,13.50004765625,12Q13.50004765625,10.91893,14.05794765625,10.05181Q14.73474765625,9,16.00004765625,9Q17.13134765625,9,17.95904765625,10.03835Q18.68614765625,10.95063,19.01284765625,12.3627ZM18.25004765625,22.5Q15.26744765625,22.5,11.81105765625,21.9947Q6.49999765625,21.2184,6.49999765625,19.5Q6.49999765625,18.1681,7.68441765625,17.7199Q8.25932765625,17.5023,9.47423765625,17.5Q9.747497656250001,17.4735,10.45073765625,17.4618Q12.10294765625,17.4342,12.80534765625,17.2603Q13.75004765625,17.0265,13.75004765625,16.5Q13.75004765625,15.7245,11.54582765625,15.0733Q9.605567656249999,14.5,7.99999765625,14.5Q7.95075765625,14.5,7.90245765625,14.4904Q7.85415765625,14.4808,7.80865765625,14.4619Q7.76315765625,14.4431,7.72221765625,14.4157Q7.68126765625,14.3884,7.64644765625,14.3536Q7.61162765625,14.3187,7.58426765625,14.2778Q7.55690765625,14.2368,7.53805765625,14.1913Q7.51921765625,14.1458,7.50960765625,14.0975Q7.49999765625,14.0492,7.49999765625,14Q7.49999765625,13.9508,7.50960765625,13.9025Q7.51921765625,13.8542,7.53805765625,13.8087Q7.55690765625,13.7632,7.58426765625,13.7222Q7.61162765625,13.6813,7.64644765625,13.6464Q7.68126765625,13.6116,7.72221765625,13.5843Q7.76315765625,13.5569,7.80865765625,13.5381Q7.85415765625,13.5192,7.90245765625,13.5096Q7.95075765625,13.5,7.99999765625,13.5Q9.75019765625,13.5,11.82917765625,14.1142Q14.75004765625,14.9772,14.75004765625,16.5Q14.75004765625,17.8092,13.04554765625,18.231Q12.23304765625,18.4321,10.46745765625,18.4617Q9.77192765625,18.4733,9.554267656250001,18.497Q9.52721765625,18.5,9.499997656249999,18.5Q8.44829765625,18.5,8.03835765625,18.6551Q7.49999765625,18.8589,7.49999765625,19.5Q7.49999765625,19.8451,8.65093765625,20.2646Q9.83059765625,20.6946,11.95570765625,21.0053Q15.34014765625,21.5,18.25004765625,21.5Q18.29924765625,21.5,18.34754765625,21.5096Q18.39584765625,21.5192,18.44134765625,21.5381Q18.48684765625,21.5569,18.52774765625,21.5843Q18.56874765625,21.6116,18.60354765625,21.6464Q18.63834765625,21.6813,18.66574765625,21.7222Q18.69304765625,21.7632,18.71194765625,21.8087Q18.73074765625,21.8542,18.74034765625,21.9025Q18.75004765625,21.9508,18.75004765625,22Q18.75004765625,22.0492,18.74034765625,22.0975Q18.73074765625,22.1458,18.71194765625,22.1913Q18.69304765625,22.2368,18.66574765625,22.2778Q18.63834765625,22.3187,18.60354765625,22.3536Q18.56874765625,22.3884,18.52774765625,22.4157Q18.48684765625,22.4431,18.44134765625,22.4619Q18.39584765625,22.4808,18.34754765625,22.4904Q18.29924765625,22.5,18.25004765625,22.5Z" fill-rule="evenodd" fill="#F48123" fill-opacity="1" style="mix-blend-mode:passthrough"/></g></g></svg>