<svg xmlns="http://www.w3.org/2000/svg" xmlns:xlink="http://www.w3.org/1999/xlink" fill="none" version="1.1" width="24" height="24" viewBox="0 0 24 24"><defs><clipPath id="master_svg0_299_0029"><rect x="0" y="0" width="24" height="24" rx="0"/></clipPath></defs><g clip-path="url(#master_svg0_299_0029)"><g><path d="M4.74372,21L19.2518,21C21.058,21,22,20.0378,22,18.2655L22,5.73452C22,3.962204,21.058,3,19.2518,3L4.74372,3C2.944862,3,2,3.9374000000000002,2,5.73452L2,18.2655C2,20.0626,2.944862,21,4.74372,21ZM4.73761,20.2415C3.4350300000000002,20.2415,2.759912,19.566,2.759912,18.2618L2.759912,9.340499999999999C2.759912,8.03915,3.4350300000000002,7.36082,4.73761,7.36082L19.2596,7.36082C20.5182,7.36082,21.2401,8.03915,21.2401,9.340499999999999L21.2401,18.2618C21.2401,19.566,20.5182,20.2415,19.2596,20.2415L4.73761,20.2415ZM9.9345,10.91559L10.53547,10.91559C10.80402,10.91559,10.85,10.87248,10.85,10.611799999999999L10.85,10.019269999999999C10.85,9.75858,10.80402,9.712620000000001,10.53547,9.712620000000001L9.9345,9.712620000000001C9.666,9.712620000000001,9.6171,9.75858,9.6171,10.019269999999999L9.6171,10.611799999999999C9.6171,10.87248,9.666,10.91559,9.9345,10.91559ZM13.4776,10.91559L14.0786,10.91559C14.3471,10.91559,14.396,10.87248,14.396,10.611799999999999L14.396,10.019269999999999C14.396,9.75858,14.3471,9.712620000000001,14.0786,9.712620000000001L13.4776,9.712620000000001C13.2091,9.712620000000001,13.1602,9.75858,13.1602,10.019269999999999L13.1602,10.611799999999999C13.1602,10.87248,13.2091,10.91559,13.4776,10.91559ZM17.020699999999998,10.91559L17.6216,10.91559C17.8901,10.91559,17.9391,10.87248,17.9391,10.611799999999999L17.9391,10.019269999999999C17.9391,9.75858,17.8901,9.712620000000001,17.6216,9.712620000000001L17.020699999999998,9.712620000000001C16.752200000000002,9.712620000000001,16.7135,9.75858,16.7135,10.019269999999999L16.7135,10.611799999999999C16.7135,10.87248,16.752200000000002,10.91559,17.020699999999998,10.91559ZM6.39141,14.4012L6.98953,14.4012C7.26089,14.4012,7.30693,14.3581,7.30693,14.0975L7.30693,13.5049C7.30693,13.2442,7.26089,13.2011,6.98953,13.2011L6.39141,13.2011C6.12005,13.2011,6.074,13.2442,6.074,13.5049L6.074,14.0975C6.074,14.3581,6.12005,14.4012,6.39141,14.4012ZM9.9345,14.4012L10.53547,14.4012C10.80402,14.4012,10.85,14.3581,10.85,14.0975L10.85,13.5049C10.85,13.2442,10.80402,13.2011,10.53547,13.2011L9.9345,13.2011C9.666,13.2011,9.6171,13.2442,9.6171,13.5049L9.6171,14.0975C9.6171,14.3581,9.666,14.4012,9.9345,14.4012ZM13.4776,14.4012L14.0786,14.4012C14.3471,14.4012,14.396,14.3581,14.396,14.0975L14.396,13.5049C14.396,13.2442,14.3471,13.2011,14.0786,13.2011L13.4776,13.2011C13.2091,13.2011,13.1602,13.2442,13.1602,13.5049L13.1602,14.0975C13.1602,14.3581,13.2091,14.4012,13.4776,14.4012ZM17.020699999999998,14.4012L17.6216,14.4012C17.8901,14.4012,17.9391,14.3581,17.9391,14.0975L17.9391,13.5049C17.9391,13.2442,17.8901,13.2011,17.6216,13.2011L17.020699999999998,13.2011C16.752200000000002,13.2011,16.7135,13.2442,16.7135,13.5049L16.7135,14.0975C16.7135,14.3581,16.752200000000002,14.4012,17.020699999999998,14.4012ZM6.39141,17.889699999999998L6.98953,17.889699999999998C7.26089,17.889699999999998,7.30693,17.8437,7.30693,17.590400000000002L7.30693,16.9905C7.30693,16.7299,7.26089,16.686700000000002,6.98953,16.686700000000002L6.39141,16.686700000000002C6.12005,16.686700000000002,6.074,16.7299,6.074,16.9905L6.074,17.590400000000002C6.074,17.8437,6.12005,17.889699999999998,6.39141,17.889699999999998ZM9.9345,17.889699999999998L10.53547,17.889699999999998C10.80402,17.889699999999998,10.85,17.8437,10.85,17.590400000000002L10.85,16.9905C10.85,16.7299,10.80402,16.686700000000002,10.53547,16.686700000000002L9.9345,16.686700000000002C9.666,16.686700000000002,9.6171,16.7299,9.6171,16.9905L9.6171,17.590400000000002C9.6171,17.8437,9.666,17.889699999999998,9.9345,17.889699999999998ZM13.4776,17.889699999999998L14.0786,17.889699999999998C14.3471,17.889699999999998,14.396,17.8437,14.396,17.590400000000002L14.396,16.9905C14.396,16.7299,14.3471,16.686700000000002,14.0786,16.686700000000002L13.4776,16.686700000000002C13.2091,16.686700000000002,13.1602,16.7299,13.1602,16.9905L13.1602,17.590400000000002C13.1602,17.8437,13.2091,17.889699999999998,13.4776,17.889699999999998Z" fill="#FFFFFF" fill-opacity="0.699999988079071" style="mix-blend-mode:passthrough"/></g></g></svg>