<svg xmlns="http://www.w3.org/2000/svg" xmlns:xlink="http://www.w3.org/1999/xlink" fill="none" version="1.1" width="24.002304077148438" height="24.0023193359375" viewBox="0 0 24.002304077148438 24.0023193359375"><g><g><path d="M12.0009779296875,2Q11.9517579296875,2,11.9034579296875,2.00960736Q11.8551579296875,2.0192147,11.8096679296875,2.0380602Q11.7641679296875,2.0569057,11.7232179296875,2.0842652Q11.6822779296875,2.111625,11.6474579296875,2.146447Q11.6126279296875,2.181269,11.5852679296875,2.222215Q11.5579079296875,2.263161,11.5390679296875,2.308658Q11.5202179296875,2.354155,11.5106179296875,2.402455Q11.5010079296875,2.450754,11.5010079296875,2.5L11.5010079296875,6.99366L10.4544579296875,5.9471L10.4543379296875,5.94698Q10.3840179296875,5.87666,10.2921279296875,5.8386Q10.2002379296875,5.80054,10.1007879296875,5.80054Q10.0515379296875,5.80054,10.0032379296875,5.8101400000000005Q9.9549379296875,5.81975,9.909437929687499,5.8386Q9.8639479296875,5.85744,9.8229979296875,5.8848Q9.7820479296875,5.91216,9.7472279296875,5.94698Q9.712407929687501,5.981809999999999,9.6850479296875,6.02275Q9.6576879296875,6.0637,9.6388479296875,6.10919Q9.6199979296875,6.15469,9.6103879296875,6.20299Q9.600787929687499,6.25129,9.600787929687499,6.30054Q9.600787929687499,6.39999,9.6388479296875,6.49188Q9.6769079296875,6.58376,9.7472279296875,6.65409L11.6474579296875,8.55433Q11.6822779296875,8.58915,11.7232179296875,8.61651Q11.7641679296875,8.64386,11.8096679296875,8.66271Q11.8551579296875,8.68155,11.9034579296875,8.69116Q11.9517579296875,8.70077,12.0009779296875,8.70077Q12.0502779296875,8.70077,12.0985779296875,8.69116Q12.1468779296875,8.68155,12.1923779296875,8.66271Q12.2378779296875,8.64386,12.2787779296875,8.6165Q12.3197779296875,8.58914,12.3545779296875,8.55432L14.2547779296875,6.65409Q14.3250779296875,6.58376,14.3631779296875,6.49188Q14.4012779296875,6.39999,14.4012779296875,6.30054Q14.4012779296875,6.25129,14.3915779296875,6.20299Q14.3819779296875,6.15469,14.3631779296875,6.10919Q14.3442779296875,6.0637,14.3169779296875,6.02275Q14.2895779296875,5.981809999999999,14.2547779296875,5.94698Q14.2199779296875,5.91216,14.1789779296875,5.8848Q14.1380779296875,5.85744,14.0925779296875,5.8386Q14.0470779296875,5.81975,13.9987779296875,5.8101400000000005Q13.9504779296875,5.80054,13.9012779296875,5.80054Q13.8017779296875,5.80054,13.7098779296875,5.8386Q13.6179779296875,5.87666,13.5476779296875,5.94698L13.5474779296875,5.947150000000001L12.5009779296875,6.99366L12.5009779296875,2.5Q12.5009779296875,2.450754,12.4913779296875,2.402455Q12.4817779296875,2.354155,12.4629779296875,2.308658Q12.4440779296875,2.263161,12.4167779296875,2.222215Q12.3893779296875,2.181269,12.3545779296875,2.146447Q12.3197779296875,2.111625,12.2787779296875,2.0842652Q12.2378779296875,2.0569057,12.1923779296875,2.0380602Q12.1468779296875,2.0192147,12.0985779296875,2.00960736Q12.0502779296875,2,12.0009779296875,2ZM5.8003379296875,10.10095Q5.8003379296875,10.20041,5.8383979296875,10.29229Q5.876457929687501,10.38418,5.9467879296875,10.4545L6.9934979296875,11.50122L2.4999089296875,11.50122Q2.4506629296874998,11.50122,2.4023629296875,11.51083Q2.3540639296875,11.52044,2.3085669296875,11.53928Q2.2630699296875,11.55813,2.2221229296875,11.58549Q2.1811769296875,11.61284,2.1463549296875,11.64767Q2.1115329296875,11.68249,2.0841736296875,11.72343Q2.0568142296875,11.76438,2.0379686296875,11.80988Q2.0191231296875,11.85537,2.0095157996875,11.90368Q1.9999084472875,11.95197,1.9999084472875,12.0012Q1.9999084472875,12.0505,2.0095157996875,12.0988Q2.0191231296875,12.1471,2.0379686296875,12.1926Q2.0568142296875,12.2381,2.0841736296875,12.279Q2.1115329296875,12.32,2.1463549296875,12.3548Q2.1811769296875,12.3896,2.2221229296875,12.417Q2.2630699296875,12.4443,2.3085669296875,12.4632Q2.3540639296875,12.482,2.4023629296875,12.4916Q2.4506629296874998,12.5012,2.4999089296875,12.5012L6.9934279296875,12.5012L5.9470379296875,13.5476L5.9467879296875,13.5479Q5.876457929687501,13.6182,5.8383979296875,13.7101Q5.8003379296875,13.802,5.8003379296875,13.9014Q5.8003379296875,13.9507,5.8099479296875,13.999Q5.8195479296875,14.0473,5.8383979296875,14.0928Q5.8572479296874995,14.1383,5.884607929687499,14.1792Q5.9119679296875,14.2201,5.9467879296875,14.255Q5.981607929687501,14.2898,6.0225579296875,14.3172Q6.0634979296875,14.3445,6.1089979296875,14.3634Q6.1544979296875,14.3822,6.2027979296875,14.3918Q6.2510879296875,14.4014,6.3003379296875,14.4014Q6.3997979296875,14.4014,6.4916779296875,14.3634Q6.5835679296875,14.3253,6.6538979296875,14.255L8.5499679296875,12.3589Q8.6221979296875,12.2883,8.6613879296875,12.1953Q8.700577929687501,12.1022,8.700577929687501,12.0012Q8.700577929687501,11.95674,8.6927179296875,11.91297Q8.678057929687501,11.8312,8.6377479296875,11.75856Q8.6037179296875,11.69723,8.5541179296875,11.64763L6.6538979296875,9.747399999999999Q6.5835679296875,9.67707,6.4916779296875,9.639009999999999Q6.3997979296875,9.600950000000001,6.3003379296875,9.600950000000001Q6.2510879296875,9.600950000000001,6.2027979296875,9.61056Q6.1544979296875,9.62017,6.1089979296875,9.639009999999999Q6.0634979296875,9.65786,6.0225579296875,9.685220000000001Q5.981607929687501,9.712579999999999,5.9467879296875,9.747399999999999Q5.9119679296875,9.782219999999999,5.884607929687499,9.823170000000001Q5.8572479296874995,9.86411,5.8383979296875,9.90961Q5.8195479296875,9.955110000000001,5.8099479296875,10.00341Q5.8003379296875,10.05171,5.8003379296875,10.10095ZM18.2016779296875,10.10095Q18.2016779296875,10.20041,18.1635779296875,10.29229Q18.1255779296875,10.38418,18.0552779296875,10.4545L17.0084779296875,11.50122L21.5020779296875,11.50122Q21.5513779296875,11.50122,21.5996779296875,11.51083Q21.6479779296875,11.52044,21.6934779296875,11.53928Q21.7389779296875,11.55813,21.7798779296875,11.58549Q21.8208779296875,11.61284,21.8556779296875,11.64767Q21.8904779296875,11.68249,21.9178779296875,11.72343Q21.9451779296875,11.76438,21.9640779296875,11.80988Q21.9828779296875,11.85537,21.9924779296875,11.90368Q22.0020779296875,11.95197,22.0020779296875,12.0012Q22.0020779296875,12.0505,21.9924779296875,12.0988Q21.9828779296875,12.1471,21.9640779296875,12.1926Q21.9451779296875,12.2381,21.9178779296875,12.279Q21.8904779296875,12.32,21.8556779296875,12.3548Q21.8208779296875,12.3896,21.7798779296875,12.417Q21.7389779296875,12.4443,21.6934779296875,12.4632Q21.6479779296875,12.482,21.5996779296875,12.4916Q21.5513779296875,12.5012,21.5020779296875,12.5012L17.008577929687497,12.5012L18.0549779296875,13.5476L18.0552779296875,13.5479Q18.1255779296875,13.6182,18.1635779296875,13.7101Q18.2016779296875,13.802,18.2016779296875,13.9014Q18.2016779296875,13.9507,18.1920779296875,13.999Q18.1824779296875,14.0473,18.1635779296875,14.0928Q18.1447779296875,14.1383,18.1173779296875,14.1792Q18.0900779296875,14.2201,18.0552779296875,14.255Q18.0203779296875,14.2898,17.979477929687498,14.3172Q17.9384779296875,14.3445,17.8929779296875,14.3634Q17.8474779296875,14.3822,17.799177929687502,14.3918Q17.750877929687498,14.4014,17.7016779296875,14.4014Q17.6021779296875,14.4014,17.5103779296875,14.3634Q17.418477929687498,14.3253,17.3480779296875,14.255L15.4513779296875,12.3582Q15.3462779296875,12.2551,15.3137779296875,12.1115Q15.3043779296875,12.0698,15.3020779296875,12.0271Q15.3014779296875,12.0141,15.3014779296875,12.0012Q15.3014779296875,11.96237,15.3074779296875,11.92399Q15.3325779296875,11.76291,15.4478779296875,11.64763L17.3478779296875,9.747620000000001L17.3480779296875,9.747399999999999Q17.418477929687498,9.67707,17.5103779296875,9.639009999999999Q17.6021779296875,9.600950000000001,17.7016779296875,9.600950000000001Q17.750877929687498,9.600950000000001,17.799177929687502,9.61056Q17.8474779296875,9.62017,17.8929779296875,9.639009999999999Q17.9384779296875,9.65786,17.979477929687498,9.685220000000001Q18.0203779296875,9.712579999999999,18.0551779296875,9.747399999999999Q18.0900779296875,9.782219999999999,18.1173779296875,9.823170000000001Q18.1447779296875,9.86411,18.1635779296875,9.90961Q18.1824779296875,9.955110000000001,18.1920779296875,10.00341Q18.2016779296875,10.05171,18.2016779296875,10.10095ZM12.0009779296875,13.4513Q12.0722779296875,13.4513,12.1431779296875,13.4443Q12.2140779296875,13.4373,12.2838779296875,13.4234Q12.3537779296875,13.4095,12.4219779296875,13.3888Q12.4901779296875,13.3681,12.5559779296875,13.3409Q12.6217779296875,13.3136,12.6845779296875,13.28Q12.7473779296875,13.2464,12.8066779296875,13.2069Q12.8658779296875,13.1673,12.9209779296875,13.1221Q12.9759779296875,13.0769,13.0263779296875,13.0265Q13.0767779296875,12.9762,13.1219779296875,12.9211Q13.1671779296875,12.866,13.2067779296875,12.8068Q13.2462779296875,12.7475,13.2798779296875,12.6847Q13.3134779296875,12.6219,13.3407779296875,12.5561Q13.3679779296875,12.4903,13.3886779296875,12.4221Q13.4093779296875,12.3539,13.4232779296875,12.284Q13.4371779296875,12.2142,13.4441779296875,12.1433Q13.4510779296875,12.0724,13.4510779296875,12.0011Q13.4510779296875,11.9299,13.4441779296875,11.85901Q13.4371779296875,11.78811,13.4232779296875,11.71824Q13.4093779296875,11.64837,13.3886779296875,11.5802Q13.3679779296875,11.51202,13.3407779296875,11.44621Q13.3134779296875,11.38039,13.2798779296875,11.31756Q13.2462779296875,11.25473,13.2067779296875,11.1955Q13.1671779296875,11.13627,13.1219779296875,11.0812Q13.0767779296875,11.02613,13.0263779296875,10.97575Q12.9759779296875,10.92538,12.9209779296875,10.88019Q12.8658779296875,10.83499,12.8066779296875,10.79541Q12.7473779296875,10.75583,12.6845779296875,10.72225Q12.6217779296875,10.68867,12.5559779296875,10.66141Q12.4901779296875,10.63415,12.4219779296875,10.61347Q12.3537779296875,10.59279,12.2838779296875,10.57889Q12.2140779296875,10.56499,12.1431779296875,10.55801Q12.0722779296875,10.55103,12.0009779296875,10.55103Q11.9297779296875,10.55103,11.8588779296875,10.55801Q11.7879879296875,10.56499,11.7181079296875,10.57889Q11.6482379296875,10.59279,11.5800679296875,10.61347Q11.5118979296875,10.63415,11.4460779296875,10.66141Q11.3802679296875,10.68867,11.3174379296875,10.72225Q11.2546079296875,10.75583,11.1953779296875,10.79541Q11.1361379296875,10.83499,11.0810779296875,10.88019Q11.0260079296875,10.92538,10.9756279296875,10.97575Q10.9252579296875,11.02613,10.8800679296875,11.0812Q10.8348679296875,11.13627,10.7952879296875,11.1955Q10.7557079296875,11.25473,10.7221279296875,11.31756Q10.6885479296875,11.38039,10.6612879296875,11.44621Q10.6340279296875,11.51202,10.6133479296875,11.5802Q10.5926679296875,11.64837,10.5787679296875,11.71824Q10.5648679296875,11.78811,10.5578879296875,11.85901Q10.5509079296875,11.9299,10.5509079296875,12.0011Q10.5509079296875,12.0724,10.5578879296875,12.1433Q10.5648679296875,12.2142,10.5787679296875,12.284Q10.5926679296875,12.3539,10.6133479296875,12.4221Q10.6340279296875,12.4903,10.6612879296875,12.5561Q10.6885479296875,12.6219,10.7221279296875,12.6847Q10.7557079296875,12.7475,10.7952879296875,12.8068Q10.8348679296875,12.866,10.8800679296875,12.9211Q10.9252579296875,12.9762,10.9756279296875,13.0265Q11.0260079296875,13.0769,11.0810679296875,13.1221Q11.1361379296875,13.1673,11.1953779296875,13.2069Q11.2546079296875,13.2464,11.3174379296875,13.28Q11.3802679296875,13.3136,11.4460779296875,13.3409Q11.5118979296875,13.3681,11.5800679296875,13.3888Q11.6482379296875,13.4095,11.7181079296875,13.4234Q11.7879879296875,13.4373,11.8588779296875,13.4443Q11.9297779296875,13.4513,12.0009779296875,13.4513ZM12.0009779296875,11.55103Q12.0453779296875,11.55103,12.0887779296875,11.55967Q12.1322779296875,11.56832,12.1732779296875,11.58529Q12.2141779296875,11.60225,12.2510779296875,11.62688Q12.2879779296875,11.65151,12.3192779296875,11.68286Q12.3506779296875,11.71421,12.3752779296875,11.75107Q12.3998779296875,11.78793,12.4168779296875,11.82889Q12.4337779296875,11.86985,12.4424779296875,11.91333Q12.4510779296875,11.95681,12.4510779296875,12.0011Q12.4510779296875,12.0455,12.4424779296875,12.089Q12.4337779296875,12.1324,12.4168779296875,12.1734Q12.3998779296875,12.2144,12.3752779296875,12.2512Q12.3506779296875,12.2881,12.3192779296875,12.3194Q12.2879779296875,12.3508,12.2510779296875,12.3754Q12.2141779296875,12.4,12.1732779296875,12.417Q12.1322779296875,12.434,12.0887779296875,12.4426Q12.0453779296875,12.4513,12.0009779296875,12.4513Q11.9566779296875,12.4513,11.9131979296875,12.4426Q11.8697179296875,12.434,11.8287679296875,12.417Q11.7878079296875,12.4,11.7509479296875,12.3754Q11.7140879296875,12.3508,11.6827379296875,12.3194Q11.6513879296875,12.2881,11.6267579296875,12.2512Q11.6021279296875,12.2144,11.5851679296875,12.1734Q11.5681979296875,12.1324,11.5595479296875,12.089Q11.5508979296875,12.0455,11.5509079296875,12.0011Q11.5508979296875,11.95681,11.5595479296875,11.91333Q11.5681979296875,11.86985,11.5851679296875,11.82889Q11.6021279296875,11.78793,11.6267579296875,11.75107Q11.6513879296875,11.71421,11.6827379296875,11.68286Q11.7140879296875,11.65151,11.7509479296875,11.62688Q11.7878079296875,11.60225,11.8287679296875,11.58529Q11.8697179296875,11.56832,11.9131979296875,11.55967Q11.9566779296875,11.55103,12.0009779296875,11.55103ZM9.7472279296875,17.348300000000002L11.6474479296875,15.4481Q11.7177779296875,15.3778,11.8096679296875,15.3397Q11.9015479296875,15.3016,12.0009779296875,15.3016Q12.1004779296875,15.3016,12.1923779296875,15.3397Q12.2842779296875,15.3778,12.3545779296875,15.4481L12.3551779296875,15.4487L14.2547779296875,17.348300000000002Q14.3250779296875,17.418599999999998,14.3631779296875,17.5105Q14.4012779296875,17.6024,14.4012779296875,17.701900000000002Q14.4012779296875,17.7511,14.3915779296875,17.7994Q14.3819779296875,17.8477,14.3631779296875,17.8932Q14.3442779296875,17.9387,14.3169779296875,17.9797Q14.2895779296875,18.0206,14.2547779296875,18.0554Q14.2199779296875,18.0902,14.1789779296875,18.1176Q14.1380779296875,18.145,14.0925779296875,18.1638Q14.0470779296875,18.1827,13.9987779296875,18.1923Q13.9504779296875,18.2019,13.9012779296875,18.2019Q13.8017779296875,18.2019,13.7098779296875,18.1638Q13.6179779296875,18.1257,13.5476779296875,18.0554L13.5475779296875,18.0553L12.5009779296875,17.008699999999997L12.5009779296875,21.5023Q12.5009779296875,21.5516,12.4913779296875,21.5999Q12.4817779296875,21.6482,12.4629779296875,21.6937Q12.4440779296875,21.7392,12.4167779296875,21.7801Q12.3893779296875,21.8211,12.3545779296875,21.8559Q12.3197779296875,21.8907,12.2787779296875,21.9181Q12.2378779296875,21.9454,12.1923779296875,21.9643Q12.1468779296875,21.9831,12.0985779296875,21.9927Q12.0502779296875,22.0023,12.0009779296875,22.0023Q11.9517579296875,22.0023,11.9034579296875,21.9927Q11.8551579296875,21.9831,11.8096679296875,21.9643Q11.7641679296875,21.9454,11.7232179296875,21.9181Q11.6822779296875,21.8907,11.6474579296875,21.8559Q11.6126279296875,21.8211,11.5852679296875,21.7801Q11.5579079296875,21.7392,11.5390679296875,21.6937Q11.5202179296875,21.6482,11.5106179296875,21.5999Q11.5010079296875,21.5516,11.5010079296875,21.5023L11.5010079296875,17.008699999999997L10.4543379296875,18.0554Q10.3840179296875,18.1257,10.2921279296875,18.1638Q10.2002379296875,18.2019,10.1007879296875,18.2019Q10.0515379296875,18.2019,10.0032379296875,18.1923Q9.9549379296875,18.1827,9.909437929687499,18.1638Q9.8639479296875,18.145,9.8229979296875,18.1176Q9.7820479296875,18.0902,9.7472279296875,18.0554Q9.712407929687501,18.0206,9.6850479296875,17.9797Q9.6576879296875,17.9387,9.6388479296875,17.8932Q9.6199979296875,17.8477,9.6103879296875,17.7994Q9.600787929687499,17.7511,9.600787929687499,17.701900000000002Q9.600787929687499,17.6024,9.6388479296875,17.5105Q9.6769079296875,17.418599999999998,9.7472279296875,17.348300000000002Z" fill-rule="evenodd" fill="#FFFFFF" fill-opacity="1" style="mix-blend-mode:passthrough"/></g></g></svg>