<svg xmlns="http://www.w3.org/2000/svg" xmlns:xlink="http://www.w3.org/1999/xlink" fill="none" version="1.1" width="24" height="24" viewBox="0 0 24 24"><defs><clipPath id="master_svg0_287_2534"><rect x="0" y="0" width="24" height="24" rx="0"/></clipPath></defs><g clip-path="url(#master_svg0_287_2534)"><g><path d="M17.5,4Q17.5,2.96447,18.2322,2.2322319999999998Q18.9645,1.5,20,1.5Q21.0355,1.5,21.7678,2.2322319999999998Q22.5,2.96447,22.5,4Q22.5,5.03552,21.7678,5.76776Q21.0355,6.5,20,6.5Q18.9645,6.5,18.2322,5.76776Q17.5,5.03552,17.5,4ZM1.5,5Q1.5,3.96447,2.232233,3.23223Q2.96447,2.5,4,2.5Q5.03552,2.5,5.76776,3.23223Q6.5,3.96447,6.5,5Q6.5,6.03552,5.76776,6.76776Q5.03552,7.5,4,7.5Q2.96447,7.5,2.2322319999999998,6.76776Q1.5,6.03552,1.5,5ZM18.5,4Q18.5,4.621309999999999,18.9393,5.06065Q19.3787,5.5,20,5.5Q20.6213,5.5,21.0607,5.06065Q21.5,4.621309999999999,21.5,4Q21.5,3.37868,21.0607,2.93934Q20.6213,2.5,20,2.5Q19.3787,2.5,18.9393,2.93934Q18.5,3.37868,18.5,4ZM2.5,5Q2.5,5.62131,2.93934,6.06065Q3.37868,6.5,4,6.5Q4.621309999999999,6.5,5.06065,6.06065Q5.5,5.62131,5.5,5Q5.5,4.37868,5.06065,3.93934Q4.621309999999999,3.5,4,3.5Q3.37868,3.5,2.93934,3.93934Q2.5,4.37868,2.5,5ZM14.062,4.4961400000000005Q14.107,4.49052,14.1502,4.4769000000000005Q14.1935,4.46328,14.2335,4.44211Q14.2736,4.42094,14.3092,4.3929100000000005Q14.3448,4.364879999999999,14.3748,4.3309Q14.4048,4.29692,14.4282,4.258100000000001Q14.4516,4.2192799999999995,14.4677,4.17689Q14.4837,4.1345,14.4918,4.08991Q14.5,4.04532,14.5,4Q14.5,3.95075,14.4904,3.90245Q14.4808,3.85416,14.4619,3.80866Q14.4431,3.76316,14.4157,3.72221Q14.3884,3.68127,14.3536,3.64645Q14.3187,3.61162,14.2778,3.58426Q14.2368,3.55691,14.1913,3.53806Q14.1458,3.51921,14.0975,3.50961Q14.0492,3.5,14,3.5Q13.9689,3.5,13.938,3.50386L9.93798,4.0038599999999995Q9.89301,4.00948,9.84978,4.0230999999999995Q9.80655,4.03672,9.76647,4.05789Q9.72639,4.07906,9.69077,4.1070899999999995Q9.65516,4.135120000000001,9.62516,4.1691Q9.59516,4.20308,9.57177,4.241899999999999Q9.54837,4.2807200000000005,9.53234,4.32311Q9.5163,4.3655,9.50815,4.41009Q9.5,4.45468,9.5,4.5Q9.5,4.54925,9.50961,4.59754Q9.51921,4.64584,9.53806,4.69134Q9.5569,4.73684,9.58426,4.77778Q9.61162,4.81873,9.64645,4.85355Q9.68127,4.88837,9.72221,4.91573Q9.76316,4.94309,9.80866,4.96194Q9.85415,4.98078,9.90245,4.99039Q9.95075,5,10,5Q10.03113,5,10.06202,4.9961400000000005L10.06211,4.99613L14.062,4.4961400000000005ZM16.5,8Q16.5,8.09946,16.4619,8.19134Q16.4239,8.28323,16.3536,8.35355L8.35355,16.3536Q8.28323,16.4239,8.19134,16.4619Q8.09946,16.5,8,16.5Q7.95075,16.5,7.90245,16.4904Q7.85415,16.480800000000002,7.80866,16.4619Q7.76316,16.4431,7.72221,16.4157Q7.68127,16.3884,7.64645,16.3536Q7.61162,16.3187,7.58426,16.2778Q7.5569,16.236800000000002,7.53806,16.1913Q7.51921,16.1458,7.50961,16.0975Q7.5,16.0492,7.5,16Q7.5,15.9005,7.53806,15.8087Q7.57612,15.7168,7.64645,15.6464L7.64663,15.6463L15.6463,7.64663L15.6464,7.64645Q15.7168,7.57612,15.8087,7.53806Q15.9005,7.5,16,7.5Q16.0492,7.5,16.0975,7.50961Q16.1458,7.51921,16.1913,7.53806Q16.236800000000002,7.55691,16.2778,7.58426Q16.3187,7.61162,16.3536,7.64645Q16.3884,7.68127,16.4157,7.72221Q16.4431,7.76316,16.4619,7.80866Q16.480800000000002,7.85415,16.4904,7.90245Q16.5,7.95075,16.5,8ZM20.5,10Q20.5,10.03113,20.4961,10.06202L20.4961,10.06211L19.9961,14.062Q19.9905,14.107,19.9769,14.1502Q19.9633,14.1935,19.9421,14.2335Q19.9209,14.2736,19.8929,14.3092Q19.8649,14.3448,19.8309,14.3748Q19.7969,14.4048,19.7581,14.4282Q19.7193,14.4516,19.6769,14.4677Q19.6345,14.4837,19.5899,14.4918Q19.5453,14.5,19.5,14.5Q19.4508,14.5,19.4025,14.4904Q19.3542,14.4808,19.3087,14.4619Q19.2632,14.4431,19.2222,14.4157Q19.1813,14.3884,19.1464,14.3536Q19.1116,14.3187,19.0843,14.2778Q19.0569,14.2368,19.0381,14.1913Q19.0192,14.1458,19.0096,14.0975Q19,14.0492,19,14Q19,13.9689,19.0039,13.938L19.5039,9.93807L19.5039,9.93798Q19.5095,9.89301,19.5231,9.84978Q19.5367,9.80655,19.5579,9.76647Q19.5791,9.72639,19.6071,9.69077Q19.6351,9.65516,19.6691,9.62516Q19.7031,9.59516,19.7419,9.57177Q19.7807,9.54837,19.8231,9.53234Q19.8655,9.5163,19.9101,9.50815Q19.9547,9.5,20,9.5Q20.0492,9.5,20.0975,9.50961Q20.1458,9.51921,20.1913,9.53806Q20.2368,9.55691,20.2778,9.58426Q20.3187,9.61162,20.3536,9.64645Q20.3884,9.68127,20.4157,9.72221Q20.4431,9.76316,20.4619,9.80866Q20.4808,9.85415,20.4904,9.90245Q20.5,9.95075,20.5,10ZM1.5,20Q1.5,18.9645,2.2322319999999998,18.2322Q2.96447,17.5,4,17.5Q5.03552,17.5,5.76776,18.2322Q6.5,18.9645,6.5,20Q6.5,21.0355,5.76776,21.7678Q5.03552,22.5,4,22.5Q2.96447,22.5,2.2322319999999998,21.7678Q1.5,21.0355,1.5,20ZM16.5,20Q16.5,18.9645,17.2322,18.2322Q17.9645,17.5,19,17.5Q20.0355,17.5,20.7678,18.2322Q21.5,18.9645,21.5,20Q21.5,21.0355,20.7678,21.7678Q20.0355,22.5,19,22.5Q17.9645,22.5,17.2322,21.7678Q16.5,21.0355,16.5,20ZM2.5,20Q2.5,20.6213,2.93934,21.0607Q3.37868,21.5,4,21.5Q4.621309999999999,21.5,5.06065,21.0607Q5.5,20.6213,5.5,20Q5.5,19.3787,5.06065,18.9393Q4.621309999999999,18.5,4,18.5Q3.37868,18.5,2.93934,18.9393Q2.5,19.3787,2.5,20ZM17.5,20Q17.5,20.6213,17.9393,21.0607Q18.3787,21.5,19,21.5Q19.6213,21.5,20.0607,21.0607Q20.5,20.6213,20.5,20Q20.5,19.3787,20.0607,18.9393Q19.6213,18.5,19,18.5Q18.3787,18.5,17.9393,18.9393Q17.5,19.3787,17.5,20Z" fill-rule="evenodd" fill="#FFFFFF" fill-opacity="1" style="mix-blend-mode:passthrough"/></g></g></svg>