<svg xmlns="http://www.w3.org/2000/svg" xmlns:xlink="http://www.w3.org/1999/xlink" fill="none" version="1.1" width="24" height="24" viewBox="0 0 24 24"><defs><clipPath id="master_svg0_287_2459"><rect x="24" y="0" width="24" height="24" rx="0"/></clipPath></defs><g transform="matrix(-1,0,0,1,48,0)" clip-path="url(#master_svg0_287_2459)"><g><g><path d="M37.0584,23C43.108599999999996,23,48,18.0744,48,12C48,5.91745,43.108599999999996,1,37.0584,1C31.00814,1,26.11677,5.91745,26.11677,12L26.96143,12C26.96143,6.38737,31.47555,1.849163,37.0584,1.849163C42.6412,1.849163,47.1554,6.38737,47.1554,12C47.1554,17.6045,42.6412,22.1427,37.0584,22.1427C33.39068,22.1427,30.11714,20.1438,28.415860000000002,17.2159C28.27077,16.9983,28.02745,16.9332,27.81585,17.0521C27.61852,17.171,27.556919999999998,17.4358,27.70335,17.6629C29.5591,20.8354,33.06925,23,37.0584,23ZM24.462813,10.07689C24.0128125,10.07689,23.860137,10.3924,24.142723,10.7945L26.48998,14.1686C26.72168,14.5069,27.04042,14.5039,27.27702,14.1686L29.62115,10.79134C29.90374,10.3924,29.74794,10.07689,29.29616,10.07689L24.462813,10.07689Z" fill="#FFFFFF" fill-opacity="0.30000001192092896" style="mix-blend-mode:passthrough"/><path d="M31.53049,21.6075Q34.09,23.1,37.0584,23.1Q39.3074,23.1,41.3596,22.2275Q43.341300000000004,21.385,44.869,19.8484Q46.396,18.3124,47.2334,16.3201Q48.1,14.2582,48.1,12Q48.1,9.73897,47.2334,7.67644Q46.3962,5.6839,44.8689,4.1485199999999995Q43.3417,2.6130899999999997,41.3596,1.7713459999999999Q39.3077,0.899999,37.0584,0.899999Q34.8091,0.9,32.75725,1.7713480000000001Q30.77515,2.61307,29.24785,4.1485199999999995Q27.72059,5.68391,26.88339,7.67644Q26.41242,8.79735,26.197400000000002,9.97689L24.462813,9.97689Q24.0590272,9.97689,23.9371165,10.2433Q23.817235,10.50527,24.0609068,10.852L26.407890000000002,14.2257Q26.61076,14.5219,26.88194,14.5212Q27.15111,14.5204,27.35873,14.2262L29.703310000000002,10.84836Q29.94701,10.50431,29.82466,10.24221Q29.7008,9.97689,29.29616,9.97689L27.26176,9.97689Q27.45792,9.00883,27.84619,8.08484Q28.60429,6.28069,29.98725,4.89037Q31.37017,3.50008,33.164590000000004,2.738Q35.022,1.9491640000000001,37.0584,1.9491610000000001Q39.0948,1.9491640000000001,40.952200000000005,2.738Q42.7466,3.50009,44.1295,4.89037Q45.5125,6.28071,46.2706,8.08484Q47.0554,9.95241,47.0554,12Q47.0554,14.0446,46.2706,15.9104Q45.5125,17.713,44.129599999999996,19.1025Q42.7465,20.4921,40.952200000000005,21.254Q39.0947,22.0427,37.0584,22.0427Q34.376,22.0427,32.04997,20.6908Q29.78608,19.375,28.50232,17.1656L28.50077,17.163L28.49906,17.1604Q28.36963,16.9663,28.16699,16.9113Q27.96153,16.8555,27.76686,16.9649L27.76554,16.965600000000002L27.76424,16.9664Q27.57585,17.0799,27.53261,17.2974Q27.48947,17.5144,27.61809,17.7152Q29.04915,20.1607,31.53049,21.6075ZM37.0584,1C31.69573,1,27.2435,4.86327,26.30081,9.97689C26.29468,10.01017,26.28869,10.0435,26.28285,10.07689L24.462813,10.07689C24.0128125,10.07689,23.860137,10.3924,24.142723,10.7945L26.48998,14.1686C26.72168,14.5069,27.04042,14.5039,27.27702,14.1686L29.62115,10.79134C29.90374,10.3924,29.74794,10.07689,29.29616,10.07689L27.14182,10.07689C27.14817,10.0435,27.15468,10.01016,27.161360000000002,9.97689C28.09232,5.33599,32.1648,1.849163,37.0584,1.849163C42.6412,1.849163,47.1554,6.38737,47.1554,12C47.1554,17.6045,42.6412,22.1427,37.0584,22.1427C33.39068,22.1427,30.11714,20.1438,28.415860000000002,17.2159C28.27077,16.9983,28.02745,16.9332,27.81585,17.0521C27.61852,17.171,27.556919999999998,17.4358,27.70335,17.6629C29.5591,20.8354,33.06925,23,37.0584,23C43.108599999999996,23,48,18.0744,48,12C48,5.91745,43.108599999999996,1,37.0584,1Z" fill-rule="evenodd" fill="#FFFFFF" fill-opacity="0.30000001192092896"/></g><g><path d="M37.05844207556152,5.824102878570557C36.76197607556152,5.824102878570557,36.52579307556152,6.058375878570557,36.52579307556152,6.356385878570556L36.52579307556152,12.630942878570558C36.52579307556152,12.900272878570558,36.591028675561525,13.043882878570557,36.71645407556152,13.205022878570556L39.42532307556152,16.784202878570557C39.671213075561525,17.114502878570555,40.025303075561524,17.120302878570556,40.261003075561526,16.924202878570554C40.45700307556152,16.761702878570556,40.51766307556152,16.45110287857056,40.29224307556152,16.154502878570554L37.21510407556153,11.969462878570557L37.587853075561526,13.120672878570556L37.587853075561526,6.356385878570556C37.587853075561526,6.058375878570557,37.351671075561526,5.824102878570557,37.05844207556152,5.824102878570557Z" fill="#FFFFFF" fill-opacity="0.30000001192092896" style="mix-blend-mode:passthrough"/></g></g></g></svg>