<svg xmlns="http://www.w3.org/2000/svg" xmlns:xlink="http://www.w3.org/1999/xlink" fill="none" version="1.1" width="56" height="56" viewBox="0 0 56 56"><defs><linearGradient x1="1" y1="0.5" x2="0" y2="0.5" id="master_svg0_31_697"><stop offset="0%" stop-color="#151515" stop-opacity="1"/><stop offset="100%" stop-color="#333333" stop-opacity="1"/></linearGradient><clipPath id="master_svg1_287_2176"><rect x="40" y="16" width="24" height="24" rx="0"/></clipPath></defs><g><g style="opacity:0.699999988079071;"><ellipse cx="28" cy="28" rx="28" ry="28" fill="url(#master_svg0_31_697)" fill-opacity="1"/><path d="M56,28Q56,28.6874,55.9663,29.3739Q55.9325,30.0604,55.8652,30.7445Q55.7978,31.4285,55.6969,32.1085Q55.5961,32.7884,55.462,33.4625Q55.3279,34.1367,55.1609,34.8034Q54.9939,35.4702,54.7943,36.128Q54.5948,36.7857,54.3632,37.4329Q54.1317,38.0801,53.8686,38.7151Q53.6056,39.3502,53.3117,39.9715Q53.0178,40.5929,52.6938,41.1991Q52.3698,41.8053,52.0164,42.3949Q51.663,42.9844,51.2811,43.556Q50.8993,44.1275,50.4898,44.6796Q50.0803,45.2317,49.6443,45.763Q49.2082,46.2943,48.7466,46.8036Q48.285,47.3129,47.799,47.799Q47.3129,48.285,46.8036,48.7466Q46.2943,49.2082,45.763,49.6443Q45.2317,50.0803,44.6796,50.4898Q44.1275,50.8993,43.556,51.2811Q42.9844,51.663,42.3949,52.0164Q41.8053,52.3698,41.1991,52.6938Q40.5929,53.0178,39.9715,53.3117Q39.3502,53.6056,38.7151,53.8686Q38.0801,54.1317,37.4329,54.3632Q36.7857,54.5948,36.128,54.7943Q35.4702,54.9939,34.8034,55.1609Q34.1367,55.3279,33.4625,55.462Q32.7884,55.5961,32.1085,55.6969Q31.4285,55.7978,30.7445,55.8652Q30.0604,55.9325,29.3739,55.9663Q28.6874,56,28,56Q27.3126,56,26.6261,55.9663Q25.9396,55.9325,25.2555,55.8652Q24.5715,55.7978,23.8915,55.6969Q23.2116,55.5961,22.5375,55.462Q21.8633,55.3279,21.1966,55.1609Q20.5298,54.9939,19.872,54.7943Q19.2143,54.5948,18.5671,54.3632Q17.9199,54.1317,17.2849,53.8686Q16.6498,53.6056,16.0285,53.3117Q15.4071,53.0178,14.8009,52.6938Q14.1947,52.3698,13.6051,52.0164Q13.0156,51.663,12.444,51.2811Q11.8725,50.8993,11.3204,50.4898Q10.7683,50.0803,10.237,49.6443Q9.70565,49.2082,9.19635,48.7466Q8.68705,48.285,8.20101,47.799Q7.71497,47.3129,7.25337,46.8036Q6.79176,46.2943,6.35571,45.763Q5.91965,45.2317,5.51019,44.6796Q5.10073,44.1275,4.71885,43.556Q4.33697,42.9844,3.9836,42.3949Q3.63022,41.8053,3.3062,41.1991Q2.98218,40.5929,2.6883,39.9715Q2.39441,39.3502,2.13137,38.7151Q1.86833,38.0801,1.63677,37.4329Q1.4052,36.7857,1.20567,36.128Q1.00614,35.4702,0.839125,34.8034Q0.67211,34.1367,0.538012,33.4625Q0.403914,32.7884,0.303058,32.1085Q0.202201,31.4285,0.134828,30.7445Q0.0674544,30.0604,0.0337272,29.3739Q0,28.6874,0,28Q0,27.3126,0.0337272,26.6261Q0.0674544,25.9396,0.134828,25.2555Q0.202201,24.5715,0.303058,23.8915Q0.403914,23.2116,0.538012,22.5375Q0.67211,21.8633,0.839125,21.1966Q1.00614,20.5298,1.20567,19.872Q1.4052,19.2143,1.63677,18.5671Q1.86833,17.9199,2.13137,17.2849Q2.39441,16.6498,2.6883,16.0285Q2.98218,15.4071,3.3062,14.8009Q3.63022,14.1947,3.9836,13.6051Q4.33697,13.0156,4.71885,12.444Q5.10073,11.8725,5.51019,11.3204Q5.91965,10.7683,6.35571,10.237Q6.79176,9.70565,7.25337,9.19635Q7.71497,8.68705,8.20101,8.20101Q8.68705,7.71497,9.19635,7.25337Q9.70565,6.79176,10.237,6.35571Q10.7683,5.91965,11.3204,5.51019Q11.8725,5.10073,12.444,4.71885Q13.0156,4.33697,13.6051,3.9836Q14.1947,3.63022,14.8009,3.3062Q15.4071,2.98218,16.0285,2.6883Q16.6498,2.39441,17.2849,2.13137Q17.9199,1.86833,18.5671,1.63677Q19.2143,1.4052,19.872,1.20567Q20.5298,1.00614,21.1966,0.839125Q21.8633,0.67211,22.5375,0.538012Q23.2116,0.403914,23.8915,0.303058Q24.5715,0.202201,25.2555,0.134828Q25.9396,0.0674544,26.6261,0.0337272Q27.3126,0,28,0Q28.6874,0,29.3739,0.0337272Q30.0604,0.0674544,30.7445,0.134828Q31.4285,0.202201,32.1085,0.303058Q32.7884,0.403914,33.4625,0.538012Q34.1367,0.67211,34.8034,0.839125Q35.4702,1.00614,36.128,1.20567Q36.7857,1.4052,37.4329,1.63677Q38.0801,1.86833,38.7151,2.13137Q39.3502,2.39441,39.9715,2.6883Q40.5929,2.98218,41.1991,3.3062Q41.8053,3.63022,42.3949,3.9836Q42.9844,4.33697,43.556,4.71885Q44.1275,5.10073,44.6796,5.51019Q45.2317,5.91965,45.763,6.35571Q46.2943,6.79176,46.8036,7.25337Q47.3129,7.71497,47.799,8.20101Q48.285,8.68705,48.7466,9.19635Q49.2082,9.70565,49.6443,10.237Q50.0803,10.7683,50.4898,11.3204Q50.8993,11.8725,51.2811,12.444Q51.663,13.0156,52.0164,13.6051Q52.3698,14.1947,52.6938,14.8009Q53.0178,15.4071,53.3117,16.0285Q53.6056,16.6498,53.8686,17.2849Q54.1317,17.9199,54.3632,18.5671Q54.5948,19.2143,54.7943,19.872Q54.9939,20.5298,55.1609,21.1966Q55.3279,21.8633,55.462,22.5375Q55.5961,23.2116,55.6969,23.8915Q55.7978,24.5715,55.8652,25.2555Q55.9325,25.9396,55.9663,26.6261Q56,27.3126,56,28ZM55,28Q55,27.3372,54.9675,26.6752Q54.935,26.0132,54.87,25.3535Q54.805,24.6939,54.7078,24.0383Q54.6105,23.3826,54.4812,22.7326Q54.3519,22.0825,54.1908,21.4395Q54.0298,20.7966,53.8374,20.1623Q53.645,19.528,53.4217,18.904Q53.1984,18.2799,52.9447,17.6675Q52.6911,17.0552,52.4077,16.456Q52.1243,15.8568,51.8119,15.2723Q51.4994,14.6877,51.1587,14.1192Q50.8179,13.5507,50.4497,12.9996Q50.0814,12.4485,49.6866,11.9161Q49.2918,11.3837,48.8713,10.8714Q48.4508,10.359,48.0057,9.86791Q47.5606,9.3768,47.0919,8.90812Q46.6232,8.43944,46.1321,7.99432Q45.641,7.5492,45.1286,7.12872Q44.6163,6.70823,44.0839,6.3134Q43.5515,5.91856,43.0004,5.55032Q42.4493,5.18208,41.8808,4.84133Q41.3123,4.50057,40.7277,4.18813Q40.1432,3.87568,39.544,3.59229Q38.9448,3.3089,38.3324,3.05525Q37.7201,2.8016,37.096,2.57831Q36.472,2.35502,35.8377,2.16261Q35.2034,1.97021,34.5605,1.80916Q33.9175,1.64811,33.2674,1.5188Q32.6174,1.38949,31.9617,1.29223Q31.3061,1.19498,30.6465,1.13001Q29.9868,1.06505,29.3248,1.03252Q28.6628,1,28,1Q27.3372,1,26.6752,1.03252Q26.0132,1.06505,25.3535,1.13001Q24.6939,1.19498,24.0383,1.29223Q23.3826,1.38949,22.7326,1.5188Q22.0825,1.64811,21.4395,1.80916Q20.7966,1.97021,20.1623,2.16261Q19.528,2.35502,18.904,2.57831Q18.2799,2.8016,17.6675,3.05525Q17.0552,3.3089,16.456,3.59229Q15.8568,3.87568,15.2723,4.18813Q14.6877,4.50057,14.1192,4.84133Q13.5507,5.18208,12.9996,5.55032Q12.4485,5.91856,11.9161,6.3134Q11.3837,6.70823,10.8714,7.12872Q10.359,7.5492,9.86791,7.99432Q9.3768,8.43944,8.90812,8.90812Q8.43944,9.3768,7.99432,9.86791Q7.5492,10.359,7.12872,10.8714Q6.70823,11.3837,6.3134,11.9161Q5.91856,12.4485,5.55032,12.9996Q5.18208,13.5507,4.84133,14.1192Q4.50057,14.6877,4.18813,15.2723Q3.87568,15.8568,3.59229,16.456Q3.3089,17.0552,3.05525,17.6675Q2.8016,18.2799,2.57831,18.904Q2.35502,19.528,2.16261,20.1623Q1.97021,20.7966,1.80916,21.4395Q1.64811,22.0825,1.5188,22.7326Q1.38949,23.3826,1.29223,24.0383Q1.19498,24.6939,1.13001,25.3535Q1.06505,26.0132,1.03252,26.6752Q1,27.3372,1,28Q1,28.6628,1.03252,29.3248Q1.06505,29.9868,1.13001,30.6465Q1.19498,31.3061,1.29223,31.9617Q1.38949,32.6174,1.5188,33.2674Q1.64811,33.9175,1.80916,34.5605Q1.97021,35.2034,2.16261,35.8377Q2.35502,36.472,2.57831,37.096Q2.8016,37.7201,3.05525,38.3324Q3.3089,38.9448,3.59229,39.544Q3.87568,40.1432,4.18813,40.7277Q4.50057,41.3123,4.84133,41.8808Q5.18208,42.4493,5.55032,43.0004Q5.91856,43.5515,6.3134,44.0839Q6.70823,44.6162,7.12872,45.1286Q7.5492,45.641,7.99432,46.1321Q8.43944,46.6232,8.90812,47.0919Q9.3768,47.5606,9.86791,48.0057Q10.359,48.4508,10.8714,48.8713Q11.3837,49.2918,11.9161,49.6866Q12.4485,50.0814,12.9996,50.4497Q13.5507,50.8179,14.1192,51.1587Q14.6877,51.4994,15.2723,51.8119Q15.8568,52.1243,16.456,52.4077Q17.0552,52.6911,17.6675,52.9447Q18.2799,53.1984,18.904,53.4217Q19.528,53.645,20.1623,53.8374Q20.7966,54.0298,21.4395,54.1908Q22.0825,54.3519,22.7326,54.4812Q23.3826,54.6105,24.0383,54.7078Q24.6939,54.805,25.3535,54.87Q26.0132,54.935,26.6752,54.9675Q27.3372,55,28,55Q28.6628,55,29.3248,54.9675Q29.9868,54.935,30.6465,54.87Q31.3061,54.805,31.9617,54.7078Q32.6174,54.6105,33.2674,54.4812Q33.9175,54.3519,34.5605,54.1908Q35.2034,54.0298,35.8377,53.8374Q36.472,53.645,37.096,53.4217Q37.7201,53.1984,38.3324,52.9447Q38.9448,52.6911,39.544,52.4077Q40.1432,52.1243,40.7277,51.8119Q41.3123,51.4994,41.8808,51.1587Q42.4493,50.8179,43.0004,50.4497Q43.5515,50.0814,44.0839,49.6866Q44.6162,49.2918,45.1286,48.8713Q45.641,48.4508,46.1321,48.0057Q46.6232,47.5606,47.0919,47.0919Q47.5606,46.6232,48.0057,46.1321Q48.4508,45.641,48.8713,45.1286Q49.2918,44.6163,49.6866,44.0839Q50.0814,43.5515,50.4497,43.0004Q50.8179,42.4493,51.1587,41.8808Q51.4994,41.3123,51.8119,40.7277Q52.1243,40.1432,52.4077,39.544Q52.6911,38.9448,52.9447,38.3324Q53.1984,37.7201,53.4217,37.096Q53.645,36.472,53.8374,35.8377Q54.0298,35.2034,54.1908,34.5605Q54.3519,33.9175,54.4812,33.2674Q54.6105,32.6174,54.7078,31.9617Q54.805,31.3061,54.87,30.6465Q54.935,29.9868,54.9675,29.3248Q55,28.6628,55,28Z" fill="#FFFFFF" fill-opacity="0.30000001192092896"/></g><g transform="matrix(-1,0,0,1,80,0)" clip-path="url(#master_svg1_287_2176)"><g><path d="M62,31.68C62,31.79201,62.000226887,31.84928,62.0223236,31.89191C62.0413433,31.9286,62.0713957,31.958660000000002,62.108089,31.97768C62.150718,31.999769999999998,62.207989,32,62.32,32L62.68,32C62.792011,32,62.849282,31.999769999999998,62.891912,31.97768C62.928604,31.958660000000002,62.958657,31.9286,62.977676,31.89191C62.999773,31.84928,63,31.79201,63,31.68L63,24.32C63,24.207989,62.999773,24.150718,62.977676,24.108089C62.958657,24.0713957,62.928604,24.0413433,62.891912,24.0223236C62.849282,24.000226745,62.792011,24,62.68,24L62.32,24C62.207989,24,62.150718,24.000226745,62.108089,24.0223236C62.0713957,24.0413433,62.0413433,24.0713957,62.0223236,24.108089C62.000226745,24.150718,62,24.207989,62,24.32L62,31.68Z" fill="#FFFFFF" fill-opacity="0.699999988079071"/></g><g><path d="M49,24L49,20.028954Q49,19.5452611,48.54757,19.374195Q48.09514,19.203128,47.77511,19.5658197L40.625081,27.66919Q40.595103,27.70317,40.571721,27.741979999999998Q40.548339,27.78079,40.532314,27.823169999999998Q40.51629,27.86555,40.508145,27.91012Q40.5,27.95469,40.5,28Q40.5,28.04531,40.508145,28.08988Q40.51629,28.13445,40.532314,28.176830000000002Q40.548339,28.21921,40.571721,28.258029999999998Q40.595103,28.29683,40.625081,28.33081L47.77511,36.434200000000004Q48.09513,36.7969,48.54757,36.6258Q49,36.4547,49,35.971000000000004L49,32L59,32Q59.0492,32,59.0975,31.9904Q59.1458,31.980800000000002,59.1913,31.9619Q59.2368,31.9431,59.2778,31.9157Q59.3187,31.8884,59.3536,31.8536Q59.388400000000004,31.8187,59.4157,31.7778Q59.4431,31.736800000000002,59.4619,31.6913Q59.4808,31.6458,59.4904,31.5975Q59.5,31.5492,59.5,31.5L59.5,24.5Q59.5,24.45075,59.4904,24.40245Q59.4808,24.35415,59.4619,24.30866Q59.4431,24.26316,59.4157,24.22221Q59.388400000000004,24.181269999999998,59.3536,24.14645Q59.3187,24.111620000000002,59.2778,24.08426Q59.2368,24.0569,59.1913,24.03806Q59.1458,24.01921,59.0975,24.009610000000002Q59.0492,24,59,24L49,24ZM48,20.82239L48,24.5Q48,24.54925,48.00961,24.59755Q48.01921,24.64584,48.03806,24.69134Q48.0569,24.73684,48.08426,24.77778Q48.11162,24.818730000000002,48.14645,24.85355Q48.18127,24.888370000000002,48.22221,24.91573Q48.26316,24.943089999999998,48.30866,24.96194Q48.35415,24.98078,48.40245,24.990389999999998Q48.45075,25,48.5,25L58.5,25L58.5,31L48.5,31Q48.45075,31,48.40245,31.0096Q48.35415,31.019199999999998,48.30866,31.0381Q48.26316,31.0569,48.22221,31.0843Q48.18127,31.1116,48.14645,31.1464Q48.11162,31.1813,48.08426,31.2222Q48.0569,31.263199999999998,48.03806,31.3087Q48.01921,31.3542,48.00961,31.4025Q48,31.4508,48,31.5L48,35.1776L41.666811,28L48,20.82239Z" fill-rule="evenodd" fill="#FFFFFF" fill-opacity="0.699999988079071" style="mix-blend-mode:passthrough"/></g></g></g></svg>