<svg xmlns="http://www.w3.org/2000/svg" xmlns:xlink="http://www.w3.org/1999/xlink" fill="none" version="1.1" width="150" height="150" viewBox="0 0 150 150"><g><g><g><path d="M150,75Q150,76.8411,149.91,78.6801Q149.819,80.519,149.639,82.3513Q149.458,84.1836,149.188,86.0048Q148.918,87.826,148.559,89.6318Q148.2,91.4375,147.752,93.2235Q147.305,95.0095,146.771,96.7713Q146.236,98.5332,145.616,100.267Q144.995,102,144.291,103.701Q143.586,105.402,142.799,107.067Q142.012,108.731,141.144,110.355Q140.276,111.978,139.33,113.558Q138.383,115.137,137.36,116.668Q136.337,118.199,135.241,119.677Q134.144,121.156,132.976,122.579Q131.808,124.003,130.571,125.367Q129.335,126.731,128.033,128.033Q126.731,129.335,125.367,130.571Q124.003,131.808,122.579,132.976Q121.156,134.144,119.677,135.241Q118.199,136.337,116.668,137.36Q115.137,138.383,113.558,139.33Q111.978,140.276,110.355,141.144Q108.731,142.012,107.067,142.799Q105.402,143.586,103.701,144.291Q102,144.995,100.267,145.616Q98.5332,146.236,96.7713,146.771Q95.0095,147.305,93.2235,147.752Q91.4375,148.2,89.6318,148.559Q87.826,148.918,86.0048,149.188Q84.1836,149.458,82.3513,149.639Q80.519,149.819,78.6801,149.91Q76.8411,150,75,150Q73.1589,150,71.3199,149.91Q69.481,149.819,67.6487,149.639Q65.8164,149.458,63.9952,149.188Q62.174,148.918,60.3682,148.559Q58.5625,148.2,56.7765,147.752Q54.9905,147.305,53.2286,146.771Q51.4668,146.236,49.7333,145.616Q47.9997,144.995,46.2987,144.291Q44.5977,143.586,42.9334,142.799Q41.269,142.012,39.6452,141.144Q38.0215,140.276,36.4423,139.33Q34.8631,138.383,33.3322,137.36Q31.8014,136.337,30.3225,135.241Q28.8437,134.144,27.4205,132.976Q25.9973,131.808,24.6331,130.571Q23.2689,129.335,21.967,128.033Q20.6651,126.731,19.4287,125.367Q18.1922,124.003,17.0242,122.579Q15.8562,121.156,14.7594,119.677Q13.6627,118.199,12.6398,116.668Q11.6169,115.137,10.6704,113.558Q9.72381,111.978,8.8559,110.355Q7.98799,108.731,7.2008,107.067Q6.41361,105.402,5.70903,103.701Q5.00446,102,4.38419,100.267Q3.76393,98.5332,3.22947,96.7713Q2.69502,95.0095,2.24766,93.2235Q1.80029,91.4375,1.4411,89.6318Q1.08191,87.826,0.811762,86.0048Q0.541609,84.1836,0.361145,82.3513Q0.180682,80.519,0.0903408,78.6801Q0,76.8411,0,75Q0,73.1589,0.0903408,71.3199Q0.180682,69.481,0.361145,67.6487Q0.541609,65.8164,0.811762,63.9952Q1.08191,62.174,1.4411,60.3682Q1.80029,58.5625,2.24766,56.7765Q2.69502,54.9905,3.22947,53.2286Q3.76393,51.4668,4.38419,49.7333Q5.00446,47.9997,5.70903,46.2987Q6.41361,44.5977,7.2008,42.9334Q7.98799,41.269,8.8559,39.6452Q9.72381,38.0215,10.6704,36.4423Q11.6169,34.8631,12.6398,33.3322Q13.6627,31.8014,14.7594,30.3225Q15.8562,28.8437,17.0242,27.4205Q18.1922,25.9973,19.4287,24.6331Q20.6651,23.2689,21.967,21.967Q23.2689,20.6651,24.6331,19.4287Q25.9973,18.1922,27.4205,17.0242Q28.8437,15.8562,30.3225,14.7594Q31.8014,13.6627,33.3322,12.6398Q34.8631,11.6169,36.4423,10.6704Q38.0215,9.72381,39.6452,8.8559Q41.269,7.98799,42.9334,7.2008Q44.5977,6.41361,46.2987,5.70903Q47.9997,5.00446,49.7333,4.38419Q51.4668,3.76393,53.2286,3.22947Q54.9905,2.69502,56.7765,2.24766Q58.5625,1.80029,60.3682,1.4411Q62.174,1.08191,63.9952,0.811762Q65.8164,0.541609,67.6487,0.361145Q69.481,0.180682,71.3199,0.0903408Q73.1589,0,75,0Q76.8411,0,78.6801,0.0903408Q80.519,0.180682,82.3513,0.361145Q84.1836,0.541609,86.0048,0.811762Q87.826,1.08191,89.6318,1.4411Q91.4375,1.80029,93.2235,2.24766Q95.0095,2.69502,96.7713,3.22947Q98.5332,3.76393,100.267,4.38419Q102,5.00446,103.701,5.70903Q105.402,6.41361,107.067,7.2008Q108.731,7.98799,110.355,8.8559Q111.978,9.72381,113.558,10.6704Q115.137,11.6169,116.668,12.6398Q118.199,13.6627,119.677,14.7594Q121.156,15.8562,122.579,17.0242Q124.003,18.1922,125.367,19.4287Q126.731,20.6651,128.033,21.967Q129.335,23.2689,130.571,24.6331Q131.808,25.9973,132.976,27.4205Q134.144,28.8437,135.241,30.3225Q136.337,31.8014,137.36,33.3322Q138.383,34.8631,139.33,36.4423Q140.276,38.0215,141.144,39.6452Q142.012,41.269,142.799,42.9334Q143.586,44.5977,144.291,46.2987Q144.995,47.9997,145.616,49.7333Q146.236,51.4668,146.771,53.2286Q147.305,54.9905,147.752,56.7765Q148.2,58.5625,148.559,60.3682Q148.918,62.174,149.188,63.9952Q149.458,65.8164,149.639,67.6487Q149.819,69.481,149.91,71.3199Q150,73.1589,150,75ZM118,75Q118,73.9444,117.948,72.8901Q117.896,71.8358,117.793,70.7853Q117.689,69.7348,117.535,68.6906Q117.38,67.6464,117.174,66.6111Q116.968,65.5758,116.711,64.5518Q116.455,63.5279,116.148,62.5178Q115.842,61.5076,115.486,60.5137Q115.131,59.5198,114.727,58.5446Q114.323,57.5694,113.872,56.6151Q113.42,55.6609,112.923,54.7299Q112.425,53.799,111.882,52.8936Q111.34,51.9882,110.753,51.1105Q110.167,50.2328,109.538,49.3849Q108.909,48.5371,108.239,47.7211Q107.57,46.9051,106.861,46.123Q106.152,45.3408,105.406,44.5944Q104.659,43.848,103.877,43.1391Q103.095,42.4302,102.279,41.7605Q101.463,41.0909,100.615,40.4621Q99.7672,39.8333,98.8895,39.2468Q98.0118,38.6603,97.1064,38.1177Q96.201,37.575,95.2701,37.0774Q94.3391,36.5798,93.3849,36.1285Q92.4306,35.6771,91.4554,35.2732Q90.4801,34.8692,89.4863,34.5136Q88.4924,34.158,87.4822,33.8516Q86.4721,33.5451,85.4481,33.2887Q84.4242,33.0322,83.3889,32.8262Q82.3536,32.6203,81.3094,32.4654Q80.2652,32.3105,79.2147,32.2071Q78.1642,32.1036,77.1099,32.0518Q76.0556,32,75,32Q73.9444,32,72.8901,32.0518Q71.8358,32.1036,70.7853,32.2071Q69.7348,32.3105,68.6906,32.4654Q67.6464,32.6203,66.6111,32.8262Q65.5758,33.0322,64.5518,33.2887Q63.5279,33.5451,62.5178,33.8516Q61.5076,34.158,60.5137,34.5136Q59.5198,34.8692,58.5446,35.2732Q57.5694,35.6771,56.6151,36.1285Q55.6609,36.5798,54.7299,37.0774Q53.799,37.575,52.8936,38.1177Q51.9882,38.6603,51.1105,39.2468Q50.2328,39.8333,49.3849,40.4621Q48.5371,41.0909,47.7211,41.7605Q46.9051,42.4302,46.123,43.1391Q45.3408,43.848,44.5944,44.5944Q43.848,45.3408,43.1391,46.123Q42.4302,46.9051,41.7605,47.7211Q41.0909,48.5371,40.4621,49.3849Q39.8333,50.2328,39.2468,51.1105Q38.6603,51.9882,38.1177,52.8936Q37.575,53.799,37.0774,54.7299Q36.5798,55.6609,36.1285,56.6151Q35.6771,57.5694,35.2732,58.5446Q34.8692,59.5198,34.5136,60.5137Q34.158,61.5076,33.8516,62.5178Q33.5451,63.5279,33.2887,64.5518Q33.0322,65.5758,32.8262,66.6111Q32.6203,67.6464,32.4654,68.6906Q32.3105,69.7348,32.2071,70.7853Q32.1036,71.8358,32.0518,72.8901Q32,73.9444,32,75Q32,76.0556,32.0518,77.1099Q32.1036,78.1642,32.2071,79.2147Q32.3105,80.2652,32.4654,81.3094Q32.6203,82.3536,32.8262,83.3889Q33.0322,84.4242,33.2887,85.4481Q33.5451,86.4721,33.8516,87.4822Q34.158,88.4924,34.5136,89.4863Q34.8692,90.4801,35.2732,91.4554Q35.6771,92.4306,36.1285,93.3849Q36.5798,94.3391,37.0774,95.2701Q37.575,96.201,38.1177,97.1064Q38.6603,98.0118,39.2468,98.8895Q39.8333,99.7672,40.4621,100.615Q41.0909,101.463,41.7605,102.279Q42.4302,103.095,43.1391,103.877Q43.848,104.659,44.5944,105.406Q45.3408,106.152,46.123,106.861Q46.9051,107.57,47.7211,108.239Q48.5371,108.909,49.3849,109.538Q50.2328,110.167,51.1105,110.753Q51.9882,111.34,52.8936,111.882Q53.799,112.425,54.7299,112.923Q55.6609,113.42,56.6151,113.872Q57.5694,114.323,58.5446,114.727Q59.5198,115.131,60.5137,115.486Q61.5076,115.842,62.5178,116.148Q63.5279,116.455,64.5518,116.711Q65.5758,116.968,66.6111,117.174Q67.6464,117.38,68.6906,117.535Q69.7348,117.689,70.7853,117.793Q71.8358,117.896,72.8901,117.948Q73.9444,118,75,118Q76.0556,118,77.1099,117.948Q78.1642,117.896,79.2147,117.793Q80.2652,117.689,81.3094,117.535Q82.3536,117.38,83.3889,117.174Q84.4242,116.968,85.4481,116.711Q86.4721,116.455,87.4822,116.148Q88.4924,115.842,89.4863,115.486Q90.4801,115.131,91.4554,114.727Q92.4306,114.323,93.3849,113.872Q94.3391,113.42,95.2701,112.923Q96.201,112.425,97.1064,111.882Q98.0118,111.34,98.8895,110.753Q99.7672,110.167,100.615,109.538Q101.463,108.909,102.279,108.239Q103.095,107.57,103.877,106.861Q104.659,106.152,105.406,105.406Q106.152,104.659,106.861,103.877Q107.57,103.095,108.239,102.279Q108.909,101.463,109.538,100.615Q110.167,99.7672,110.753,98.8895Q111.34,98.0118,111.882,97.1064Q112.425,96.201,112.923,95.2701Q113.42,94.3391,113.872,93.3849Q114.323,92.4306,114.727,91.4554Q115.131,90.4801,115.486,89.4863Q115.842,88.4924,116.148,87.4822Q116.455,86.4721,116.711,85.4481Q116.968,84.4242,117.174,83.3889Q117.38,82.3536,117.535,81.3094Q117.689,80.2652,117.793,79.2147Q117.896,78.1642,117.948,77.1099Q118,76.0556,118,75Z" fill="#222222" fill-opacity="0.699999988079071"/></g><g><g><path d="M12,74.5L20,74.5Q20.049239999999998,74.5,20.097540000000002,74.509607Q20.14584,74.519215,20.19134,74.53806Q20.23684,74.556906,20.27778,74.584265Q20.318730000000002,74.611625,20.35355,74.646447Q20.388370000000002,74.681269,20.41573,74.722215Q20.443089999999998,74.763161,20.46194,74.808658Q20.48078,74.854155,20.490389999999998,74.9024549Q20.5,74.9507543,20.5,75Q20.5,75.0492457,20.490389999999998,75.0975451Q20.48078,75.145845,20.46194,75.191342Q20.443089999999998,75.236839,20.41573,75.277785Q20.388370000000002,75.318731,20.35355,75.353553Q20.318730000000002,75.388375,20.27778,75.415735Q20.23684,75.443094,20.19134,75.46194Q20.14584,75.480785,20.097540000000002,75.490393Q20.049239999999998,75.5,20,75.5L12,75.5Q11.9507543,75.5,11.9024549,75.490393Q11.854155,75.480785,11.808658,75.46194Q11.763161,75.443094,11.722215,75.415735Q11.681269,75.388375,11.646447,75.353553Q11.611625,75.318731,11.584265,75.277785Q11.556906,75.236839,11.53806,75.191342Q11.519214999999999,75.145845,11.509607,75.0975451Q11.5,75.0492457,11.5,75Q11.5,74.9507543,11.509607,74.9024549Q11.519214999999999,74.854155,11.53806,74.808658Q11.556906,74.763161,11.584265,74.722215Q11.611625,74.681269,11.646447,74.646447Q11.681269,74.611625,11.722215,74.584265Q11.763161,74.556906,11.808658,74.53806Q11.854155,74.519215,11.9024549,74.509607Q11.9507543,74.5,12,74.5Z" fill-rule="evenodd" fill="#FFFFFF" fill-opacity="0.30000001192092896"/></g><g><path d="M130,74.5L138,74.5Q138.04924,74.5,138.09754,74.509607Q138.14584,74.519215,138.19134,74.53806Q138.23684,74.556906,138.27778,74.584265Q138.31873,74.611625,138.35355,74.646447Q138.38837,74.681269,138.41573,74.722215Q138.44309,74.763161,138.46194,74.808658Q138.48078,74.854155,138.49039,74.9024549Q138.5,74.9507543,138.5,75Q138.5,75.0492457,138.49039,75.0975451Q138.48078,75.145845,138.46194,75.191342Q138.44309,75.236839,138.41573,75.277785Q138.38837,75.318731,138.35355,75.353553Q138.31873,75.388375,138.27778,75.415735Q138.23684,75.443094,138.19134,75.46194Q138.14584,75.480785,138.09754,75.490393Q138.04924,75.5,138,75.5L130,75.5Q129.9507543,75.5,129.9024549,75.490393Q129.854155,75.480785,129.808658,75.46194Q129.763161,75.443094,129.722215,75.415735Q129.681269,75.388375,129.646447,75.353553Q129.611625,75.318731,129.584265,75.277785Q129.556906,75.236839,129.53806,75.191342Q129.519215,75.145845,129.509607,75.0975451Q129.5,75.0492457,129.5,75Q129.5,74.9507543,129.509607,74.9024549Q129.519215,74.854155,129.53806,74.808658Q129.556906,74.763161,129.584265,74.722215Q129.611625,74.681269,129.646447,74.646447Q129.681269,74.611625,129.722215,74.584265Q129.763161,74.556906,129.808658,74.53806Q129.854155,74.519215,129.9024549,74.509607Q129.9507543,74.5,130,74.5Z" fill-rule="evenodd" fill="#FFFFFF" fill-opacity="0.30000001192092896"/></g></g><g transform="matrix(0.7071067690849304,0.7071067690849304,-0.7071067690849304,0.7071067690849304,30.452374701340887,-12.61375011715063)"><g><path d="M30.45233154296875,29.952392578125L38.45233154296875,29.952392578125Q38.50157154296875,29.952392578125,38.54987154296875,29.961999578125Q38.59817154296875,29.971607578125,38.64367154296875,29.990452578125Q38.68917154296875,30.009298578125,38.73011154296875,30.036657578125Q38.77106154296875,30.064017578125,38.80588154296875,30.098839578125Q38.84070154296875,30.133661578125,38.868061542968746,30.174607578125Q38.89542154296875,30.215553578125,38.91427154296875,30.261050578125Q38.933111542968746,30.306547578125,38.94272154296875,30.354847478125Q38.95233154296875,30.403146878125,38.95233154296875,30.452392578125Q38.95233154296875,30.501638278125,38.94272154296875,30.549937678125Q38.933111542968746,30.598237578125,38.91427154296875,30.643734578125Q38.89542154296875,30.689231578125,38.868061542968746,30.730177578125Q38.84070154296875,30.771123578125,38.80588154296875,30.805945578125Q38.77106154296875,30.840767578125,38.73011154296875,30.868127578125Q38.68917154296875,30.895486578125,38.64367154296875,30.914332578125Q38.59817154296875,30.933177578125,38.54987154296875,30.942785578125Q38.50157154296875,30.952392578125,38.45233154296875,30.952392578125L30.45233154296875,30.952392578125Q30.40308584296875,30.952392578125,30.35478644296875,30.942785578125Q30.30648654296875,30.933177578125,30.26098954296875,30.914332578125Q30.21549254296875,30.895486578125,30.17454654296875,30.868127578125Q30.13360054296875,30.840767578125,30.09877854296875,30.805945578125Q30.06395654296875,30.771123578125,30.03659654296875,30.730177578125Q30.00923754296875,30.689231578125,29.99039154296875,30.643734578125Q29.97154654296875,30.598237578125,29.96193854296875,30.549937678125Q29.95233154296875,30.501638278125,29.95233154296875,30.452392578125Q29.95233154296875,30.403146878125,29.96193854296875,30.354847478125Q29.97154654296875,30.306547578125,29.99039154296875,30.261050578125Q30.00923754296875,30.215553578125,30.03659654296875,30.174607578125Q30.06395654296875,30.133661578125,30.09877854296875,30.098839578125Q30.13360054296875,30.064017578125,30.17454654296875,30.036657578125Q30.21549254296875,30.009298578125,30.26098954296875,29.990452578125Q30.30648654296875,29.971607578125,30.35478644296875,29.961999578125Q30.40308584296875,29.952392578125,30.45233154296875,29.952392578125Z" fill-rule="evenodd" fill="#FFFFFF" fill-opacity="0.30000001192092896"/></g><g><path d="M148.45233154296875,29.952392578125L156.45233154296875,29.952392578125Q156.50157154296875,29.952392578125,156.54987154296876,29.961999578125Q156.59817154296874,29.971607578125,156.64367154296875,29.990452578125Q156.68917154296875,30.009298578125,156.73011154296876,30.036657578125Q156.77106154296874,30.064017578125,156.80588154296876,30.098839578125Q156.84070154296876,30.133661578125,156.86806154296875,30.174607578125Q156.89542154296876,30.215553578125,156.91427154296875,30.261050578125Q156.93311154296876,30.306547578125,156.94272154296874,30.354847478125Q156.95233154296875,30.403146878125,156.95233154296875,30.452392578125Q156.95233154296875,30.501638278125,156.94272154296874,30.549937678125Q156.93311154296876,30.598237578125,156.91427154296875,30.643734578125Q156.89542154296876,30.689231578125,156.86806154296875,30.730177578125Q156.84070154296876,30.771123578125,156.80588154296876,30.805945578125Q156.77106154296874,30.840767578125,156.73011154296876,30.868127578125Q156.68917154296875,30.895486578125,156.64367154296875,30.914332578125Q156.59817154296874,30.933177578125,156.54987154296876,30.942785578125Q156.50157154296875,30.952392578125,156.45233154296875,30.952392578125L148.45233154296875,30.952392578125Q148.40308584296875,30.952392578125,148.35478644296876,30.942785578125Q148.30648654296874,30.933177578125,148.26098954296876,30.914332578125Q148.21549254296875,30.895486578125,148.17454654296876,30.868127578125Q148.13360054296874,30.840767578125,148.09877854296874,30.805945578125Q148.06395654296875,30.771123578125,148.03659654296874,30.730177578125Q148.00923754296875,30.689231578125,147.99039154296875,30.643734578125Q147.97154654296875,30.598237578125,147.96193854296874,30.549937678125Q147.95233154296875,30.501638278125,147.95233154296875,30.452392578125Q147.95233154296875,30.403146878125,147.96193854296874,30.354847478125Q147.97154654296875,30.306547578125,147.99039154296875,30.261050578125Q148.00923754296875,30.215553578125,148.03659654296874,30.174607578125Q148.06395654296875,30.133661578125,148.09877854296874,30.098839578125Q148.13360054296874,30.064017578125,148.17454654296876,30.036657578125Q148.21549254296875,30.009298578125,148.26098954296876,29.990452578125Q148.30648654296874,29.971607578125,148.35478644296876,29.961999578125Q148.40308584296875,29.952392578125,148.45233154296875,29.952392578125Z" fill-rule="evenodd" fill="#FFFFFF" fill-opacity="0.30000001192092896"/></g></g><g transform="matrix(0,0.9999999403953552,-0.9999999403953552,0,86.99999928474426,-62.99999552965164)"><g><path d="M75,11.5L83,11.5Q83.04924,11.5,83.09754,11.509607Q83.14583999999999,11.519214999999999,83.19134,11.53806Q83.23684,11.556906,83.27778,11.584265Q83.31873,11.611625,83.35355,11.646447Q83.38837,11.681269,83.41573,11.722215Q83.44309,11.763161,83.46194,11.808658Q83.48078,11.854155,83.49039,11.9024549Q83.5,11.9507543,83.5,12Q83.5,12.0492457,83.49039,12.0975451Q83.48078,12.145845,83.46194,12.191342Q83.44309,12.236839,83.41573,12.277785Q83.38837,12.318731,83.35355,12.353553Q83.31873,12.388375,83.27778,12.415735Q83.23684,12.443094,83.19134,12.46194Q83.14583999999999,12.480785000000001,83.09754,12.490393Q83.04924,12.5,83,12.5L75,12.5Q74.9507543,12.5,74.9024549,12.490393Q74.854155,12.480785000000001,74.808658,12.46194Q74.763161,12.443094,74.722215,12.415735Q74.681269,12.388375,74.646447,12.353553Q74.611625,12.318731,74.584265,12.277785Q74.556906,12.236839,74.53806,12.191342Q74.519215,12.145845,74.509607,12.0975451Q74.5,12.0492457,74.5,12Q74.5,11.9507543,74.509607,11.9024549Q74.519215,11.854155,74.53806,11.808658Q74.556906,11.763161,74.584265,11.722215Q74.611625,11.681269,74.646447,11.646447Q74.681269,11.611625,74.722215,11.584265Q74.763161,11.556906,74.808658,11.53806Q74.854155,11.519214999999999,74.9024549,11.509607Q74.9507543,11.5,75,11.5Z" fill-rule="evenodd" fill="#FFFFFF" fill-opacity="0.30000001192092896"/></g><g><path d="M193,11.5L201,11.5Q201.04924,11.5,201.09754,11.509607Q201.14584,11.519214999999999,201.19134,11.53806Q201.23684,11.556906,201.27778,11.584265Q201.31873,11.611625,201.35355,11.646447Q201.38837,11.681269,201.41573,11.722215Q201.44309,11.763161,201.46194,11.808658Q201.48078,11.854155,201.49039,11.9024549Q201.5,11.9507543,201.5,12Q201.5,12.0492457,201.49039,12.0975451Q201.48078,12.145845,201.46194,12.191342Q201.44309,12.236839,201.41573,12.277785Q201.38837,12.318731,201.35355,12.353553Q201.31873,12.388375,201.27778,12.415735Q201.23684,12.443094,201.19134,12.46194Q201.14584,12.480785000000001,201.09754,12.490393Q201.04924,12.5,201,12.5L193,12.5Q192.9507543,12.5,192.9024549,12.490393Q192.854155,12.480785000000001,192.808658,12.46194Q192.763161,12.443094,192.722215,12.415735Q192.681269,12.388375,192.646447,12.353553Q192.611625,12.318731,192.584265,12.277785Q192.556906,12.236839,192.53806,12.191342Q192.519215,12.145845,192.509607,12.0975451Q192.5,12.0492457,192.5,12Q192.5,11.9507543,192.509607,11.9024549Q192.519215,11.854155,192.53806,11.808658Q192.556906,11.763161,192.584265,11.722215Q192.611625,11.681269,192.646447,11.646447Q192.681269,11.611625,192.722215,11.584265Q192.763161,11.556906,192.808658,11.53806Q192.854155,11.519214999999999,192.9024549,11.509607Q192.9507543,11.5,193,11.5Z" fill-rule="evenodd" fill="#FFFFFF" fill-opacity="0.30000001192092896"/></g></g><g transform="matrix(-0.7071067094802856,0.7071067094802856,-0.7071067094802856,-0.7071067094802856,225.61361384391785,-32.547431620478164)"><g><path d="M119.547607421875,29.952392578125L127.547607421875,29.952392578125Q127.596847421875,29.952392578125,127.645147421875,29.961999578125Q127.69344742187499,29.971607578125,127.738947421875,29.990452578125Q127.784447421875,30.009298578125,127.825387421875,30.036657578125Q127.866337421875,30.064017578125,127.901157421875,30.098839578125Q127.935977421875,30.133661578125,127.963337421875,30.174607578125Q127.990697421875,30.215553578125,128.009547421875,30.261050578125Q128.028387421875,30.306547578125,128.037997421875,30.354847478125Q128.047607421875,30.403146878125,128.047607421875,30.452392578125Q128.047607421875,30.501638278125,128.037997421875,30.549937678125Q128.028387421875,30.598237578125,128.009547421875,30.643734578125Q127.990697421875,30.689231578125,127.963337421875,30.730177578125Q127.935977421875,30.771123578125,127.901157421875,30.805945578125Q127.866337421875,30.840767578125,127.825387421875,30.868127578125Q127.784447421875,30.895486578125,127.738947421875,30.914332578125Q127.69344742187499,30.933177578125,127.645147421875,30.942785578125Q127.596847421875,30.952392578125,127.547607421875,30.952392578125L119.547607421875,30.952392578125Q119.498361721875,30.952392578125,119.450062321875,30.942785578125Q119.401762421875,30.933177578125,119.356265421875,30.914332578125Q119.310768421875,30.895486578125,119.269822421875,30.868127578125Q119.228876421875,30.840767578125,119.194054421875,30.805945578125Q119.159232421875,30.771123578125,119.131872421875,30.730177578125Q119.104513421875,30.689231578125,119.085667421875,30.643734578125Q119.066822421875,30.598237578125,119.057214421875,30.549937678125Q119.047607421875,30.501638278125,119.047607421875,30.452392578125Q119.047607421875,30.403146878125,119.057214421875,30.354847478125Q119.066822421875,30.306547578125,119.085667421875,30.261050578125Q119.104513421875,30.215553578125,119.131872421875,30.174607578125Q119.159232421875,30.133661578125,119.194054421875,30.098839578125Q119.228876421875,30.064017578125,119.269822421875,30.036657578125Q119.310768421875,30.009298578125,119.356265421875,29.990452578125Q119.401762421875,29.971607578125,119.450062321875,29.961999578125Q119.498361721875,29.952392578125,119.547607421875,29.952392578125Z" fill-rule="evenodd" fill="#FFFFFF" fill-opacity="0.30000001192092896"/></g><g><path d="M237.547607421875,29.952392578125L245.547607421875,29.952392578125Q245.596847421875,29.952392578125,245.645147421875,29.961999578125Q245.693447421875,29.971607578125,245.738947421875,29.990452578125Q245.784447421875,30.009298578125,245.825387421875,30.036657578125Q245.866337421875,30.064017578125,245.901157421875,30.098839578125Q245.935977421875,30.133661578125,245.963337421875,30.174607578125Q245.990697421875,30.215553578125,246.009547421875,30.261050578125Q246.028387421875,30.306547578125,246.037997421875,30.354847478125Q246.047607421875,30.403146878125,246.047607421875,30.452392578125Q246.047607421875,30.501638278125,246.037997421875,30.549937678125Q246.028387421875,30.598237578125,246.009547421875,30.643734578125Q245.990697421875,30.689231578125,245.963337421875,30.730177578125Q245.935977421875,30.771123578125,245.901157421875,30.805945578125Q245.866337421875,30.840767578125,245.825387421875,30.868127578125Q245.784447421875,30.895486578125,245.738947421875,30.914332578125Q245.693447421875,30.933177578125,245.645147421875,30.942785578125Q245.596847421875,30.952392578125,245.547607421875,30.952392578125L237.547607421875,30.952392578125Q237.498361721875,30.952392578125,237.450062321875,30.942785578125Q237.401762421875,30.933177578125,237.356265421875,30.914332578125Q237.310768421875,30.895486578125,237.269822421875,30.868127578125Q237.228876421875,30.840767578125,237.194054421875,30.805945578125Q237.159232421875,30.771123578125,237.131872421875,30.730177578125Q237.104513421875,30.689231578125,237.085667421875,30.643734578125Q237.066822421875,30.598237578125,237.057214421875,30.549937678125Q237.047607421875,30.501638278125,237.047607421875,30.452392578125Q237.047607421875,30.403146878125,237.057214421875,30.354847478125Q237.066822421875,30.306547578125,237.085667421875,30.261050578125Q237.104513421875,30.215553578125,237.131872421875,30.174607578125Q237.159232421875,30.133661578125,237.194054421875,30.098839578125Q237.228876421875,30.064017578125,237.269822421875,30.036657578125Q237.310768421875,30.009298578125,237.356265421875,29.990452578125Q237.401762421875,29.971607578125,237.450062321875,29.961999578125Q237.498361721875,29.952392578125,237.547607421875,29.952392578125Z" fill-rule="evenodd" fill="#FFFFFF" fill-opacity="0.30000001192092896"/></g></g><g transform="matrix(-0.8660253286361694,0.4999999403953552,-0.4999999403953552,-0.8660253286361694,263.4462374794457,16.505253546369204)"><g><path d="M129.5118408203125,43.0477294921875L133.5118408203125,43.0477294921875Q133.5610908203125,43.0477294921875,133.6093908203125,43.0573364921875Q133.6576808203125,43.0669444921875,133.7031808203125,43.0857894921875Q133.7486808203125,43.1046354921875,133.7896208203125,43.1319944921875Q133.8305708203125,43.1593544921875,133.8653908203125,43.1941764921875Q133.9002108203125,43.2289984921875,133.9275708203125,43.2699444921875Q133.9549308203125,43.3108904921875,133.9737808203125,43.3563874921875Q133.9926208203125,43.4018844921875,134.0022308203125,43.4501843921875Q134.0118408203125,43.4984837921875,134.0118408203125,43.5477294921875Q134.0118408203125,43.5969751921875,134.0022308203125,43.6452745921875Q133.9926208203125,43.6935744921875,133.9737808203125,43.7390714921875Q133.9549308203125,43.7845684921875,133.9275708203125,43.8255144921875Q133.9002108203125,43.8664604921875,133.8653908203125,43.9012824921875Q133.8305708203125,43.9361044921875,133.7896208203125,43.9634644921875Q133.7486808203125,43.9908234921875,133.7031808203125,44.0096694921875Q133.6576808203125,44.0285144921875,133.6093908203125,44.0381224921875Q133.5610908203125,44.0477294921875,133.5118408203125,44.0477294921875L129.5118408203125,44.0477294921875Q129.4625951203125,44.0477294921875,129.4142957203125,44.0381224921875Q129.3659958203125,44.0285144921875,129.3204988203125,44.0096694921875Q129.2750018203125,43.9908234921875,129.2340558203125,43.9634644921875Q129.1931098203125,43.9361044921875,129.1582878203125,43.9012824921875Q129.1234658203125,43.8664604921875,129.0961058203125,43.8255144921875Q129.0687468203125,43.7845684921875,129.0499008203125,43.7390714921875Q129.0310558203125,43.6935744921875,129.0214478203125,43.6452745921875Q129.0118408203125,43.5969751921875,129.0118408203125,43.5477294921875Q129.0118408203125,43.4984837921875,129.0214478203125,43.4501843921875Q129.0310558203125,43.4018844921875,129.0499008203125,43.3563874921875Q129.0687468203125,43.3108904921875,129.0961058203125,43.2699444921875Q129.1234658203125,43.2289984921875,129.1582878203125,43.1941764921875Q129.1931098203125,43.1593544921875,129.2340558203125,43.1319944921875Q129.2750018203125,43.1046354921875,129.3204988203125,43.0857894921875Q129.3659958203125,43.0669444921875,129.4142957203125,43.0573364921875Q129.4625951203125,43.0477294921875,129.5118408203125,43.0477294921875Z" fill-rule="evenodd" fill="#333333" fill-opacity="1"/></g><g><path d="M247.5118408203125,43.0477294921875L251.5118408203125,43.0477294921875Q251.5610908203125,43.0477294921875,251.6093908203125,43.0573364921875Q251.6576808203125,43.0669444921875,251.7031808203125,43.0857894921875Q251.7486808203125,43.1046354921875,251.7896208203125,43.1319944921875Q251.8305708203125,43.1593544921875,251.8653908203125,43.1941764921875Q251.9002108203125,43.2289984921875,251.9275708203125,43.2699444921875Q251.9549308203125,43.3108904921875,251.9737808203125,43.3563874921875Q251.9926208203125,43.4018844921875,252.0022308203125,43.4501843921875Q252.0118408203125,43.4984837921875,252.0118408203125,43.5477294921875Q252.0118408203125,43.5969751921875,252.0022308203125,43.6452745921875Q251.9926208203125,43.6935744921875,251.9737808203125,43.7390714921875Q251.9549308203125,43.7845684921875,251.9275708203125,43.8255144921875Q251.9002108203125,43.8664604921875,251.8653908203125,43.9012824921875Q251.8305708203125,43.9361044921875,251.7896208203125,43.9634644921875Q251.7486808203125,43.9908234921875,251.7031808203125,44.0096694921875Q251.6576808203125,44.0285144921875,251.6093908203125,44.0381224921875Q251.5610908203125,44.0477294921875,251.5118408203125,44.0477294921875L247.5118408203125,44.0477294921875Q247.4625951203125,44.0477294921875,247.4142957203125,44.0381224921875Q247.3659958203125,44.0285144921875,247.3204988203125,44.0096694921875Q247.2750018203125,43.9908234921875,247.2340558203125,43.9634644921875Q247.1931098203125,43.9361044921875,247.1582878203125,43.9012824921875Q247.1234658203125,43.8664604921875,247.0961058203125,43.8255144921875Q247.0687468203125,43.7845684921875,247.0499008203125,43.7390714921875Q247.0310558203125,43.6935744921875,247.0214478203125,43.6452745921875Q247.0118408203125,43.5969751921875,247.0118408203125,43.5477294921875Q247.0118408203125,43.4984837921875,247.0214478203125,43.4501843921875Q247.0310558203125,43.4018844921875,247.0499008203125,43.3563874921875Q247.0687468203125,43.3108904921875,247.0961058203125,43.2699444921875Q247.1234658203125,43.2289984921875,247.1582878203125,43.1941764921875Q247.1931098203125,43.1593544921875,247.2340558203125,43.1319944921875Q247.2750018203125,43.1046354921875,247.3204988203125,43.0857894921875Q247.3659958203125,43.0669444921875,247.4142957203125,43.0573364921875Q247.4625951203125,43.0477294921875,247.5118408203125,43.0477294921875Z" fill-rule="evenodd" fill="#333333" fill-opacity="1"/></g></g><g transform="matrix(0.8660253286361694,0.4999999403953552,0.4999999403953552,-0.8660253286361694,-18.500163075485034,69.04356320244551)"><g><path d="M24.257080078125,43L28.257080078125,43Q28.306330078125,43,28.354630078125,43.009607Q28.402920078125,43.019215,28.448420078125,43.03806Q28.493920078125,43.056906,28.534860078125,43.084265Q28.575810078125002,43.111625,28.610630078125,43.146447Q28.645450078125002,43.181269,28.672810078125,43.222215Q28.700170078124998,43.263161,28.719020078125,43.308658Q28.737860078125,43.354155,28.747470078124998,43.4024549Q28.757080078125,43.4507543,28.757080078125,43.5Q28.757080078125,43.5492457,28.747470078124998,43.5975451Q28.737860078125,43.645845,28.719020078125,43.691342Q28.700170078124998,43.736839,28.672810078125,43.777785Q28.645450078125002,43.818731,28.610630078125,43.853553Q28.575810078125002,43.888375,28.534860078125,43.915735Q28.493920078125,43.943094,28.448420078125,43.96194Q28.402920078125,43.980785,28.354630078125,43.990393Q28.306330078125,44,28.257080078125,44L24.257080078125,44Q24.207834378125,44,24.159534978125,43.990393Q24.111235078125,43.980785,24.065738078125,43.96194Q24.020241078125,43.943094,23.979295078125,43.915735Q23.938349078125,43.888375,23.903527078125,43.853553Q23.868705078125,43.818731,23.841345078125,43.777785Q23.813986078125,43.736839,23.795140078125,43.691342Q23.776295078125,43.645845,23.766687078125,43.5975451Q23.757080078125,43.5492457,23.757080078125,43.5Q23.757080078125,43.4507543,23.766687078125,43.4024549Q23.776295078125,43.354155,23.795140078125,43.308658Q23.813986078125,43.263161,23.841345078125,43.222215Q23.868705078125,43.181269,23.903527078125,43.146447Q23.938349078125,43.111625,23.979295078125,43.084265Q24.020241078125,43.056906,24.065738078125,43.03806Q24.111235078125,43.019215,24.159534978125,43.009607Q24.207834378125,43,24.257080078125,43Z" fill-rule="evenodd" fill="#333333" fill-opacity="1"/></g><g><path d="M142.257080078125,43L146.257080078125,43Q146.306330078125,43,146.354630078125,43.009607Q146.402920078125,43.019215,146.448420078125,43.03806Q146.493920078125,43.056906,146.534860078125,43.084265Q146.575810078125,43.111625,146.610630078125,43.146447Q146.645450078125,43.181269,146.672810078125,43.222215Q146.700170078125,43.263161,146.719020078125,43.308658Q146.737860078125,43.354155,146.747470078125,43.4024549Q146.757080078125,43.4507543,146.757080078125,43.5Q146.757080078125,43.5492457,146.747470078125,43.5975451Q146.737860078125,43.645845,146.719020078125,43.691342Q146.700170078125,43.736839,146.672810078125,43.777785Q146.645450078125,43.818731,146.610630078125,43.853553Q146.575810078125,43.888375,146.534860078125,43.915735Q146.493920078125,43.943094,146.448420078125,43.96194Q146.402920078125,43.980785,146.354630078125,43.990393Q146.306330078125,44,146.257080078125,44L142.257080078125,44Q142.207834378125,44,142.159534978125,43.990393Q142.111235078125,43.980785,142.065738078125,43.96194Q142.020241078125,43.943094,141.979295078125,43.915735Q141.938349078125,43.888375,141.903527078125,43.853553Q141.868705078125,43.818731,141.841345078125,43.777785Q141.813986078125,43.736839,141.795140078125,43.691342Q141.776295078125,43.645845,141.766687078125,43.5975451Q141.757080078125,43.5492457,141.757080078125,43.5Q141.757080078125,43.4507543,141.766687078125,43.4024549Q141.776295078125,43.354155,141.795140078125,43.308658Q141.813986078125,43.263161,141.841345078125,43.222215Q141.868705078125,43.181269,141.903527078125,43.146447Q141.938349078125,43.111625,141.979295078125,43.084265Q142.020241078125,43.056906,142.065738078125,43.03806Q142.111235078125,43.019215,142.159534978125,43.009607Q142.207834378125,43,142.257080078125,43Z" fill-rule="evenodd" fill="#333333" fill-opacity="1"/></g></g><g transform="matrix(-0.5000002384185791,0.8660252094268799,-0.8660252094268799,-0.5000002384185791,179.09478988744377,-61.05553826484538)"><g><path d="M107.172607421875,20.67242431640625L111.172607421875,20.67242431640625Q111.221857421875,20.67242431640625,111.270157421875,20.68203131640625Q111.31844742187499,20.69163931640625,111.363947421875,20.71048431640625Q111.409447421875,20.72933031640625,111.450387421875,20.75668931640625Q111.491337421875,20.78404931640625,111.526157421875,20.81887131640625Q111.560977421875,20.85369331640625,111.588337421875,20.89463931640625Q111.615697421875,20.93558531640625,111.634547421875,20.98108231640625Q111.653387421875,21.02657931640625,111.662997421875,21.07487921640625Q111.672607421875,21.12317861640625,111.672607421875,21.17242431640625Q111.672607421875,21.22167001640625,111.662997421875,21.26996941640625Q111.653387421875,21.31826931640625,111.634547421875,21.36376631640625Q111.615697421875,21.40926331640625,111.588337421875,21.45020931640625Q111.560977421875,21.49115531640625,111.526157421875,21.52597731640625Q111.491337421875,21.56079931640625,111.450387421875,21.58815931640625Q111.409447421875,21.61551831640625,111.363947421875,21.63436431640625Q111.31844742187499,21.65320931640625,111.270157421875,21.66281731640625Q111.221857421875,21.67242431640625,111.172607421875,21.67242431640625L107.172607421875,21.67242431640625Q107.123361721875,21.67242431640625,107.075062321875,21.66281731640625Q107.026762421875,21.65320931640625,106.981265421875,21.63436431640625Q106.935768421875,21.61551831640625,106.894822421875,21.58815931640625Q106.853876421875,21.56079931640625,106.819054421875,21.52597731640625Q106.784232421875,21.49115531640625,106.756872421875,21.45020931640625Q106.729513421875,21.40926331640625,106.710667421875,21.36376631640625Q106.691822421875,21.31826931640625,106.682214421875,21.26996941640625Q106.672607421875,21.22167001640625,106.672607421875,21.17242431640625Q106.672607421875,21.12317861640625,106.682214421875,21.07487921640625Q106.691822421875,21.02657931640625,106.710667421875,20.98108231640625Q106.729513421875,20.93558531640625,106.756872421875,20.89463931640625Q106.784232421875,20.85369331640625,106.819054421875,20.81887131640625Q106.853876421875,20.78404931640625,106.894822421875,20.75668931640625Q106.935768421875,20.72933031640625,106.981265421875,20.71048431640625Q107.026762421875,20.69163931640625,107.075062321875,20.68203131640625Q107.123361721875,20.67242431640625,107.172607421875,20.67242431640625Z" fill-rule="evenodd" fill="#333333" fill-opacity="1"/></g><g><path d="M225.172607421875,20.67242431640625L229.172607421875,20.67242431640625Q229.221857421875,20.67242431640625,229.270157421875,20.68203131640625Q229.318447421875,20.69163931640625,229.363947421875,20.71048431640625Q229.409447421875,20.72933031640625,229.450387421875,20.75668931640625Q229.491337421875,20.78404931640625,229.526157421875,20.81887131640625Q229.560977421875,20.85369331640625,229.588337421875,20.89463931640625Q229.615697421875,20.93558531640625,229.634547421875,20.98108231640625Q229.653387421875,21.02657931640625,229.662997421875,21.07487921640625Q229.672607421875,21.12317861640625,229.672607421875,21.17242431640625Q229.672607421875,21.22167001640625,229.662997421875,21.26996941640625Q229.653387421875,21.31826931640625,229.634547421875,21.36376631640625Q229.615697421875,21.40926331640625,229.588337421875,21.45020931640625Q229.560977421875,21.49115531640625,229.526157421875,21.52597731640625Q229.491337421875,21.56079931640625,229.450387421875,21.58815931640625Q229.409447421875,21.61551831640625,229.363947421875,21.63436431640625Q229.318447421875,21.65320931640625,229.270157421875,21.66281731640625Q229.221857421875,21.67242431640625,229.172607421875,21.67242431640625L225.172607421875,21.67242431640625Q225.123361721875,21.67242431640625,225.075062321875,21.66281731640625Q225.026762421875,21.65320931640625,224.981265421875,21.63436431640625Q224.935768421875,21.61551831640625,224.894822421875,21.58815931640625Q224.853876421875,21.56079931640625,224.819054421875,21.52597731640625Q224.784232421875,21.49115531640625,224.756872421875,21.45020931640625Q224.729513421875,21.40926331640625,224.710667421875,21.36376631640625Q224.691822421875,21.31826931640625,224.682214421875,21.26996941640625Q224.672607421875,21.22167001640625,224.672607421875,21.17242431640625Q224.672607421875,21.12317861640625,224.682214421875,21.07487921640625Q224.691822421875,21.02657931640625,224.710667421875,20.98108231640625Q224.729513421875,20.93558531640625,224.756872421875,20.89463931640625Q224.784232421875,20.85369331640625,224.819054421875,20.81887131640625Q224.853876421875,20.78404931640625,224.894822421875,20.75668931640625Q224.935768421875,20.72933031640625,224.981265421875,20.71048431640625Q225.026762421875,20.69163931640625,225.075062321875,20.68203131640625Q225.123361721875,20.67242431640625,225.172607421875,20.67242431640625Z" fill-rule="evenodd" fill="#333333" fill-opacity="1"/></g></g><g transform="matrix(0.5000002384185791,0.8660252094268799,0.8660252094268799,-0.5000002384185791,4.918808341593831,-8.519623946325737)"><g><path d="M46.55712890625,20.70001220703125L50.55712890625,20.70001220703125Q50.60637890625,20.70001220703125,50.65467890625,20.70961920703125Q50.70296890625,20.71922720703125,50.74846890625,20.73807220703125Q50.79396890625,20.75691820703125,50.83490890625,20.78427720703125Q50.87585890625,20.81163720703125,50.91067890625,20.84645920703125Q50.94549890625,20.88128120703125,50.972858906249996,20.92222720703125Q51.00021890625,20.96317320703125,51.01906890625,21.00867020703125Q51.03790890625,21.05416720703125,51.04751890625,21.10246710703125Q51.05712890625,21.15076650703125,51.05712890625,21.20001220703125Q51.05712890625,21.24925790703125,51.04751890625,21.29755730703125Q51.03790890625,21.34585720703125,51.01906890625,21.39135420703125Q51.00021890625,21.43685120703125,50.972858906249996,21.47779720703125Q50.94549890625,21.51874320703125,50.91067890625,21.55356520703125Q50.87585890625,21.58838720703125,50.83490890625,21.61574720703125Q50.79396890625,21.64310620703125,50.74846890625,21.66195220703125Q50.70296890625,21.68079720703125,50.65467890625,21.69040520703125Q50.60637890625,21.70001220703125,50.55712890625,21.70001220703125L46.55712890625,21.70001220703125Q46.50788320625,21.70001220703125,46.45958380625,21.69040520703125Q46.41128390625,21.68079720703125,46.36578690625,21.66195220703125Q46.32028990625,21.64310620703125,46.27934390625,21.61574720703125Q46.23839790625,21.58838720703125,46.20357590625,21.55356520703125Q46.16875390625,21.51874320703125,46.14139390625,21.47779720703125Q46.11403490625,21.43685120703125,46.09518890625,21.39135420703125Q46.07634390625,21.34585720703125,46.06673590625,21.29755730703125Q46.05712890625,21.24925790703125,46.05712890625,21.20001220703125Q46.05712890625,21.15076650703125,46.06673590625,21.10246710703125Q46.07634390625,21.05416720703125,46.09518890625,21.00867020703125Q46.11403490625,20.96317320703125,46.14139390625,20.92222720703125Q46.16875390625,20.88128120703125,46.20357590625,20.84645920703125Q46.23839790625,20.81163720703125,46.27934390625,20.78427720703125Q46.32028990625,20.75691820703125,46.36578690625,20.73807220703125Q46.41128390625,20.71922720703125,46.45958380625,20.70961920703125Q46.50788320625,20.70001220703125,46.55712890625,20.70001220703125Z" fill-rule="evenodd" fill="#333333" fill-opacity="1"/></g><g><path d="M164.55712890625,20.70001220703125L168.55712890625,20.70001220703125Q168.60637890625,20.70001220703125,168.65467890625,20.70961920703125Q168.70296890625,20.71922720703125,168.74846890625,20.73807220703125Q168.79396890625,20.75691820703125,168.83490890625,20.78427720703125Q168.87585890625,20.81163720703125,168.91067890625,20.84645920703125Q168.94549890625,20.88128120703125,168.97285890625,20.92222720703125Q169.00021890625,20.96317320703125,169.01906890625,21.00867020703125Q169.03790890625,21.05416720703125,169.04751890625,21.10246710703125Q169.05712890625,21.15076650703125,169.05712890625,21.20001220703125Q169.05712890625,21.24925790703125,169.04751890625,21.29755730703125Q169.03790890625,21.34585720703125,169.01906890625,21.39135420703125Q169.00021890625,21.43685120703125,168.97285890625,21.47779720703125Q168.94549890625,21.51874320703125,168.91067890625,21.55356520703125Q168.87585890625,21.58838720703125,168.83490890625,21.61574720703125Q168.79396890625,21.64310620703125,168.74846890625,21.66195220703125Q168.70296890625,21.68079720703125,168.65467890625,21.69040520703125Q168.60637890625,21.70001220703125,168.55712890625,21.70001220703125L164.55712890625,21.70001220703125Q164.50788320625,21.70001220703125,164.45958380625,21.69040520703125Q164.41128390625,21.68079720703125,164.36578690625,21.66195220703125Q164.32028990625,21.64310620703125,164.27934390625,21.61574720703125Q164.23839790625,21.58838720703125,164.20357590625,21.55356520703125Q164.16875390625,21.51874320703125,164.14139390625,21.47779720703125Q164.11403490625,21.43685120703125,164.09518890625,21.39135420703125Q164.07634390625,21.34585720703125,164.06673590625,21.29755730703125Q164.05712890625,21.24925790703125,164.05712890625,21.20001220703125Q164.05712890625,21.15076650703125,164.06673590625,21.10246710703125Q164.07634390625,21.05416720703125,164.09518890625,21.00867020703125Q164.11403490625,20.96317320703125,164.14139390625,20.92222720703125Q164.16875390625,20.88128120703125,164.20357590625,20.84645920703125Q164.23839790625,20.81163720703125,164.27934390625,20.78427720703125Q164.32028990625,20.75691820703125,164.36578690625,20.73807220703125Q164.41128390625,20.71922720703125,164.45958380625,20.70961920703125Q164.50788320625,20.70001220703125,164.55712890625,20.70001220703125Z" fill-rule="evenodd" fill="#333333" fill-opacity="1"/></g></g><g transform="matrix(-0.25881922245025635,0.9659257531166077,-0.9659257531166077,-0.25881922245025635,131.0168392961059,-70.32057728396103)"><g><path d="M92.48785400390625,14.6060791015625L96.48785400390625,14.6060791015625Q96.53710400390625,14.6060791015625,96.58540400390625,14.6156861015625Q96.63369400390624,14.625294101562499,96.67919400390625,14.6441391015625Q96.72469400390625,14.6629851015625,96.76563400390626,14.6903441015625Q96.80658400390625,14.7177041015625,96.84140400390625,14.7525261015625Q96.87622400390624,14.7873481015625,96.90358400390625,14.8282941015625Q96.93094400390625,14.8692401015625,96.94979400390625,14.9147371015625Q96.96863400390625,14.9602341015625,96.97824400390625,15.0085340015625Q96.98785400390625,15.0568334015625,96.98785400390625,15.1060791015625Q96.98785400390625,15.1553248015625,96.97824400390625,15.2036242015625Q96.96863400390625,15.2519241015625,96.94979400390625,15.2974211015625Q96.93094400390625,15.3429181015625,96.90358400390625,15.3838641015625Q96.87622400390624,15.4248101015625,96.84140400390625,15.4596321015625Q96.80658400390625,15.4944541015625,96.76563400390626,15.5218141015625Q96.72469400390625,15.5491731015625,96.67919400390625,15.5680191015625Q96.63369400390624,15.586864101562501,96.58540400390625,15.5964721015625Q96.53710400390625,15.6060791015625,96.48785400390625,15.6060791015625L92.48785400390625,15.6060791015625Q92.43860830390625,15.6060791015625,92.39030890390625,15.5964721015625Q92.34200900390626,15.586864101562501,92.29651200390624,15.5680191015625Q92.25101500390625,15.5491731015625,92.21006900390626,15.5218141015625Q92.16912300390625,15.4944541015625,92.13430100390624,15.4596321015625Q92.09947900390625,15.4248101015625,92.07211900390625,15.3838641015625Q92.04476000390625,15.3429181015625,92.02591400390625,15.2974211015625Q92.00706900390625,15.2519241015625,91.99746100390625,15.2036242015625Q91.98785400390625,15.1553248015625,91.98785400390625,15.1060791015625Q91.98785400390625,15.0568334015625,91.99746100390625,15.0085340015625Q92.00706900390625,14.9602341015625,92.02591400390625,14.9147371015625Q92.04476000390625,14.8692401015625,92.07211900390625,14.8282941015625Q92.09947900390625,14.7873481015625,92.13430100390624,14.7525261015625Q92.16912300390625,14.7177041015625,92.21006900390626,14.6903441015625Q92.25101500390625,14.6629851015625,92.29651200390624,14.6441391015625Q92.34200900390626,14.625294101562499,92.39030890390625,14.6156861015625Q92.43860830390625,14.6060791015625,92.48785400390625,14.6060791015625Z" fill-rule="evenodd" fill="#333333" fill-opacity="1"/></g><g><path d="M210.48785400390625,14.6060791015625L214.48785400390625,14.6060791015625Q214.53710400390625,14.6060791015625,214.58540400390626,14.6156861015625Q214.63369400390624,14.625294101562499,214.67919400390625,14.6441391015625Q214.72469400390625,14.6629851015625,214.76563400390626,14.6903441015625Q214.80658400390624,14.7177041015625,214.84140400390626,14.7525261015625Q214.87622400390626,14.7873481015625,214.90358400390625,14.8282941015625Q214.93094400390626,14.8692401015625,214.94979400390625,14.9147371015625Q214.96863400390626,14.9602341015625,214.97824400390624,15.0085340015625Q214.98785400390625,15.0568334015625,214.98785400390625,15.1060791015625Q214.98785400390625,15.1553248015625,214.97824400390624,15.2036242015625Q214.96863400390626,15.2519241015625,214.94979400390625,15.2974211015625Q214.93094400390626,15.3429181015625,214.90358400390625,15.3838641015625Q214.87622400390626,15.4248101015625,214.84140400390626,15.4596321015625Q214.80658400390624,15.4944541015625,214.76563400390626,15.5218141015625Q214.72469400390625,15.5491731015625,214.67919400390625,15.5680191015625Q214.63369400390624,15.586864101562501,214.58540400390626,15.5964721015625Q214.53710400390625,15.6060791015625,214.48785400390625,15.6060791015625L210.48785400390625,15.6060791015625Q210.43860830390625,15.6060791015625,210.39030890390626,15.5964721015625Q210.34200900390624,15.586864101562501,210.29651200390626,15.5680191015625Q210.25101500390625,15.5491731015625,210.21006900390626,15.5218141015625Q210.16912300390624,15.4944541015625,210.13430100390624,15.4596321015625Q210.09947900390625,15.4248101015625,210.07211900390624,15.3838641015625Q210.04476000390625,15.3429181015625,210.02591400390625,15.2974211015625Q210.00706900390625,15.2519241015625,209.99746100390624,15.2036242015625Q209.98785400390625,15.1553248015625,209.98785400390625,15.1060791015625Q209.98785400390625,15.0568334015625,209.99746100390624,15.0085340015625Q210.00706900390625,14.9602341015625,210.02591400390625,14.9147371015625Q210.04476000390625,14.8692401015625,210.07211900390624,14.8282941015625Q210.09947900390625,14.7873481015625,210.13430100390624,14.7525261015625Q210.16912300390624,14.7177041015625,210.21006900390626,14.6903441015625Q210.25101500390625,14.6629851015625,210.29651200390626,14.6441391015625Q210.34200900390624,14.625294101562499,210.39030890390626,14.6156861015625Q210.43860830390625,14.6060791015625,210.48785400390625,14.6060791015625Z" fill-rule="evenodd" fill="#333333" fill-opacity="1"/></g></g><g transform="matrix(0.25881922245025635,0.9659257531166077,0.9659257531166077,-0.25881922245025635,30.81711495284253,-40.16165168207954)"><g><path d="M61.257080078125,14.5999755859375L65.257080078125,14.5999755859375Q65.306330078125,14.5999755859375,65.354630078125,14.6095825859375Q65.40292007812499,14.619190585937499,65.448420078125,14.6380355859375Q65.493920078125,14.6568815859375,65.534860078125,14.6842405859375Q65.575810078125,14.7116005859375,65.610630078125,14.7464225859375Q65.645450078125,14.7812445859375,65.672810078125,14.8221905859375Q65.700170078125,14.8631365859375,65.719020078125,14.9086335859375Q65.737860078125,14.9541305859375,65.747470078125,15.0024304859375Q65.757080078125,15.0507298859375,65.757080078125,15.0999755859375Q65.757080078125,15.1492212859375,65.747470078125,15.1975206859375Q65.737860078125,15.2458205859375,65.719020078125,15.2913175859375Q65.700170078125,15.3368145859375,65.672810078125,15.3777605859375Q65.645450078125,15.4187065859375,65.610630078125,15.4535285859375Q65.575810078125,15.4883505859375,65.534860078125,15.5157105859375Q65.493920078125,15.5430695859375,65.448420078125,15.5619155859375Q65.40292007812499,15.580760585937501,65.354630078125,15.5903685859375Q65.306330078125,15.5999755859375,65.257080078125,15.5999755859375L61.257080078125,15.5999755859375Q61.207834378125,15.5999755859375,61.159534978125,15.5903685859375Q61.111235078125,15.580760585937501,61.065738078125,15.5619155859375Q61.020241078125,15.5430695859375,60.979295078125,15.5157105859375Q60.938349078125,15.4883505859375,60.903527078125,15.4535285859375Q60.868705078125,15.4187065859375,60.841345078125,15.3777605859375Q60.813986078125,15.3368145859375,60.795140078125,15.2913175859375Q60.776295078125,15.2458205859375,60.766687078125,15.1975206859375Q60.757080078125,15.1492212859375,60.757080078125,15.0999755859375Q60.757080078125,15.0507298859375,60.766687078125,15.0024304859375Q60.776295078125,14.9541305859375,60.795140078125,14.9086335859375Q60.813986078125,14.8631365859375,60.841345078125,14.8221905859375Q60.868705078125,14.7812445859375,60.903527078125,14.7464225859375Q60.938349078125,14.7116005859375,60.979295078125,14.6842405859375Q61.020241078125,14.6568815859375,61.065738078125,14.6380355859375Q61.111235078125,14.619190585937499,61.159534978125,14.6095825859375Q61.207834378125,14.5999755859375,61.257080078125,14.5999755859375Z" fill-rule="evenodd" fill="#333333" fill-opacity="1"/></g><g><path d="M179.257080078125,14.5999755859375L183.257080078125,14.5999755859375Q183.306330078125,14.5999755859375,183.354630078125,14.6095825859375Q183.402920078125,14.619190585937499,183.448420078125,14.6380355859375Q183.493920078125,14.6568815859375,183.534860078125,14.6842405859375Q183.575810078125,14.7116005859375,183.610630078125,14.7464225859375Q183.645450078125,14.7812445859375,183.672810078125,14.8221905859375Q183.700170078125,14.8631365859375,183.719020078125,14.9086335859375Q183.737860078125,14.9541305859375,183.747470078125,15.0024304859375Q183.757080078125,15.0507298859375,183.757080078125,15.0999755859375Q183.757080078125,15.1492212859375,183.747470078125,15.1975206859375Q183.737860078125,15.2458205859375,183.719020078125,15.2913175859375Q183.700170078125,15.3368145859375,183.672810078125,15.3777605859375Q183.645450078125,15.4187065859375,183.610630078125,15.4535285859375Q183.575810078125,15.4883505859375,183.534860078125,15.5157105859375Q183.493920078125,15.5430695859375,183.448420078125,15.5619155859375Q183.402920078125,15.580760585937501,183.354630078125,15.5903685859375Q183.306330078125,15.5999755859375,183.257080078125,15.5999755859375L179.257080078125,15.5999755859375Q179.207834378125,15.5999755859375,179.159534978125,15.5903685859375Q179.111235078125,15.580760585937501,179.065738078125,15.5619155859375Q179.020241078125,15.5430695859375,178.979295078125,15.5157105859375Q178.938349078125,15.4883505859375,178.903527078125,15.4535285859375Q178.868705078125,15.4187065859375,178.841345078125,15.3777605859375Q178.813986078125,15.3368145859375,178.795140078125,15.2913175859375Q178.776295078125,15.2458205859375,178.766687078125,15.1975206859375Q178.757080078125,15.1492212859375,178.757080078125,15.0999755859375Q178.757080078125,15.0507298859375,178.766687078125,15.0024304859375Q178.776295078125,14.9541305859375,178.795140078125,14.9086335859375Q178.813986078125,14.8631365859375,178.841345078125,14.8221905859375Q178.868705078125,14.7812445859375,178.903527078125,14.7464225859375Q178.938349078125,14.7116005859375,178.979295078125,14.6842405859375Q179.020241078125,14.6568815859375,179.065738078125,14.6380355859375Q179.111235078125,14.619190585937499,179.159534978125,14.6095825859375Q179.207834378125,14.5999755859375,179.257080078125,14.5999755859375Z" fill-rule="evenodd" fill="#333333" fill-opacity="1"/></g></g><g transform="matrix(-0.9659258127212524,0.25881874561309814,-0.25881874561309814,-0.9659258127212524,282.15155253772537,80.24287467118847)"><g><path d="M135.793701171875,58.19439697265625L139.793701171875,58.19439697265625Q139.842951171875,58.19439697265625,139.891251171875,58.20400397265625Q139.939541171875,58.21361197265625,139.985041171875,58.23245697265625Q140.030541171875,58.25130297265625,140.071481171875,58.27866197265625Q140.112431171875,58.30602197265625,140.147251171875,58.34084397265625Q140.182071171875,58.37566597265625,140.209431171875,58.41661197265625Q140.236791171875,58.45755797265625,140.255641171875,58.50305497265625Q140.274481171875,58.54855197265625,140.284091171875,58.59685187265625Q140.293701171875,58.64515127265625,140.293701171875,58.69439697265625Q140.293701171875,58.74364267265625,140.284091171875,58.79194207265625Q140.274481171875,58.84024197265625,140.255641171875,58.88573897265625Q140.236791171875,58.93123597265625,140.209431171875,58.97218197265625Q140.182071171875,59.01312797265625,140.147251171875,59.04794997265625Q140.112431171875,59.08277197265625,140.071481171875,59.11013197265625Q140.030541171875,59.13749097265625,139.985041171875,59.15633697265625Q139.939541171875,59.17518197265625,139.891251171875,59.18478997265625Q139.842951171875,59.19439697265625,139.793701171875,59.19439697265625L135.793701171875,59.19439697265625Q135.744455471875,59.19439697265625,135.696156071875,59.18478997265625Q135.647856171875,59.17518197265625,135.602359171875,59.15633697265625Q135.556862171875,59.13749097265625,135.515916171875,59.11013197265625Q135.474970171875,59.08277197265625,135.440148171875,59.04794997265625Q135.405326171875,59.01312797265625,135.377966171875,58.97218197265625Q135.350607171875,58.93123597265625,135.331761171875,58.88573897265625Q135.312916171875,58.84024197265625,135.303308171875,58.79194207265625Q135.293701171875,58.74364267265625,135.293701171875,58.69439697265625Q135.293701171875,58.64515127265625,135.303308171875,58.59685187265625Q135.312916171875,58.54855197265625,135.331761171875,58.50305497265625Q135.350607171875,58.45755797265625,135.377966171875,58.41661197265625Q135.405326171875,58.37566597265625,135.440148171875,58.34084397265625Q135.474970171875,58.30602197265625,135.515916171875,58.27866197265625Q135.556862171875,58.25130297265625,135.602359171875,58.23245697265625Q135.647856171875,58.21361197265625,135.696156071875,58.20400397265625Q135.744455471875,58.19439697265625,135.793701171875,58.19439697265625Z" fill-rule="evenodd" fill="#333333" fill-opacity="1"/></g><g><path d="M253.793701171875,58.19427490234375L257.793701171875,58.19427490234375Q257.842951171875,58.19427490234375,257.891251171875,58.20388190234375Q257.939541171875,58.21348990234375,257.985041171875,58.23233490234375Q258.030541171875,58.25118090234375,258.071481171875,58.27853990234375Q258.112431171875,58.30589990234375,258.147251171875,58.34072190234375Q258.182071171875,58.37554390234375,258.209431171875,58.41648990234375Q258.236791171875,58.45743590234375,258.255641171875,58.50293290234375Q258.274481171875,58.54842990234375,258.284091171875,58.59672980234375Q258.293701171875,58.64502920234375,258.293701171875,58.69427490234375Q258.293701171875,58.74352060234375,258.284091171875,58.79182000234375Q258.274481171875,58.84011990234375,258.255641171875,58.88561690234375Q258.236791171875,58.93111390234375,258.209431171875,58.97205990234375Q258.182071171875,59.01300590234375,258.147251171875,59.04782790234375Q258.112431171875,59.08264990234375,258.071481171875,59.11000990234375Q258.030541171875,59.13736890234375,257.985041171875,59.15621490234375Q257.939541171875,59.17505990234375,257.891251171875,59.18466790234375Q257.842951171875,59.19427490234375,257.793701171875,59.19427490234375L253.793701171875,59.19427490234375Q253.744455471875,59.19427490234375,253.696156071875,59.18466790234375Q253.647856171875,59.17505990234375,253.602359171875,59.15621490234375Q253.556862171875,59.13736890234375,253.515916171875,59.11000990234375Q253.474970171875,59.08264990234375,253.440148171875,59.04782790234375Q253.405326171875,59.01300590234375,253.377966171875,58.97205990234375Q253.350607171875,58.93111390234375,253.331761171875,58.88561690234375Q253.312916171875,58.84011990234375,253.303308171875,58.79182000234375Q253.293701171875,58.74352060234375,253.293701171875,58.69427490234375Q253.293701171875,58.64502920234375,253.303308171875,58.59672980234375Q253.312916171875,58.54842990234375,253.331761171875,58.50293290234375Q253.350607171875,58.45743590234375,253.377966171875,58.41648990234375Q253.405326171875,58.37554390234375,253.440148171875,58.34072190234375Q253.474970171875,58.30589990234375,253.515916171875,58.27853990234375Q253.556862171875,58.25118090234375,253.602359171875,58.23233490234375Q253.647856171875,58.21348990234375,253.696156071875,58.20388190234375Q253.744455471875,58.19427490234375,253.793701171875,58.19427490234375Z" fill-rule="evenodd" fill="#333333" fill-opacity="1"/></g></g><g transform="matrix(0.9659258127212524,0.25881874561309814,0.25881874561309814,-0.9659258127212524,-14.580792281114554,110.75225290179515)"><g><path d="M17.95703125,58.20001220703125L21.95703125,58.20001220703125Q22.00628125,58.20001220703125,22.05458125,58.20961920703125Q22.10287125,58.21922720703125,22.14837125,58.23807220703125Q22.19387125,58.25691820703125,22.23481125,58.28427720703125Q22.275761250000002,58.31163720703125,22.31058125,58.34645920703125Q22.345401250000002,58.38128120703125,22.37276125,58.42222720703125Q22.400121249999998,58.46317320703125,22.41897125,58.50867020703125Q22.43781125,58.55416720703125,22.447421249999998,58.60246710703125Q22.45703125,58.65076650703125,22.45703125,58.70001220703125Q22.45703125,58.74925790703125,22.447421249999998,58.79755730703125Q22.43781125,58.84585720703125,22.41897125,58.89135420703125Q22.400121249999998,58.93685120703125,22.37276125,58.97779720703125Q22.345401250000002,59.01874320703125,22.31058125,59.05356520703125Q22.275761250000002,59.08838720703125,22.23481125,59.11574720703125Q22.19387125,59.14310620703125,22.14837125,59.16195220703125Q22.10287125,59.18079720703125,22.05458125,59.19040520703125Q22.00628125,59.20001220703125,21.95703125,59.20001220703125L17.95703125,59.20001220703125Q17.90778555,59.20001220703125,17.85948615,59.19040520703125Q17.81118625,59.18079720703125,17.76568925,59.16195220703125Q17.72019225,59.14310620703125,17.67924625,59.11574720703125Q17.63830025,59.08838720703125,17.60347825,59.05356520703125Q17.56865625,59.01874320703125,17.54129625,58.97779720703125Q17.51393725,58.93685120703125,17.49509125,58.89135420703125Q17.47624625,58.84585720703125,17.46663825,58.79755730703125Q17.45703125,58.74925790703125,17.45703125,58.70001220703125Q17.45703125,58.65076650703125,17.46663825,58.60246710703125Q17.47624625,58.55416720703125,17.49509125,58.50867020703125Q17.51393725,58.46317320703125,17.54129625,58.42222720703125Q17.56865625,58.38128120703125,17.60347825,58.34645920703125Q17.63830025,58.31163720703125,17.67924625,58.28427720703125Q17.72019225,58.25691820703125,17.76568925,58.23807220703125Q17.81118625,58.21922720703125,17.85948615,58.20961920703125Q17.90778555,58.20001220703125,17.95703125,58.20001220703125Z" fill-rule="evenodd" fill="#333333" fill-opacity="1"/></g><g><path d="M135.95703125,58.20001220703125L139.95703125,58.20001220703125Q140.00628125,58.20001220703125,140.05458125,58.20961920703125Q140.10287125,58.21922720703125,140.14837125,58.23807220703125Q140.19387125,58.25691820703125,140.23481125,58.28427720703125Q140.27576125,58.31163720703125,140.31058125,58.34645920703125Q140.34540125,58.38128120703125,140.37276125,58.42222720703125Q140.40012125,58.46317320703125,140.41897125,58.50867020703125Q140.43781125,58.55416720703125,140.44742125,58.60246710703125Q140.45703125,58.65076650703125,140.45703125,58.70001220703125Q140.45703125,58.74925790703125,140.44742125,58.79755730703125Q140.43781125,58.84585720703125,140.41897125,58.89135420703125Q140.40012125,58.93685120703125,140.37276125,58.97779720703125Q140.34540125,59.01874320703125,140.31058125,59.05356520703125Q140.27576125,59.08838720703125,140.23481125,59.11574720703125Q140.19387125,59.14310620703125,140.14837125,59.16195220703125Q140.10287125,59.18079720703125,140.05458125,59.19040520703125Q140.00628125,59.20001220703125,139.95703125,59.20001220703125L135.95703125,59.20001220703125Q135.90778555,59.20001220703125,135.85948615,59.19040520703125Q135.81118625,59.18079720703125,135.76568925,59.16195220703125Q135.72019225,59.14310620703125,135.67924625,59.11574720703125Q135.63830025,59.08838720703125,135.60347825,59.05356520703125Q135.56865625,59.01874320703125,135.54129625,58.97779720703125Q135.51393725,58.93685120703125,135.49509125,58.89135420703125Q135.47624625,58.84585720703125,135.46663825,58.79755730703125Q135.45703125,58.74925790703125,135.45703125,58.70001220703125Q135.45703125,58.65076650703125,135.46663825,58.60246710703125Q135.47624625,58.55416720703125,135.49509125,58.50867020703125Q135.51393725,58.46317320703125,135.54129625,58.42222720703125Q135.56865625,58.38128120703125,135.60347825,58.34645920703125Q135.63830025,58.31163720703125,135.67924625,58.28427720703125Q135.72019225,58.25691820703125,135.76568925,58.23807220703125Q135.81118625,58.21922720703125,135.85948615,58.20961920703125Q135.90778555,58.20001220703125,135.95703125,58.20001220703125Z" fill-rule="evenodd" fill="#333333" fill-opacity="1"/></g></g></g></g></svg>