<svg xmlns="http://www.w3.org/2000/svg" xmlns:xlink="http://www.w3.org/1999/xlink" fill="none" version="1.1" width="16" height="16" viewBox="0 0 16 16"><defs><clipPath id="master_svg0_273_0013"><rect x="0" y="0" width="16" height="16" rx="0"/></clipPath></defs><g clip-path="url(#master_svg0_273_0013)"><g><path d="M0.8333745002746582,6.999922429962158Q0.8333745002746582,4.445612429962158,2.639554500274658,2.639432429962158Q4.445734500274658,0.8332524299621582,7.0000345002746585,0.8332524299621582Q9.554354500274659,0.8332524299621582,11.360574500274659,2.639432429962158Q13.166674500274658,4.445612429962158,13.166674500274658,6.9999124299621585Q13.166674500274658,9.300582429962159,11.701474500274658,10.994352429962158L14.255974500274657,13.548852429962158Q14.326274500274659,13.619152429962158,14.364374500274659,13.711052429962159Q14.402374500274659,13.802952429962158,14.402374500274659,13.902452429962159Q14.402374500274659,13.951652429962158,14.392774500274658,13.999952429962159Q14.383174500274658,14.048252429962158,14.364374500274659,14.093752429962159Q14.345474500274658,14.139252429962157,14.318174500274658,14.180152429962158Q14.290774500274658,14.221152429962158,14.255974500274657,14.255952429962159Q14.221174500274659,14.290752429962158,14.180174500274658,14.318152429962158Q14.139274500274658,14.345452429962158,14.093774500274659,14.364352429962159Q14.048274500274658,14.383152429962157,13.999974500274659,14.392752429962158Q13.951674500274658,14.402452429962159,13.902374500274659,14.402452429962159Q13.802974500274658,14.402452429962159,13.711074500274659,14.364352429962159Q13.619174500274658,14.326252429962159,13.548874500274659,14.255952429962159L10.994274500274658,11.701452429962158Q9.300614500274659,13.166552429962158,7.000044500274658,13.166552429962158Q4.445734500274658,13.166552429962158,2.639554500274658,11.360452429962159Q0.8333745002746582,9.554222429962158,0.8333745002746582,6.999922429962158ZM1.8333745002746582,6.999922429962158Q1.8333745002746582,9.140012429962159,3.3466645002746582,10.653302429962158Q4.859944500274659,12.166552429962158,7.000044500274658,12.166552429962158Q9.140134500274659,12.166552429962158,10.653424500274658,10.653302429962158Q12.166674500274658,9.140012429962159,12.166674500274658,6.9999124299621585Q12.166674500274658,4.859822429962159,10.653424500274658,3.3465424299621582Q9.140134500274659,1.8332524299621582,7.0000345002746585,1.8332524299621582Q4.859944500274659,1.8332524299621582,3.3466645002746582,3.3465424299621582Q1.8333745002746582,4.859822429962159,1.8333745002746582,6.999922429962158ZM4.760834500274658,4.427472429962158Q5.198894500274658,3.9894424299621583,5.767264500274658,3.749052429962158Q6.356104500274658,3.500002429962158,7.000014500274658,3.500002429962158Q7.643934500274658,3.500002429962158,8.232764500274659,3.749052429962158Q8.800934500274657,3.989362429962158,9.238854500274659,4.427172429962158L9.239164500274658,4.427482429962158Q9.309494500274658,4.497802429962158,9.347554500274658,4.589692429962158Q9.385614500274658,4.681582429962158,9.385614500274658,4.781032429962158Q9.385614500274658,4.830282429962159,9.376004500274659,4.878582429962158Q9.366394500274659,4.926882429962158,9.347554500274658,4.972372429962158Q9.328704500274657,5.017872429962158,9.301344500274658,5.0588224299621585Q9.273984500274658,5.0997624299621584,9.239164500274658,5.134582429962158Q9.204344500274658,5.169412429962158,9.163394500274658,5.1967724299621585Q9.122454500274658,5.224132429962158,9.076954500274658,5.242972429962158Q9.031454500274657,5.261822429962158,8.983154500274658,5.271422429962159Q8.934864500274658,5.281032429962158,8.885614500274658,5.281032429962158Q8.786154500274659,5.281032429962158,8.694274500274659,5.242972429962158Q8.602384500274658,5.2049124299621585,8.532064500274657,5.134582429962158L8.531684500274658,5.134212429962158Q8.231704500274658,4.834372429962158,7.843214500274658,4.670062429962158Q7.441144500274659,4.500002429962159,7.000014500274658,4.500002429962159Q6.558884500274658,4.500002429962159,6.156804500274658,4.670062429962158Q5.768064500274658,4.834482429962158,5.467924500274658,5.134602429962158Q5.397594500274658,5.204922429962158,5.305714500274658,5.242972429962158Q5.2138345002746584,5.281032429962158,5.114384500274658,5.281032429962158Q5.065134500274659,5.281032429962158,5.016834500274658,5.271422429962159Q4.968534500274658,5.261822429962158,4.9230345002746585,5.242972429962158Q4.8775445002746585,5.224132429962158,4.836594500274658,5.1967724299621585Q4.795644500274658,5.169412429962158,4.7608245002746585,5.134582429962158Q4.726004500274659,5.0997624299621584,4.698644500274659,5.0588224299621585Q4.671284500274658,5.017872429962158,4.652444500274658,4.972372429962158Q4.633594500274658,4.926882429962158,4.623984500274658,4.878582429962158Q4.614384500274658,4.830282429962159,4.614384500274658,4.781032429962158Q4.614384500274658,4.681572429962158,4.652444500274658,4.589682429962158Q4.690504500274658,4.497792429962159,4.760834500274658,4.427472429962158Z" fill-rule="evenodd" fill="#FFFFFF" fill-opacity="0.30000001192092896"/></g></g></svg>