<svg xmlns="http://www.w3.org/2000/svg" xmlns:xlink="http://www.w3.org/1999/xlink" fill="none" version="1.1" width="24" height="24" viewBox="0 0 24 24"><defs><clipPath id="master_svg0_287_2455"><rect x="24" y="0" width="24" height="24" rx="0"/></clipPath></defs><g transform="matrix(-1,0,0,1,48,0)" clip-path="url(#master_svg0_287_2455)"><g><path d="M24,18.0702C24,18.7239,24.403773,19,24.831757,19C25.02039,19,25.20211,18.9476,25.37,18.8552L35.4505,12.76103C35.8319,12.5366,36.0274,12.3281,36.0274,12.003499999999999C36.0274,11.67891,35.8319,11.470410000000001,35.4505,11.245989999999999L25.37,5.151815C25.20211,5.0566872,25.02039,5,24.831757,5C24.403773,5,24,5.280332,24,5.927193L24,18.0702ZM35.9794,18.0702C35.9794,18.7239,36.3805,19,36.8112,19C36.9902,19,37.1816,18.9476,37.3425,18.8552L47.4202,12.76103C47.8114,12.5366,48,12.3281,48,12.003499999999999C48,11.67891,47.8114,11.470410000000001,47.4202,11.245989999999999L37.3425,5.151815C37.1816,5.0566872,36.9902,5,36.8112,5C36.3805,5,35.9794,5.280332,35.9794,5.927193L35.9794,18.0702Z" fill="#FFFFFF" fill-opacity="0.699999988079071" style="mix-blend-mode:passthrough"/></g></g></svg>