<svg xmlns="http://www.w3.org/2000/svg" xmlns:xlink="http://www.w3.org/1999/xlink" fill="none" version="1.1" width="16" height="16" viewBox="0 0 16 16"><defs><clipPath id="master_svg0_287_2154"><path d="M0 0C0 0 0 0 0 0L16 0C16 0 16 0 16 0L16 16C16 16 16 16 16 16L0 16C0 16 0 16 0 16Z"/></clipPath></defs><g><g clip-path="url(#master_svg0_287_2154)"><g><rect x="0" y="0" width="16" height="16" rx="0" fill="#FFFFFF" fill-opacity="0"/></g><g><path d="M14.6860259765625,4.0210717529296875Q14.7567259765625,3.9506947529296874,14.7950259765625,3.8585677529296873Q14.8333259765625,3.7664396529296873,14.8333259765625,3.6666717529296875Q14.8333259765625,3.6174260529296873,14.8237259765625,3.5691266529296874Q14.8141259765625,3.5208267529296875,14.7952259765625,3.4753297529296874Q14.7764259765625,3.4298327529296877,14.7490259765625,3.3888867529296873Q14.7216259765625,3.3479407529296874,14.6868259765625,3.3131187529296877Q14.6520259765625,3.2782967529296876,14.6111259765625,3.2509367529296873Q14.5701259765625,3.2235777529296876,14.5246259765625,3.2047317529296873Q14.4791259765625,3.1858867529296875,14.4308259765625,3.1762787529296874Q14.3825259765625,3.1666717529296875,14.3333259765625,3.1666717529296875Q14.2341259765625,3.1666717529296875,14.1425259765625,3.2045027529296877Q14.0508259765625,3.2423337529296874,13.9806259765625,3.3122717529296875L13.9801259765625,3.3126827529296876L5.9776659765625,11.276901752929687Q5.6249559765625,11.627921752929687,5.2722559765625,11.276901752929687L2.0193309765625,8.039541752929686Q1.9490569765624999,7.969601752929687,1.8574139765625,7.931771752929688Q1.7657706765625,7.893941752929687,1.6666259765625,7.893941752929687Q1.6173802765625,7.893941752929687,1.5690808765625,7.903551752929688Q1.5207809765625,7.9131517529296875,1.4752839765624999,7.932001752929687Q1.4297869765625,7.950841752929687,1.3888409765625,7.978201752929688Q1.3478949765625,8.005561752929687,1.3130729765625,8.040381752929687Q1.2782509765625,8.075211752929688,1.2508909765625,8.116151752929689Q1.2235319765625001,8.157101752929687,1.2046859765625,8.202591752929688Q1.1858409765625,8.248091752929687,1.1762329765625,8.296391752929686Q1.1666259765625,8.344691752929688,1.1666259765625,8.393941752929688Q1.1666259765625,8.493701752929688,1.2049159765625,8.585831752929687Q1.2432059765624999,8.677961752929686,1.3139209765625,8.748341752929687L1.3142329765625,8.748651752929687L4.5668459765625,11.985701752929687Q5.005745976562499,12.422501752929687,5.6249559765625,12.422501752929687Q6.2441759765625,12.422501752929687,6.6830759765625,11.985701752929687L14.6856259765625,4.021482752929687L14.6860259765625,4.0210717529296875L14.6860259765625,4.0210717529296875Z" fill-rule="evenodd" fill="#2ABB39" fill-opacity="1"/></g></g></g></svg>