<svg xmlns="http://www.w3.org/2000/svg" xmlns:xlink="http://www.w3.org/1999/xlink" fill="none" version="1.1" width="24" height="24" viewBox="0 0 24 24"><defs><clipPath id="master_svg0_287_2499"><path d="M0 0C0 0 0 0 0 0L24 0C24 0 24 0 24 0L24 24.000001907348633C24 24.000001907348633 24 24.000001907348633 24 24.000001907348633L0 24.000001907348633C0 24.000001907348633 0 24.000001907348633 0 24.000001907348633Z"/></clipPath></defs><g><g clip-path="url(#master_svg0_287_2499)"><g><path d="M11.999755859375,22.0001220703125Q12.245255859375,22.0001220703125,12.490455859375,21.9880220703125Q12.735655859375,21.9760220703125,12.979955859375,21.9519220703125Q13.224255859375,21.9279220703125,13.467055859375,21.8919220703125Q13.709855859375,21.8558220703125,13.950655859375,21.8079220703125Q14.191455859375,21.7601220703125,14.429555859375,21.7004220703125Q14.667655859375,21.6408220703125,14.902555859375,21.5695220703125Q15.137555859375,21.4982220703125,15.368655859375,21.4155220703125Q15.599755859375,21.3328220703125,15.826555859375,21.2389220703125Q16.053355859375,21.1449220703125,16.275255859375,21.0400220703125Q16.497255859375002,20.9350220703125,16.713755859375,20.8193220703125Q16.930255859375002,20.7036220703125,17.140755859375,20.5774220703125Q17.351355859374998,20.4512220703125,17.555455859375,20.3148220703125Q17.759555859375,20.1784220703125,17.956755859375,20.0322220703125Q18.153955859375,19.8859220703125,18.343655859375,19.7302220703125Q18.533455859375,19.5745220703125,18.715355859375,19.4096220703125Q18.897255859375,19.2447220703125,19.070855859375,19.0712220703125Q19.244355859375,18.8976220703125,19.409255859375,18.7157220703125Q19.574155859375,18.5338220703125,19.729855859375,18.3440220703125Q19.885555859375,18.1543220703125,20.031855859375,17.9571220703125Q20.178055859375,17.7599220703125,20.314455859375,17.5558220703125Q20.450855859375,17.351722070312498,20.577055859375,17.1411220703125Q20.703255859375,16.930622070312502,20.818955859375,16.7141220703125Q20.934655859375,16.497622070312502,21.039655859375,16.2756220703125Q21.144555859375,16.0537220703125,21.238555859375,15.8269220703125Q21.332455859375,15.6001220703125,21.415155859375,15.3690220703125Q21.497855859375,15.1379220703125,21.569155859375,14.9029220703125Q21.640455859375,14.6680220703125,21.700055859375,14.4299220703125Q21.759755859375,14.1918220703125,21.807555859375,13.9510220703125Q21.855455859375,13.7102220703125,21.891555859375,13.4674220703125Q21.927555859375,13.2246220703125,21.951555859375,12.9803220703125Q21.975655859375,12.7360220703125,21.987655859375,12.4908220703125Q21.999755859375,12.2456220703125,21.999755859375,12.0001220703125Q21.999755859375,11.7546320703125,21.987655859375,11.5094420703125Q21.975655859375,11.2642520703125,21.951555859375,11.0199520703125Q21.927555859375,10.7756420703125,21.891555859375,10.5328120703125Q21.855455859375,10.2899820703125,21.807555859375,10.0492120703125Q21.759755859375,9.8084420703125,21.700055859375,9.5703220703125Q21.640455859375,9.3321920703125,21.569155859375,9.0972720703125Q21.497855859375,8.8623620703125,21.415155859375,8.6312220703125Q21.332455859375,8.4000820703125,21.238555859375,8.1732820703125Q21.144555859375,7.9464820703125,21.039655859375,7.7245720703125Q20.934655859375,7.5026520703125,20.818955859375,7.2861520703125Q20.703255859375,7.0696520703125,20.577055859375,6.8590920703125Q20.450855859375,6.6485320703125,20.314455859375,6.4444220703125Q20.178055859375,6.2403020703125,20.031855859375,6.0431220703125Q19.885555859375,5.845952070312499,19.729855859375,5.6561920703125Q19.574155859375,5.4664220703125,19.409255859375,5.284532070312499Q19.244355859375,5.1026420703125,19.070855859375,4.929052070312499Q18.897255859375,4.7554720703125,18.715355859375,4.5906120703125Q18.533455859375,4.4257520703125,18.343655859375,4.2700120703125Q18.153955859375,4.1142820703125,17.956755859375,3.9680420703125Q17.759555859375,3.8218120703125003,17.555455859375,3.6854220703125Q17.351355859374998,3.5490420703125,17.140755859375,3.4228320703125Q16.930255859375002,3.2966320703125,16.713755859375,3.1809120703125Q16.497255859375002,3.0651920703125,16.275255859375,2.9602290703125Q16.053355859375,2.8552700703125,15.826555859375,2.7613260703125Q15.599755859375,2.6673830703125,15.368655859375,2.5846810703125Q15.137555859375,2.5019790703125,14.902555859375,2.4307180703125Q14.667655859375,2.3594580703125,14.429555859375,2.2998090703125Q14.191455859375,2.2401610703125,13.950655859375,2.1922690703125Q13.709855859375,2.1443770703125,13.467055859375,2.1083570703125Q13.224255859375,2.0723366703125,12.979955859375,2.0482747703125Q12.735655859375,2.0242129703125,12.490455859375,2.0121674703125Q12.245255859375,2.0001220703125,11.999755859375,2.0001220703125Q11.754265859375,2.0001220703125,11.509075859375,2.0121674703125Q11.263885859375,2.0242129703125,11.019585859375,2.0482747703125Q10.775275859375,2.0723366703125,10.532445859375,2.1083570703125Q10.289615859375,2.1443770703125,10.048845859375,2.1922690703125Q9.808075859375,2.2401610703125,9.569955859375,2.2998090703125Q9.331825859375,2.3594580703125,9.096905859375,2.4307180703125Q8.861995859375,2.5019790703125,8.630855859375,2.5846810703125Q8.399715859375,2.6673830703125,8.172915859375,2.7613260703125Q7.946115859375,2.8552700703125,7.724205859375,2.9602290703125Q7.502285859375,3.0651920703125,7.285785859375,3.1809120703125Q7.069285859375,3.2966320703125,6.858725859375,3.4228320703125Q6.648165859375,3.5490420703125,6.444055859375,3.6854220703125Q6.239935859375,3.8218120703125003,6.042755859375,3.9680420703125Q5.845585859374999,4.1142820703125,5.655825859375,4.2700120703125Q5.466055859375,4.4257520703125,5.284165859374999,4.5906120703125Q5.102275859375,4.7554720703125,4.928685859374999,4.929052070312499Q4.755105859375,5.1026420703125,4.590245859375,5.284532070312499Q4.425385859375,5.4664220703125,4.269645859375,5.6561920703125Q4.113915859375,5.845952070312499,3.967675859375,6.0431220703125Q3.8214458593750003,6.2403020703125,3.685055859375,6.4444220703125Q3.548675859375,6.6485320703125,3.422465859375,6.8590920703125Q3.296265859375,7.0696520703125,3.180545859375,7.2861520703125Q3.064825859375,7.5026520703125,2.959862859375,7.7245720703125Q2.854903859375,7.9464820703125,2.760959859375,8.1732820703125Q2.667016859375,8.4000820703125,2.584314859375,8.6312220703125Q2.501612859375,8.8623620703125,2.430351859375,9.0972720703125Q2.359091859375,9.3321920703125,2.299442859375,9.5703220703125Q2.239794859375,9.8084420703125,2.191902859375,10.0492120703125Q2.144010859375,10.2899820703125,2.107990859375,10.5328120703125Q2.071970459375,10.7756420703125,2.047908559375,11.0199520703125Q2.023846759375,11.2642520703125,2.011801259375,11.5094420703125Q1.999755859375,11.7546320703125,1.999755859375,12.0001220703125Q1.999755859375,12.2456220703125,2.011801259375,12.4908220703125Q2.023846759375,12.7360220703125,2.047908559375,12.9803220703125Q2.071970459375,13.2246220703125,2.107990859375,13.4674220703125Q2.144010859375,13.7102220703125,2.191902859375,13.9510220703125Q2.239794859375,14.1918220703125,2.299442859375,14.4299220703125Q2.359091859375,14.6680220703125,2.430351859375,14.9029220703125Q2.501612859375,15.1379220703125,2.584314859375,15.3690220703125Q2.667016859375,15.6001220703125,2.760959859375,15.8269220703125Q2.854903859375,16.0537220703125,2.959862859375,16.2756220703125Q3.064825859375,16.497622070312502,3.180545859375,16.7141220703125Q3.296265859375,16.930622070312502,3.422465859375,17.1411220703125Q3.548675859375,17.351722070312498,3.685055859375,17.5558220703125Q3.8214458593750003,17.7599220703125,3.967675859375,17.9571220703125Q4.113915859375,18.1543220703125,4.269645859375,18.3440220703125Q4.425385859375,18.5338220703125,4.590245859375,18.7157220703125Q4.755105859375,18.8976220703125,4.928685859374999,19.0712220703125Q5.102275859375,19.2447220703125,5.284165859374999,19.4096220703125Q5.466055859375,19.5745220703125,5.655825859375,19.7302220703125Q5.845585859374999,19.8859220703125,6.042755859375,20.0322220703125Q6.239935859375,20.1784220703125,6.444055859375,20.3148220703125Q6.648165859375,20.4512220703125,6.858725859375,20.5774220703125Q7.069285859375,20.7036220703125,7.285785859375,20.8193220703125Q7.502285859375,20.9350220703125,7.724205859375,21.0400220703125Q7.946115859375,21.1449220703125,8.172915859375,21.2389220703125Q8.399715859375,21.3328220703125,8.630855859375,21.4155220703125Q8.861995859375,21.4982220703125,9.096905859375,21.5695220703125Q9.331825859375,21.6408220703125,9.569955859375,21.7004220703125Q9.808075859375,21.7601220703125,10.048845859375,21.8079220703125Q10.289615859375,21.8558220703125,10.532445859375,21.8919220703125Q10.775275859375,21.9279220703125,11.019585859375,21.9519220703125Q11.263885859375,21.9760220703125,11.509075859375,21.9880220703125Q11.754265859375,22.0001220703125,11.999755859375,22.0001220703125ZM7.853615859375,7.1465020703125L11.999955859375,11.2928920703125L16.146055859375,7.1468820703125L16.146455859375,7.1464420703125Q16.216755859375,7.0761220703125,16.308655859375,7.0380620703125Q16.400555859375,7.0000020703125,16.499955859375,7.0000020703125Q16.549255859375002,7.0000020703125,16.597555859375,7.0096020703125Q16.645855859375,7.0192120703125,16.691355859375,7.0380620703125Q16.736855859374998,7.0569020703125,16.777755859375,7.0842620703125Q16.818755859375003,7.1116220703125,16.853555859375,7.1464420703125Q16.888355859375,7.1812720703125,16.915755859375,7.2222120703125Q16.943055859375,7.2631620703125,16.961955859375,7.3086620703125Q16.980755859375,7.3541520703125,16.990355859375,7.4024520703125Q16.999955859375,7.4507520703125,16.999955859375,7.5000020703125Q16.999955859375,7.5994520703125,16.961955859375,7.6913420703125Q16.923855859375,7.7832320703125,16.853555859375,7.8535520703125L12.707155859375,12.0000020703125L16.853555859375,16.1464220703125Q16.923855859375,16.2168220703125,16.961955859375,16.308622070312502Q16.999955859375,16.400522070312498,16.999955859375,16.5000220703125Q16.999955859375,16.5492220703125,16.990355859375,16.5975220703125Q16.980755859375,16.645822070312498,16.961955859375,16.691322070312502Q16.943055859375,16.7368220703125,16.915755859375,16.7778220703125Q16.888355859375,16.8187220703125,16.853555859375,16.8535220703125Q16.818755859375003,16.8884220703125,16.777755859375,16.915722070312498Q16.736855859374998,16.943122070312498,16.691355859375,16.9619220703125Q16.645855859375,16.9808220703125,16.597555859375,16.990422070312498Q16.549255859375002,17.0000220703125,16.499955859375,17.0000220703125Q16.400555859375,17.0000220703125,16.308655859375,16.9619220703125Q16.216755859375,16.9239220703125,16.146455859375,16.8535220703125L11.999955859375,12.7071220703125L7.853555859375,16.8535220703125Q7.783225859375,16.9239220703125,7.691345859375,16.9619220703125Q7.599455859375,17.0000220703125,7.499995859375,17.0000220703125Q7.450755859375,17.0000220703125,7.402455859375,16.990422070312498Q7.354155859375,16.9808220703125,7.308655859375,16.9619220703125Q7.263155859375,16.943122070312498,7.222215859375,16.915722070312498Q7.181265859375,16.8884220703125,7.146445859375,16.8535220703125Q7.111625859375,16.8187220703125,7.084265859375,16.7778220703125Q7.056905859375,16.7368220703125,7.038055859375,16.691322070312502Q7.019215859375,16.645822070312498,7.009605859375,16.5975220703125Q6.999995859375,16.5492220703125,6.999995859375,16.5000220703125Q6.999995859375,16.400522070312498,7.038055859375,16.308622070312502Q7.076115859375,16.2168220703125,7.146445859375,16.1464220703125L7.146885859375,16.146022070312497L11.292895859375,12.0000020703125L7.146445859375,7.8535520703125Q7.076115859375,7.7832320703125,7.038055859375,7.6913420703125Q6.999995859375,7.5994520703125,6.999995859375,7.5000020703125Q6.999995859375,7.4507520703125,7.009605859375,7.4024520703125Q7.019215859375,7.3541520703125,7.038055859375,7.3086620703125Q7.056905859375,7.2631620703125,7.084265859375,7.2222120703125Q7.111625859375,7.1812720703125,7.146445859375,7.1464420703125Q7.181265859375,7.1116220703125,7.222215859375,7.0842620703125Q7.263155859375,7.0569020703125,7.308655859375,7.0380620703125Q7.354155859375,7.0192120703125,7.402455859375,7.0096020703125Q7.450755859375,7.0000020703125,7.499995859375,7.0000020703125Q7.599455859375,7.0000020703125,7.691345859375,7.0380620703125Q7.783225859375,7.0761220703125,7.853555859375,7.1464420703125L7.853615859375,7.1465020703125Z" fill-rule="evenodd" fill="#FFFFFF" fill-opacity="0.30000001192092896"/></g></g></g></svg>