<svg xmlns="http://www.w3.org/2000/svg" xmlns:xlink="http://www.w3.org/1999/xlink" fill="none" version="1.1" width="17" height="9" viewBox="0 0 17 9"><g><path d="M0.853613,0.14650600000000003L8.28787,7.58076Q8.393930000000001,7.68683,8.5,7.68683Q8.60606,7.68683,8.71213,7.58076L16.146,0.146874L16.1464,0.146447Q16.2168,0.07612000000000002,16.3087,0.03805999999999998Q16.4005,0,16.5,0Q16.5492,0,16.5975,0.009606999999999977Q16.6458,0.019214999999999982,16.6913,0.03805999999999998Q16.7368,0.05690600000000001,16.7778,0.08426499999999998Q16.8187,0.11162499999999997,16.8536,0.146447Q16.8884,0.181269,16.9157,0.222215Q16.9431,0.263161,16.9619,0.308658Q16.9808,0.354155,16.9904,0.4024549Q17,0.4507543,17,0.5Q17,0.5994562,16.9619,0.691342Q16.9239,0.783227,16.8536,0.853553L9.41924,8.28787Q9.03848,8.66863,8.5,8.66863Q7.96152,8.66863,7.58076,8.28787L0.146447,0.853553Q0.07612000000000002,0.783227,0.03805999999999998,0.691342Q0,0.5994562,0,0.5Q0,0.4507543,0.009606999999999977,0.4024549Q0.019214999999999982,0.354155,0.03805999999999998,0.308658Q0.05690600000000001,0.263161,0.08426499999999998,0.222215Q0.11162499999999997,0.181269,0.146447,0.146447Q0.181269,0.11162499999999997,0.222215,0.08426499999999998Q0.263161,0.05690600000000001,0.308658,0.03805999999999998Q0.354155,0.019214999999999982,0.4024549,0.009606999999999977Q0.4507543,0,0.5,0Q0.5994562,0,0.691342,0.03805999999999998Q0.783227,0.07612000000000002,0.853553,0.146447L0.853613,0.14650600000000003Z" fill-rule="evenodd" fill="#FFFFFF" fill-opacity="1"/></g></svg>