<svg xmlns="http://www.w3.org/2000/svg" xmlns:xlink="http://www.w3.org/1999/xlink" fill="none" version="1.1" width="15.774648666381836" height="16" viewBox="0 0 15.774648666381836 16"><defs><clipPath id="master_svg0_287_1773"><rect x="0" y="16" width="15.774648666381836" height="16" rx="0"/></clipPath></defs><g transform="matrix(1,0,0,-1,0,32)" clip-path="url(#master_svg0_287_1773)"><g><path d="M11.8034788671875,26.35091L11.8036088671875,26.35104Q11.8740888671875,26.42252,11.9666888671875,26.46126Q12.059288867187501,26.5,12.159658867187499,26.5Q12.2089088671875,26.5,12.2572088671875,26.490389999999998Q12.3055088671875,26.48078,12.3510088671875,26.46194Q12.3964988671875,26.443089999999998,12.4374488671875,26.41573Q12.4783888671875,26.388370000000002,12.5132188671875,26.35355Q12.5480388671875,26.318730000000002,12.5753988671875,26.27778Q12.6027588671875,26.23684,12.6215988671875,26.19134Q12.6404488671875,26.14584,12.6500588671875,26.09755Q12.6596588671875,26.04925,12.6596588671875,26Q12.6596588671875,25.90146,12.6222788671875,25.810299999999998Q12.5848888671875,25.71913,12.5157188671875,25.64896L12.5153988671875,25.64864L9.2841588671875,22.37124Q8.8435588671875,21.9243509,8.2159988671875,21.9243508Q7.5884388671875005,21.9243508,7.1478488671875,22.37124L3.9162868671875,25.64896Q3.8471078671875,25.71913,3.8097238671875,25.810299999999998Q3.7723388671875,25.90146,3.7723388671875,26Q3.7723388671875,26.04925,3.7819458671875,26.09755Q3.7915538671875,26.14584,3.8103988671874998,26.19134Q3.8292448671875,26.23684,3.8566038671875,26.27778Q3.8839638671875,26.318730000000002,3.9187858671875,26.35355Q3.9536078671875,26.388370000000002,3.9945538671875,26.41573Q4.0354998671875,26.443089999999998,4.0809968671875,26.46194Q4.1264938671875,26.48078,4.1747937671875,26.490389999999998Q4.2230931671875,26.5,4.2723388671875,26.5Q4.3727168671875,26.5,4.4653178671875,26.46126Q4.5579178671875,26.42252,4.6283908671875,26.35104L4.6285208671875,26.35091L7.8599488671875,23.07331Q8.0068188671875,22.924351,8.2159988671875,22.924351Q8.4251888671875,22.924351,8.572048867187501,23.07331L11.8034788671875,26.35091Z" fill-rule="evenodd" fill="#FFFFFF" fill-opacity="0.30000001192092896" style="mix-blend-mode:passthrough"/></g></g></svg>