<svg xmlns="http://www.w3.org/2000/svg" xmlns:xlink="http://www.w3.org/1999/xlink" fill="none" version="1.1" width="32" height="32" viewBox="0 0 32 32"><defs><clipPath id="master_svg0_287_2381/287_2339"><rect x="4" y="4" width="24" height="24" rx="0"/></clipPath></defs><g><g><g><ellipse cx="16" cy="16" rx="14" ry="14" fill="#F48123" fill-opacity="1"/></g><g clip-path="url(#master_svg0_287_2381/287_2339)"><g><path d="M18.353613,13.646506L19.92929,15.22218Q20.25147,15.54436,20.25147,16Q20.25147,16.45563,19.92929,16.77782L18.353741,18.353369999999998L18.353553,18.35355Q18.283227,18.42388,18.191342,18.46194Q18.0994562,18.5,18,18.5Q17.9507543,18.5,17.9024549,18.490389999999998Q17.854155,18.48078,17.808658,18.46194Q17.763161,18.443089999999998,17.722215,18.41573Q17.681269,18.388370000000002,17.646447,18.35355Q17.611625,18.318730000000002,17.584265,18.27778Q17.556906,18.23684,17.53806,18.19134Q17.519215,18.14584,17.509607,18.09755Q17.5,18.04925,17.5,18Q17.5,17.90054,17.53806,17.80866Q17.57612,17.71677,17.646447,17.64645L19.22218,16.07071Q19.29289,16,19.22218,15.92929L17.646447,14.353553Q17.57612,14.283227,17.53806,14.191342Q17.5,14.0994562,17.5,14Q17.5,13.9507543,17.509607,13.9024549Q17.519215,13.854155,17.53806,13.808658Q17.556906,13.763161,17.584265,13.722215Q17.611625,13.681269,17.646447,13.646447Q17.681269,13.611625,17.722215,13.584265Q17.763161,13.556906,17.808658,13.53806Q17.854155,13.519214999999999,17.9024549,13.509607Q17.9507543,13.5,18,13.5Q18.0994562,13.5,18.191342,13.53806Q18.283227,13.57612,18.353553,13.646447L18.353613,13.646506Z" fill-rule="evenodd" fill="#FFFFFF" fill-opacity="1" style="mix-blend-mode:passthrough"/></g><g><path d="M14.35355,14.353553Q14.42388,14.283227,14.46194,14.191342Q14.5,14.0994562,14.5,14Q14.5,13.9507543,14.49039,13.9024549Q14.48078,13.854155,14.46194,13.808658Q14.44309,13.763161,14.41573,13.722215Q14.38838,13.681269,14.35355,13.646447Q14.31873,13.611625,14.27779,13.584265Q14.23684,13.556906,14.19134,13.53806Q14.14584,13.519214999999999,14.09754,13.509607Q14.04925,13.5,14,13.5Q13.90054,13.5,13.80866,13.53806Q13.71677,13.57612,13.64645,13.646447L12.0707108,15.22218Q11.748528,15.54436,11.748528,16Q11.748528,16.45564,12.0707108,16.77782L13.64645,18.35355Q13.71677,18.42388,13.80866,18.46194Q13.90054,18.5,14,18.5Q14.04925,18.5,14.09754,18.490389999999998Q14.14584,18.48078,14.19134,18.46194Q14.23684,18.443089999999998,14.27778,18.41573Q14.31873,18.388370000000002,14.35355,18.35355Q14.38838,18.318730000000002,14.41573,18.27778Q14.44309,18.23684,14.46194,18.19134Q14.48078,18.14584,14.49039,18.09755Q14.5,18.04925,14.5,18Q14.5,17.90054,14.46194,17.80866Q14.42388,17.71677,14.35355,17.64645L12.777818,16.07071Q12.748528,16.04142,12.748528,16Q12.748528,15.95858,12.777817,15.92929L14.3534,14.35371L14.35355,14.353553L14.35355,14.353553Z" fill-rule="evenodd" fill="#FFFFFF" fill-opacity="1" style="mix-blend-mode:passthrough"/></g></g></g></g></svg>