<svg xmlns="http://www.w3.org/2000/svg" xmlns:xlink="http://www.w3.org/1999/xlink" fill="none" version="1.1" width="24" height="24" viewBox="0 0 24 24"><defs><clipPath id="master_svg0_287_2527"><rect x="0" y="0" width="24" height="24" rx="0"/></clipPath></defs><g clip-path="url(#master_svg0_287_2527)"><g><path d="M4.57538,4.57538Q1.5,7.65076,1.5,12Q1.5,16.3492,4.57538,19.4246Q7.65075,22.5,12,22.5Q16.3492,22.5,19.4246,19.4246Q22.5,16.3492,22.5,12Q22.5,7.65075,19.4246,4.57538Q16.3492,1.5,12,1.5Q7.65075,1.5,4.57538,4.57538ZM9.80171,2.73691Q7.25306,3.31191,5.28248,5.28248Q4.699059999999999,5.86591,4.23797,6.5L8.13345,6.5Q8.37452,5.57526,8.707329999999999,4.74324Q9.20346,3.5029,9.80171,2.73691ZM9.16911,6.5Q9.37177,5.77472,9.63581,5.11463Q10.68166,2.5,12,2.5Q13.3183,2.5,14.3642,5.11463Q14.6282,5.77472,14.8309,6.5L9.16911,6.5ZM7.90493,7.5L3.60399,7.5Q2.6124099999999997,9.31555,2.51144,11.5L7.50427,11.5Q7.5416,9.335270000000001,7.90493,7.5ZM8.50442,11.5Q8.54335,9.317820000000001,8.92535,7.5L15.0747,7.5Q15.4566,9.317820000000001,15.4956,11.5L8.50442,11.5ZM7.50427,12.5L2.51144,12.5Q2.6124099999999997,14.6845,3.60399,16.5L7.90493,16.5Q7.5416,14.6647,7.50427,12.5ZM8.92535,16.5Q8.54335,14.6822,8.50442,12.5L15.4956,12.5Q15.4566,14.6822,15.0747,16.5L8.92535,16.5ZM8.13345,17.5L4.23797,17.5Q4.699059999999999,18.1341,5.28248,18.7175Q7.25306,20.6881,9.8017,21.2631Q9.20346,20.4971,8.707329999999999,19.2568Q8.37452,18.4247,8.13345,17.5ZM14.1983,21.2631Q16.7469,20.6881,18.7175,18.7175Q19.3009,18.1341,19.762,17.5L15.8665,17.5Q15.6255,18.4247,15.2927,19.2568Q14.7965,20.4971,14.1983,21.2631ZM14.8309,17.5Q14.6282,18.2253,14.3642,18.8854Q13.3183,21.5,12,21.5Q10.68165,21.5,9.63581,18.8854Q9.37177,18.2253,9.16911,17.5L14.8309,17.5ZM16.095100000000002,16.5L20.396,16.5Q21.3876,14.6845,21.4886,12.5L16.4957,12.5Q16.458399999999997,14.6647,16.095100000000002,16.5ZM16.4957,11.5L21.4886,11.5Q21.3876,9.31555,20.396,7.5L16.095100000000002,7.5Q16.458399999999997,9.335270000000001,16.4957,11.5ZM15.8665,6.5L19.762,6.5Q19.3009,5.86591,18.7175,5.28248Q16.7469,3.31191,14.1983,2.73691Q14.7965,3.5029,15.2927,4.74324Q15.6255,5.57526,15.8665,6.5Z" fill-rule="evenodd" fill="#FFFFFF" fill-opacity="1" style="mix-blend-mode:passthrough"/></g></g></svg>