<svg xmlns="http://www.w3.org/2000/svg" xmlns:xlink="http://www.w3.org/1999/xlink" fill="none" version="1.1" width="24" height="24" viewBox="0 0 24 24"><defs><clipPath id="master_svg0_287_2447"><rect x="0" y="0" width="24" height="24" rx="0"/></clipPath></defs><g clip-path="url(#master_svg0_287_2447)"><g><path d="M0,18.0702C0,18.7239,0.403773,19,0.831757,19C1.02039,19,1.20211,18.9476,1.37,18.8552L11.4505,12.76103C11.8319,12.5366,12.0274,12.3281,12.0274,12.003499999999999C12.0274,11.67891,11.8319,11.470410000000001,11.4505,11.245989999999999L1.37,5.151815C1.20211,5.0566872,1.02039,5,0.831757,5C0.403773,5,0,5.280332,0,5.927193L0,18.0702ZM11.9794,18.0702C11.9794,18.7239,12.3805,19,12.8112,19C12.9902,19,13.1816,18.9476,13.3425,18.8552L23.4202,12.76103C23.8114,12.5366,24,12.3281,24,12.003499999999999C24,11.67891,23.8114,11.470410000000001,23.4202,11.245989999999999L13.3425,5.151815C13.1816,5.0566872,12.9902,5,12.8112,5C12.3805,5,11.9794,5.280332,11.9794,5.927193L11.9794,18.0702Z" fill="#FFFFFF" fill-opacity="0.699999988079071" style="mix-blend-mode:passthrough"/></g></g></svg>