<svg xmlns="http://www.w3.org/2000/svg" xmlns:xlink="http://www.w3.org/1999/xlink" fill="none" version="1.1" width="24" height="24" viewBox="0 0 24 24"><defs><clipPath id="master_svg0_287_2555"><rect x="0" y="0" width="24" height="24" rx="0"/></clipPath></defs><g clip-path="url(#master_svg0_287_2555)"><g><path d="M19.5,5.46665Q19.5,4.6520399999999995,18.924,4.07602Q18.348,3.5,17.5333,3.5L12.5,3.5L12.5,20.5L16,20.5Q16.0492,20.5,16.0975,20.5096Q16.1458,20.5192,16.1913,20.5381Q16.236800000000002,20.5569,16.2778,20.5843Q16.3187,20.6116,16.3536,20.6464Q16.3884,20.6813,16.4157,20.7222Q16.4431,20.7632,16.4619,20.8087Q16.480800000000002,20.8542,16.4904,20.9025Q16.5,20.9508,16.5,21Q16.5,21.0492,16.4904,21.0975Q16.480800000000002,21.1458,16.4619,21.1913Q16.4431,21.2368,16.4157,21.2778Q16.3884,21.3187,16.3536,21.3536Q16.3187,21.3884,16.2778,21.4157Q16.236800000000002,21.4431,16.1913,21.4619Q16.1458,21.4808,16.0975,21.4904Q16.0492,21.5,16,21.5L8,21.5Q7.95075,21.5,7.90245,21.4904Q7.85415,21.4808,7.80866,21.4619Q7.76316,21.4431,7.72221,21.4157Q7.68127,21.3884,7.64645,21.3536Q7.61162,21.3187,7.58426,21.2778Q7.55691,21.2368,7.53806,21.1913Q7.51921,21.1458,7.50961,21.0975Q7.5,21.0492,7.5,21Q7.5,20.9508,7.50961,20.9025Q7.51921,20.8542,7.53806,20.8087Q7.55691,20.7632,7.58426,20.7222Q7.61162,20.6813,7.64645,20.6464Q7.68127,20.6116,7.72221,20.5843Q7.76316,20.5569,7.80866,20.5381Q7.85415,20.5192,7.90245,20.5096Q7.95075,20.5,8,20.5L11.5,20.5L11.5,3.5L6.46665,3.5Q5.6520399999999995,3.5,5.07602,4.07602Q4.5,4.6520399999999995,4.5,5.46665Q4.5,5.5159,4.490393,5.56419Q4.480785,5.61249,4.46194,5.65799Q4.443094,5.70349,4.415735,5.7444299999999995Q4.388375,5.78538,4.353553,5.8202Q4.318731,5.85503,4.277785,5.8823799999999995Q4.236839,5.90974,4.191342,5.92859Q4.145845,5.94744,4.097545,5.95704Q4.049246,5.96665,4,5.96665Q3.950754,5.96665,3.902455,5.95704Q3.854155,5.94744,3.808658,5.92859Q3.763161,5.90974,3.722215,5.8823799999999995Q3.681269,5.85503,3.646447,5.8202Q3.611625,5.78538,3.5842652,5.7444299999999995Q3.5569057,5.70349,3.5380602,5.65799Q3.5192147,5.61249,3.50960736,5.56419Q3.5,5.5159,3.5,5.46665Q3.5,4.23782,4.368912,3.368912Q5.23782,2.5,6.46665,2.5L17.5333,2.5Q18.7622,2.5,19.6311,3.368912Q20.5,4.23782,20.5,5.46665Q20.5,5.5159,20.4904,5.56419Q20.4808,5.61249,20.4619,5.65799Q20.4431,5.70349,20.4157,5.7444299999999995Q20.3884,5.78538,20.3536,5.8202Q20.3187,5.85503,20.2778,5.8823799999999995Q20.2368,5.90974,20.1913,5.92859Q20.1458,5.94744,20.0975,5.95704Q20.0492,5.96665,20,5.96665Q19.9508,5.96665,19.9025,5.95704Q19.8542,5.94744,19.8087,5.92859Q19.7632,5.90974,19.7222,5.8823799999999995Q19.6813,5.85503,19.6464,5.8202Q19.6116,5.78538,19.5843,5.7444299999999995Q19.5569,5.70349,19.5381,5.65799Q19.5192,5.61249,19.5096,5.56419Q19.5,5.5159,19.5,5.46665Z" fill-rule="evenodd" fill="#F48123" fill-opacity="1" style="mix-blend-mode:passthrough"/></g></g></svg>