<svg xmlns="http://www.w3.org/2000/svg" xmlns:xlink="http://www.w3.org/1999/xlink" fill="none" version="1.1" width="24" height="24" viewBox="0 0 24 24"><defs><clipPath id="master_svg0_287_2441"><rect x="0" y="0" width="24" height="24" rx="0"/></clipPath></defs><g clip-path="url(#master_svg0_287_2441)"><g><path d="M17.9807,4.70856896484375Q13.7338,2.49993896484375,12,2.49993896484375Q10.26619,2.49993896484375,6.0193,4.70856896484375Q1.4999980000000002,7.05886896484375,1.4999989999999999,8.43259896484375Q1.5,9.806088964843749,6.01413,12.22124896484375Q10.2732,14.49993896484375,12,14.49993896484375Q13.7268,14.49993896484375,17.9859,12.22124896484375Q22.5,9.80609896484375,22.5,8.43259896484375Q22.5,7.05886896484375,17.9807,4.70856896484375ZM6.4807,5.59575896484375Q10.51068,3.49993896484375,12,3.49993896484375Q13.4893,3.49993996484375,17.5193,5.59575896484375Q19.3135,6.528858964843749,20.4208,7.35062896484375Q21.5,8.151618964843749,21.5,8.43259896484375Q21.5,8.717158964843751,20.4166,9.53871896484375Q19.3066,10.38051896484375,17.5141,11.33950896484375Q13.4761,13.49993896484375,12,13.49993896484375Q10.5239,13.49993896484375,6.48587,11.33950896484375Q4.69342,10.380508964843749,3.58337,9.53871896484375Q2.5,8.717158964843751,2.499999,8.43259896484375Q2.499999,8.151618964843749,3.57924,7.35062896484375Q4.68649,6.528858964843749,6.4807,5.59575896484375Z" fill-rule="evenodd" fill="#FFFFFF" fill-opacity="1"/></g><g><path d="M2.2650040000000002,15.076004Q10.1434,20.00012,12,20.00012Q13.8566,20.00012,21.735,15.076004Q21.8566,15,22,15Q22.0492,15,22.0975,15.009607Q22.1458,15.019214999999999,22.1913,15.03806Q22.2368,15.056906,22.2778,15.084265Q22.3187,15.111625,22.3536,15.146447Q22.3884,15.181269,22.4157,15.222215Q22.4431,15.263161,22.4619,15.308658Q22.4808,15.354155,22.4904,15.4024549Q22.5,15.4507543,22.5,15.5Q22.5,15.5636249,22.4841,15.625222Q22.4681,15.68682,22.4373,15.742463Q22.4064,15.798107,22.3626,15.84425Q22.3188,15.890393,22.2648,15.924095L22.263,15.925258Q14.1431,21.00012,12,21.00012Q9.8566,21.00012,1.734996,15.923996Q1.856599,16,2,16Q2.0492457,16,2.0975451,15.990393Q2.145845,15.980785000000001,2.191342,15.96194Q2.236839,15.943094,2.277785,15.915735Q2.318731,15.888375,2.353553,15.853553Q2.388375,15.818731,2.415735,15.777785Q2.443094,15.736839,2.4619400000000002,15.691342Q2.480785,15.645845,2.490393,15.5975451Q2.5,15.5492457,2.5,15.5Q2.5,15.4363986,2.484077,15.374823Q2.468154,15.313247,2.437323,15.257618Q2.406491,15.20199,2.362714,15.155851Q2.318938,15.109713,2.2650040000000002,15.076004Q2.143401,15,2,15Q1.9507543,15,1.9024549,15.009607Q1.854155,15.019214999999999,1.8086579999999999,15.03806Q1.763161,15.056906,1.722215,15.084265Q1.681269,15.111625,1.646447,15.146447Q1.611625,15.181269,1.584265,15.222215Q1.5569060000000001,15.263161,1.53806,15.308658Q1.519215,15.354155,1.509607,15.4024549Q1.5,15.4507543,1.5,15.5Q1.5,15.5636014,1.515923,15.625177Q1.531846,15.686753,1.5626769999999999,15.742382Q1.593509,15.79801,1.637286,15.844149Q1.681062,15.890287,1.734996,15.923996L2.2650040000000002,15.076004Z" fill-rule="evenodd" fill="#FFFFFF" fill-opacity="1"/></g></g></svg>