<svg xmlns="http://www.w3.org/2000/svg" xmlns:xlink="http://www.w3.org/1999/xlink" fill="none" version="1.1" width="16" height="16" viewBox="0 0 16 16"><defs><clipPath id="master_svg0_157_7700"><path d="M0 0C0 0 0 0 0 0L16 0C16 0 16 0 16 0L16 16C16 16 16 16 16 16L0 16C0 16 0 16 0 16Z"/></clipPath></defs><g clip-path="url(#master_svg0_157_7700)"><g></g><g><path d="M13.06779609375,2.932321953125Q10.96869609375,0.833251953125,8.00016609375,0.833251953125Q7.95091609375,0.833251953125,7.90261609375,0.8428589531249999Q7.85431609375,0.852466953125,7.80881609375,0.871311953125Q7.76332609375,0.890157953125,7.72237609375,0.917516953125Q7.68143609375,0.944876953125,7.64660609375,0.979698953125Q7.61178609375,1.014520953125,7.58442609375,1.055466953125Q7.55706609375,1.096412953125,7.53822609375,1.1419099531249999Q7.51937609375,1.187406953125,7.50976609375,1.235706853125Q7.50016609375,1.284006253125,7.50016609375,1.333251953125Q7.50016609375,1.382497653125,7.50976609375,1.430797053125Q7.51937609375,1.479096953125,7.53822609375,1.5245939531250001Q7.55706609375,1.570090953125,7.58442609375,1.611036953125Q7.61178609375,1.651982953125,7.64660609375,1.686804953125Q7.68143609375,1.721626953125,7.72237609375,1.748986953125Q7.76332609375,1.7763459531249999,7.80881609375,1.795191953125Q7.85431609375,1.814036953125,7.90261609375,1.823644953125Q7.95091609375,1.833251953125,8.00016609375,1.833251953125Q10.55448609375,1.833251953125,12.36069609375,3.639421953125Q14.16679609375,5.445601953125,14.16679609375,7.999921953125Q14.16679609375,10.554241953125,12.36069609375,12.360451953125Q10.55447609375,14.166551953125,8.00016609375,14.166551953125Q5.44584609375,14.166551953125,3.63966609375,12.360451953125Q1.8338020937500001,10.554541953125,1.83349509375,8.000781953125L1.83349509375,7.999921953125Q1.83349509375,7.950671953125,1.82388809375,7.902371953125Q1.81428109375,7.854071953125,1.79543509375,7.808571953125Q1.7765900937499999,7.763081953125,1.74923009375,7.722131953125Q1.72187109375,7.681191953125,1.68704909375,7.646361953125Q1.65222709375,7.611541953125,1.61128109375,7.584181953125Q1.57033509375,7.556821953125,1.5248380937500001,7.537981953125Q1.47934109375,7.519131953125,1.43104119375,7.509521953125Q1.38274179375,7.499921953125,1.33349609375,7.499921953125Q1.28425039375,7.499921953125,1.23595099375,7.509521953125Q1.18765109375,7.519131953125,1.1421540937499999,7.537981953125Q1.09665709375,7.556821953125,1.05571109375,7.584181953125Q1.01476509375,7.611541953125,0.97994309375,7.646361953125Q0.94512109375,7.681191953125,0.91776109375,7.722131953125Q0.89040209375,7.763081953125,0.87155609375,7.808571953125Q0.85271109375,7.854071953125,0.8431030937499999,7.902371953125Q0.83349609375,7.950671953125,0.83349609375,7.999921953125Q0.83349609375,10.968451953125,2.93256609375,13.067551953125Q5.03163609375,15.166551953125,8.00016609375,15.166551953125Q10.96869609375,15.166551953125,13.06779609375,13.067551953125Q15.16679609375,10.968451953125,15.16679609375,7.999921953125Q15.16679609375,5.031391953125,13.06779609375,2.932321953125Z" fill-rule="evenodd" fill="#FFFFFF" fill-opacity="0.5"/></g><g><path d="M4.818022,11.18198Q6.1360399999999995,12.5,8,12.5Q8.04925,12.5,8.09755,12.49039Q8.14584,12.48078,8.19134,12.46194Q8.23684,12.44309,8.27778,12.41573Q8.31873,12.38837,8.35355,12.35355Q8.38837,12.31873,8.41573,12.27778Q8.44309,12.23684,8.46194,12.19134Q8.48078,12.14584,8.49039,12.09754Q8.5,12.04924,8.5,12Q8.5,11.95075,8.49039,11.90245Q8.48078,11.85415,8.46194,11.80866Q8.44309,11.76316,8.41573,11.72221Q8.38837,11.68127,8.35355,11.64645Q8.31873,11.61162,8.27778,11.58426Q8.23684,11.556899999999999,8.19134,11.53806Q8.14584,11.519210000000001,8.09755,11.50961Q8.04925,11.5,8,11.5Q6.55026,11.5,5.52513,10.47487Q4.5,9.44974,4.5,8Q4.5,6.55026,5.52513,5.52513Q6.55026,4.5,8,4.5Q9.44974,4.5,10.47487,5.52513Q11.5,6.55026,11.5,8Q11.5,8.04925,11.50961,8.09755Q11.519210000000001,8.14584,11.53806,8.19134Q11.556899999999999,8.23684,11.58426,8.27778Q11.61162,8.31873,11.64645,8.35355Q11.68127,8.38837,11.72221,8.41573Q11.76316,8.44309,11.80866,8.46194Q11.85415,8.48078,11.90245,8.49039Q11.95075,8.5,12,8.5Q12.04924,8.5,12.09754,8.49039Q12.14584,8.48078,12.19134,8.46194Q12.23684,8.44309,12.27778,8.41573Q12.31873,8.38837,12.35355,8.35355Q12.38837,8.31873,12.41573,8.27778Q12.44309,8.23684,12.46194,8.19134Q12.48078,8.14584,12.49039,8.09755Q12.5,8.04925,12.5,8Q12.5,6.1360399999999995,11.18198,4.818022Q9.863959999999999,3.5,8,3.5Q6.1360399999999995,3.5,4.818022,4.818022Q3.5,6.1360399999999995,3.5,8Q3.5,9.863959999999999,4.818022,11.18198Z" fill-rule="evenodd" fill="#FFFFFF" fill-opacity="0.699999988079071"/></g></g></svg>