<svg xmlns="http://www.w3.org/2000/svg" xmlns:xlink="http://www.w3.org/1999/xlink" fill="none" version="1.1" width="24" height="24" viewBox="0 0 24 24"><defs><clipPath id="master_svg0_287_2475"><rect x="0" y="0" width="24" height="24" rx="0"/></clipPath></defs><g><g clip-path="url(#master_svg0_287_2475)"><g><path d="M6.05448,15.699C6.75662,15.699,7.2521,15.5452,7.77901,15.0255L9.79073,13.0054C10.4247,12.3785,10.4247,11.6243,9.79073,10.99006L7.77901,8.97739C7.2521,8.450230000000001,6.75662,8.30097,6.05448,8.30097L3.00014,8.30097C2.012448,8.30097,1.5,8.79052,1.5,9.7605L1.5,14.2498C1.5,15.202,2.012448,15.699,3.00014,15.699L6.05448,15.699ZM6.05448,14.9725L3.00427,14.9725C2.447209,14.9725,2.2232250000000002,14.7484,2.2232250000000002,14.1911L2.2232250000000002,9.81177C2.2232250000000002,9.25443,2.447209,9.02745,3.00427,9.02745L6.05448,9.02745C6.5322,9.02745,6.89007,9.129570000000001,7.22647,9.458680000000001L9.31753,11.5553C9.6287,11.8695,9.59606,12.166,9.3072,12.455L7.22647,14.5368C6.89007,14.8732,6.5322,14.9725,6.05448,14.9725ZM8.307970000000001,6.05217C8.307970000000001,6.7592,8.46458,7.24749,8.991489999999999,7.77465L11.00321,9.7948C11.6372,10.42159,12.3835,10.42159,13.0174,9.7948L15.0292,7.77465C15.556,7.24749,15.7098,6.7592,15.7098,6.05217L15.7098,2.99344C15.7098,2.005258,15.2131,1.5,14.2436,1.5L9.75933,1.5C8.80471,1.5,8.307970000000001,2.005258,8.307970000000001,2.99344L8.307970000000001,6.05217ZM9.04152,6.05217L9.04152,3.00501C9.04152,2.450567,9.2684,2.22358,9.82546,2.22358L14.2027,2.22358C14.7597,2.22358,14.9837,2.450567,14.9837,3.00501L14.9837,6.05217C14.9837,6.52723,14.8845,6.88529,14.5481,7.22184L12.4571,9.32137C12.1385,9.6327,11.8496,9.60293,11.5532,9.30648L9.47254,7.22184C9.13616,6.88529,9.04152,6.52723,9.04152,6.05217ZM17.9455,8.311309999999999C17.2359,8.311309999999999,16.7479,8.46511,16.221,8.98484L14.2093,11.00497C13.5753,11.6317,13.5753,12.386,14.2093,13.0202L16.221,15.0329C16.7479,15.5601,17.2359,15.7093,17.9455,15.7093L20.9999,15.7093C21.9875,15.7093,22.5,15.2198,22.5,14.2498L22.5,9.7605C22.5,8.8083,21.9875,8.311309999999999,20.9999,8.311309999999999L17.9455,8.311309999999999ZM17.9455,9.037790000000001L20.9883,9.037790000000001C21.5453,9.037790000000001,21.7693,9.26188,21.7693,9.81921L21.7693,14.1985C21.7693,14.7558,21.5453,14.9829,20.9883,14.9829L17.9455,14.9829C17.4678,14.9829,17.1099,14.8882,16.7735,14.5517L14.675,12.455C14.3638,12.1408,14.3965,11.8443,14.6927,11.5553L16.7735,9.473569999999999C17.1099,9.13701,17.4678,9.037790000000001,17.9455,9.037790000000001ZM15.6875,17.9433C15.6875,17.2437,15.5309,16.7479,15.0114,16.2282L12.9922,14.2052C12.3657,13.5738,11.612,13.5738,10.978,14.2052L8.966280000000001,16.2282C8.43938,16.7479,8.29308,17.2437,8.29308,17.9433L8.29308,21.0019C8.29308,21.9902,8.78239,22.5,9.75189,22.5L14.2361,22.5C15.1908,22.5,15.6875,21.9902,15.6875,21.0019L15.6875,17.9433ZM14.9614,17.9433L14.9614,20.9979C14.9614,21.5522,14.7344,21.7764,14.1774,21.7764L9.80025,21.7764C9.24319,21.7764,9.0192,21.5522,9.0192,20.9979L9.0192,17.9433C9.0192,17.4653,9.11838,17.1072,9.44734,16.781L11.5458,14.6815C11.857,14.3672,12.1533,14.3999,12.4422,14.6889L14.5258,16.781C14.8593,17.1072,14.9614,17.4653,14.9614,17.9433Z" fill="rgba(255, 255, 255, 0.5)" fill-opacity="1" style="mix-blend-mode:passthrough"/><path d="M9.75933,1.35Q8.157969999999999,1.35,8.157969999999999,2.99344L8.157969999999999,6.05217Q8.157969999999999,7.15291,8.8854,7.88069L10.89692,9.90064Q11.41705,10.41489,12.0103,10.41489Q12.6036,10.41489,13.1229,9.90147L15.1354,7.8805Q15.8598,7.15575,15.8598,6.05217L15.8598,2.99344Q15.8598,1.35,14.2436,1.35L9.75933,1.35ZM8.45797,6.05217L8.45797,2.99344Q8.45797,1.65,9.75933,1.65L14.2436,1.65Q14.9079,1.65,15.2332,1.981255Q15.5598,2.313765,15.5598,2.99344L15.5598,6.05217Q15.5598,7.03154,14.9229,7.66881L12.912,9.68813Q12.0103,10.57957,11.1095,9.68896L9.09759,7.66861Q8.45797,7.02869,8.45797,6.05217ZM9.36638,7.3278L9.36645,7.32788L11.44715,9.41252Q12.0061,9.97174,12.5634,9.42722L14.6542,7.32788Q15.1337,6.84818,15.1337,6.05217L15.1337,3.00501Q15.1337,2.52664,14.9083,2.300491Q14.6821,2.0735799999999998,14.2027,2.0735799999999998L9.82546,2.0735799999999998Q9.3458,2.0735799999999998,9.118649999999999,2.300187Q8.89152,2.52678,8.89152,3.00501L8.89152,6.05217Q8.89152,6.85265,9.36638,7.3278ZM11.6593,9.20044L9.57871,7.11587L9.57864,7.1158Q9.19152,6.72849,9.19152,6.05217L9.19152,3.00501Q9.19152,2.65125,9.33053,2.51257Q9.469850000000001,2.37358,9.82546,2.37358L14.2027,2.37358Q14.5576,2.37358,14.6958,2.51227Q14.8337,2.65061,14.8337,3.00501L14.8337,6.05217Q14.8337,6.72395,14.442,7.11579L12.3508,9.21552Q12.0086,9.54987,11.6593,9.20044ZM1.775412,15.4393Q2.199085,15.849,3.00014,15.849L6.05448,15.849Q7.15767,15.849,7.88434,15.1323L9.89701,13.1112Q10.41621,12.5978,10.4162,12.0005Q10.41621,11.40366,9.89682,10.88402L7.8851,8.87135Q7.16506,8.150970000000001,6.05448,8.150970000000001L3.00014,8.150970000000001Q2.196905,8.150970000000001,1.775333,8.559239999999999Q1.35,8.97115,1.35,9.7605L1.35,14.2498Q1.35,15.0279,1.775412,15.4393ZM22.65,9.7605Q22.65,8.16131,20.9999,8.16131L17.9455,8.16131Q16.8422,8.16131,16.1157,8.87805L14.103,10.89912Q13.5838,11.41242,13.5838,12.0098Q13.5838,12.6066,14.1032,13.1262L16.1149,15.1389Q16.8348,15.8593,17.9455,15.8593L20.9999,15.8593Q21.8031,15.8593,22.2247,15.4511Q22.65,15.0392,22.65,14.2498L22.65,9.7605ZM6.05448,15.549L3.00014,15.549Q2.320415,15.549,1.9839579999999999,15.2237Q1.65,14.9007,1.65,14.2498L1.65,9.7605Q1.65,9.09824,1.984037,8.774740000000001Q2.318361,8.45097,3.00014,8.45097L6.05448,8.45097Q7.04075,8.45097,7.67292,9.08343L9.68463,11.0961Q10.1162,11.5279,10.1162,12.0005Q10.11621,12.4726,9.68444,12.8995L7.67368,14.9187Q7.03461,15.549,6.05448,15.549ZM17.9455,8.461310000000001L20.9999,8.461310000000001Q21.6796,8.461310000000001,22.016,8.786660000000001Q22.35,9.1096,22.35,9.7605L22.35,14.2498Q22.35,14.9121,22.016,15.2356Q21.6816,15.5593,20.9999,15.5593L17.9455,15.5593Q16.9592,15.5593,16.3271,14.9269L14.3154,12.9141Q13.8838,12.4824,13.8838,12.0098Q13.8838,11.5377,14.3156,11.11081L16.3263,9.091619999999999Q16.9653,8.461310000000001,17.9455,8.461310000000001ZM6.05448,15.1225Q6.85302,15.1225,7.33255,14.6428L7.33256,14.6428L9.41328,12.561Q9.97151,12.0026,9.423739999999999,11.44935L7.33137,9.35146Q6.84686,8.87745,6.05448,8.87745L3.00427,8.87745Q2.52447,8.87745,2.298454,9.10487Q2.073225,9.33151,2.073225,9.81177L2.073225,14.1911Q2.073225,14.6712,2.298762,14.8968Q2.52431,15.1225,3.00427,15.1225L6.05448,15.1225ZM17.9455,8.887789999999999Q17.147,8.887789999999999,16.6674,9.367519999999999L14.588,11.44792Q14.3179,11.7114,14.3062,11.9894Q14.2938,12.2833,14.569,12.5611L16.6674,14.6577Q17.1425,15.1329,17.9455,15.1329L20.9883,15.1329Q21.4521,15.1329,21.6849,14.901Q21.9193,14.6674,21.9193,14.1985L21.9193,9.81921Q21.9193,8.887789999999999,20.9883,8.887789999999999L17.9455,8.887789999999999ZM9.20111,12.3489L7.12038,14.4307Q6.72873,14.8225,6.05448,14.8225L3.00427,14.8225Q2.6486099999999997,14.8225,2.5109399999999997,14.6847Q2.373225,14.547,2.373225,14.1911L2.373225,9.81177Q2.373225,9.45523,2.51125,9.31634Q2.64928,9.17745,3.00427,9.17745L6.05448,9.17745Q6.72452,9.17745,7.12157,9.5659L9.21132,11.6612Q9.54833,12.0016,9.20111,12.3489ZM14.7975,11.6626L16.8796,9.57961Q17.2713,9.18779,17.9455,9.18779L20.9883,9.18779Q21.3439,9.18779,21.4816,9.32554Q21.6193,9.46333,21.6193,9.81921L21.6193,14.1985Q21.6193,14.5551,21.4813,14.694Q21.3432,14.8329,20.9883,14.8329L17.9455,14.8329Q17.2668,14.8329,16.8796,14.4456L14.781,12.3488Q14.5991,12.1651,14.606,12.002Q14.6127,11.843,14.7975,11.6626ZM14.2361,22.65Q15.8375,22.65,15.8375,21.0019L15.8375,17.9433Q15.8375,16.8425,15.1174,16.1222L13.0984,14.0992Q12.5848,13.5817,11.9879,13.5817Q11.39152,13.5817,10.87215,14.0989L8.859919999999999,16.122500000000002Q8.143080000000001,16.8295,8.143080000000001,17.9433L8.143080000000001,21.0019Q8.143080000000001,21.8053,8.551269999999999,22.226Q8.96264,22.65,9.75189,22.65L14.2361,22.65ZM15.5375,17.9433L15.5375,21.0019Q15.5375,22.35,14.2361,22.35L9.75189,22.35Q9.08957,22.35,8.766580000000001,22.0171Q8.44308,21.6837,8.44308,21.0019L8.44308,17.9433Q8.44308,16.955,9.07264,16.334L11.08385,14.3115Q11.5154,13.8817,11.9879,13.8817Q12.4599,13.8817,12.886,14.3112L14.9053,16.3343Q15.5375,16.9667,15.5375,17.9433ZM14.6321,16.6752Q14.6313,16.674500000000002,14.6306,16.6738L12.5482,14.5828Q12.2838,14.3184,12.0074,14.3091Q11.7133,14.2992,11.43975,14.5755L9.341719999999999,16.674500000000002Q8.8692,17.143,8.8692,17.9433L8.8692,20.9979Q8.8692,21.9264,9.80025,21.9264L14.1774,21.9264Q14.6572,21.9264,14.8839,21.7015Q15.1114,21.4759,15.1114,20.9979L15.1114,17.9433Q15.1114,17.1451,14.6321,16.6752ZM12.3361,14.795L14.4195,16.8869L14.4209,16.8883Q14.8114,17.270200000000003,14.8114,17.9433L14.8114,20.9979Q14.8114,21.3509,14.6726,21.4885Q14.5337,21.6264,14.1774,21.6264L9.80025,21.6264Q9.44465,21.6264,9.30677,21.4888Q9.1692,21.3516,9.1692,20.9979L9.1692,17.9433Q9.1692,17.268,9.55295,16.8875L11.6519,14.7875Q11.8343,14.6034,11.9973,14.6089Q12.1554,14.6142,12.3361,14.795Z" fill-rule="evenodd" fill="rgba(255, 255, 255, 0.5)" fill-opacity="1"/></g></g></g></svg>