<svg xmlns="http://www.w3.org/2000/svg" xmlns:xlink="http://www.w3.org/1999/xlink" fill="none" version="1.1" width="45" height="44" viewBox="0 0 45 44"><g><g><g><path d="M7.2972,6.79721755078125Q7.36753,6.72689155078125,7.40559,6.63500655078125Q7.44365,6.54312075078125,7.44365,6.44366455078125Q7.44365,6.39441885078125,7.43404,6.34611945078125Q7.42444,6.29781955078125,7.40559,6.25232255078125Q7.38674,6.20682555078125,7.35939,6.16587955078125Q7.33203,6.12493355078125,7.2972,6.09011155078125Q7.26238,6.05528955078125,7.22144,6.02792955078125Q7.18049,6.00057055078125,7.13499,5.98172455078125Q7.08949,5.96287955078125,7.0412,5.95327155078125Q6.9929,5.94366455078125,6.94365,5.94366455078125Q6.84419,5.94366455078125,6.75231,5.98172455078125Q6.66042,6.01978455078125,6.5901,6.09011155078125L6.58991,6.09030255078125Q0,12.68034455078125,-0.0000010000000000287557,21.99996455078125Q0,31.31986455078125,6.5901,37.909964550781254Q6.66042,37.98026455078125,6.75231,38.018264550781254Q6.84419,38.056364550781254,6.94365,38.056364550781254Q6.9929,38.056364550781254,7.0412,38.04676455078125Q7.08949,38.03716455078125,7.13499,38.018264550781254Q7.18049,37.999464550781255,7.22144,37.972064550781255Q7.26238,37.94476455078125,7.2972,37.909964550781254Q7.33203,37.87506455078125,7.35939,37.83416455078125Q7.38674,37.79316455078125,7.40559,37.74766455078125Q7.42444,37.70216455078125,7.43404,37.65386455078125Q7.44365,37.60556455078125,7.44365,37.556364550781254Q7.44365,37.45686455078125,7.40559,37.36506455078125Q7.36753,37.273164550781246,7.2972,37.202764550781254Q1,30.90556455078125,0.9999990000000001,21.99996455078125Q1,13.09455455078125,7.29702,6.79740555078125L7.2972,6.79721755078125L7.2972,6.79721755078125ZM37.7028,6.79721655078125Q37.6325,6.72689055078125,37.5944,6.63500555078125Q37.5564,6.54312015078125,37.5564,6.44366455078125Q37.5564,6.39441885078125,37.566,6.34611945078125Q37.5756,6.29781955078125,37.5944,6.25232255078125Q37.6133,6.20682555078125,37.6406,6.16587955078125Q37.668,6.12493355078125,37.7028,6.09011155078125Q37.7376,6.05528955078125,37.7786,6.02792955078125Q37.8195,6.00057055078125,37.865,5.98172455078125Q37.9105,5.96287955078125,37.9588,5.95327155078125Q38.0071,5.94366455078125,38.0564,5.94366455078125Q38.1558,5.94366455078125,38.2477,5.98172455078125Q38.3396,6.01978455078125,38.4099,6.09011055078125Q45,12.68019455078125,45,21.99996455078125Q45,31.31986455078125,38.4099,37.909964550781254Q38.3396,37.98026455078125,38.2477,38.018264550781254Q38.1558,38.056364550781254,38.0564,38.056364550781254Q38.0071,38.056364550781254,37.9588,38.04676455078125Q37.9105,38.03716455078125,37.865,38.018264550781254Q37.8195,37.999464550781255,37.7786,37.972064550781255Q37.7376,37.94476455078125,37.7028,37.909964550781254Q37.668,37.87506455078125,37.6406,37.83416455078125Q37.6133,37.79316455078125,37.5944,37.74766455078125Q37.5756,37.70216455078125,37.566,37.65386455078125Q37.5564,37.60556455078125,37.5564,37.556364550781254Q37.5564,37.45686455078125,37.5944,37.36506455078125Q37.6325,37.273164550781246,37.7028,37.202764550781254Q44,30.90566455078125,44,21.99996455078125Q44,13.09502455078125,37.7037,6.79809955078125L37.7028,6.79721555078125L37.7028,6.79721655078125Z" fill-rule="evenodd" fill="#FFFFFF" fill-opacity="0.30000001192092896"/></g><g style="opacity:0.699999988079071;"><ellipse cx="22.5" cy="22" rx="16" ry="16" fill="#151515" fill-opacity="0.699999988079071"/><path d="M38.5,22Q38.5,22.3928,38.4807,22.7851Q38.4615,23.1774,38.423,23.5683Q38.3845,23.9592,38.3268,24.3477Q38.2692,24.7362,38.1926,25.1214Q38.115899999999996,25.5067,38.0205,25.8877Q37.9251,26.2687,37.811,26.6446Q37.697,27.0204,37.5647,27.3902Q37.4324,27.7601,37.2821,28.1229Q37.1318,28.4858,36.9638,28.8409Q36.7959,29.1959,36.6107,29.5423Q36.4256,29.8887,36.2237,30.2256Q36.021699999999996,30.5625,35.8035,30.8891Q35.585300000000004,31.2157,35.351299999999995,31.5312Q35.1173,31.8467,34.8682,32.1503Q34.619,32.453900000000004,34.355199999999996,32.7449Q34.0914,33.036,33.8137,33.3137Q33.536,33.5914,33.2449,33.855199999999996Q32.953900000000004,34.119,32.6503,34.3682Q32.3467,34.6173,32.0312,34.851299999999995Q31.7157,35.085300000000004,31.3891,35.3035Q31.0625,35.521699999999996,30.7256,35.7237Q30.3887,35.9256,30.0423,36.1107Q29.6959,36.2959,29.3409,36.4638Q28.9858,36.6318,28.6229,36.7821Q28.2601,36.9324,27.8902,37.0647Q27.5204,37.197,27.1446,37.311Q26.7687,37.4251,26.3877,37.5205Q26.0067,37.615899999999996,25.6214,37.6926Q25.2362,37.7692,24.8477,37.8268Q24.4592,37.8845,24.0683,37.923Q23.6774,37.9615,23.2851,37.9807Q22.8928,38,22.5,38Q22.1072,38,21.7149,37.9807Q21.3226,37.9615,20.9317,37.923Q20.5408,37.8845,20.1523,37.8268Q19.7638,37.7692,19.3786,37.6926Q18.993299999999998,37.615899999999996,18.612299999999998,37.5205Q18.231299999999997,37.4251,17.8554,37.311Q17.479599999999998,37.197,17.1098,37.0647Q16.7399,36.9324,16.37706,36.7821Q16.01418,36.6318,15.65912,36.4638Q15.30405,36.2959,14.95765,36.1107Q14.61125,35.9256,14.27436,35.7237Q13.93746,35.521699999999996,13.61088,35.3035Q13.28429,35.085300000000004,12.968810000000001,34.851299999999995Q12.65333,34.6173,12.34971,34.3682Q12.04609,34.119,11.75506,33.855199999999996Q11.464030000000001,33.5914,11.18629,33.3137Q10.90856,33.036,10.64478,32.7449Q10.38101,32.453900000000004,10.13183,32.1503Q9.88266,31.8467,9.64868,31.5312Q9.4147,31.2157,9.19649,30.8891Q8.97827,30.5625,8.77634,30.2256Q8.57441,29.8887,8.38926,29.5423Q8.20411,29.1959,8.03617,28.8409Q7.86824,28.4858,7.71793,28.1229Q7.56762,27.7601,7.435295,27.3902Q7.3029720000000005,27.0204,7.188955,26.6446Q7.074937,26.2687,6.9795,25.8877Q6.884063,25.5067,6.807435,25.1214Q6.730808,24.7362,6.673176,24.3477Q6.615543,23.9592,6.5770444,23.5683Q6.5385454,23.1774,6.5192727,22.7851Q6.5,22.3928,6.5,22Q6.5,21.6072,6.5192727,21.2149Q6.5385454,20.8226,6.5770444,20.4317Q6.615543,20.0408,6.673176,19.6523Q6.730808,19.2638,6.807435,18.8786Q6.884063,18.493299999999998,6.9795,18.112299999999998Q7.074937,17.731299999999997,7.188955,17.3554Q7.3029720000000005,16.979599999999998,7.435295,16.6098Q7.56762,16.2399,7.71793,15.87706Q7.86824,15.51418,8.03617,15.15912Q8.20411,14.80405,8.38926,14.45765Q8.57441,14.11125,8.77634,13.77436Q8.97827,13.43746,9.19649,13.11088Q9.4147,12.78429,9.64868,12.468810000000001Q9.88266,12.15333,10.13183,11.84971Q10.38101,11.54609,10.64478,11.25506Q10.90856,10.964030000000001,11.18629,10.68629Q11.464030000000001,10.40856,11.75506,10.14478Q12.04609,9.88101,12.34971,9.63183Q12.65333,9.38266,12.968810000000001,9.14868Q13.28429,8.9147,13.61088,8.69649Q13.93746,8.47827,14.27436,8.27634Q14.61125,8.07441,14.95765,7.88926Q15.30405,7.70411,15.65912,7.53617Q16.01418,7.36824,16.37706,7.21793Q16.7399,7.06762,17.1098,6.935295Q17.479599999999998,6.8029720000000005,17.8554,6.688955Q18.231299999999997,6.574937,18.612299999999998,6.4795Q18.993299999999998,6.384063,19.3786,6.307435Q19.7638,6.230808,20.1523,6.173176Q20.5408,6.115543,20.9317,6.0770444Q21.3226,6.0385454,21.7149,6.0192727Q22.1072,6,22.5,6Q22.8928,6,23.2851,6.0192727Q23.6774,6.0385454,24.0683,6.0770444Q24.4592,6.115543,24.8477,6.173176Q25.2362,6.230808,25.6214,6.307435Q26.0067,6.384063,26.3877,6.4795Q26.7687,6.574937,27.1446,6.688955Q27.5204,6.8029720000000005,27.8902,6.935295Q28.2601,7.06762,28.6229,7.21793Q28.9858,7.36824,29.3409,7.53617Q29.6959,7.70411,30.0423,7.88926Q30.3887,8.07441,30.7256,8.27634Q31.0625,8.47827,31.3891,8.69649Q31.7157,8.9147,32.0312,9.14868Q32.3467,9.38266,32.6503,9.63183Q32.953900000000004,9.88101,33.2449,10.14478Q33.536,10.40856,33.8137,10.68629Q34.0914,10.964030000000001,34.355199999999996,11.25506Q34.619,11.54609,34.8682,11.84971Q35.1173,12.15333,35.351299999999995,12.468810000000001Q35.585300000000004,12.78429,35.8035,13.11088Q36.021699999999996,13.43746,36.2237,13.77436Q36.4256,14.11125,36.6107,14.45765Q36.7959,14.80405,36.9638,15.15912Q37.1318,15.51418,37.2821,15.87706Q37.4324,16.2399,37.5647,16.6098Q37.697,16.979599999999998,37.811,17.3554Q37.9251,17.731299999999997,38.0205,18.112299999999998Q38.115899999999996,18.493299999999998,38.1926,18.8786Q38.2692,19.2638,38.3268,19.6523Q38.3845,20.0408,38.423,20.4317Q38.4615,20.8226,38.4807,21.2149Q38.5,21.6072,38.5,22ZM37.5,22Q37.5,21.6318,37.481899999999996,21.264Q37.463899999999995,20.8962,37.427800000000005,20.5297Q37.3917,20.1633,37.337599999999995,19.799Q37.2836,19.4348,37.2118,19.0736Q37.1399,18.7125,37.0505,18.3553Q36.961,17.9981,36.8541,17.645699999999998Q36.7472,17.2934,36.6232,16.9467Q36.4991,16.599899999999998,36.3582,16.259700000000002Q36.2173,15.91955,36.059799999999996,15.58667Q35.9024,15.2538,35.7288,14.92905Q35.5552,14.6043,35.365899999999996,14.28846Q35.1766,13.97262,34.972,13.666450000000001Q34.7675,13.36027,34.548100000000005,13.06451Q34.3288,12.76875,34.0952,12.4841Q33.861599999999996,12.19946,33.6143,11.92662Q33.367000000000004,11.653780000000001,33.1066,11.3934Q32.846199999999996,11.13302,32.5734,10.885729999999999Q32.3005,10.63844,32.0159,10.40484Q31.7313,10.171240000000001,31.4355,9.95189Q31.1397,9.73253,30.8335,9.52796Q30.5274,9.32338,30.2115,9.13407Q29.8957,8.94476,29.5709,8.771180000000001Q29.2462,8.5976,28.9133,8.44016Q28.5804,8.28272,28.2402,8.14181Q27.9,8.00089,27.5533,7.87684Q27.2066,7.75279,26.8543,7.6459Q26.5019,7.539,26.1447,7.44953Q25.7875,7.36006,25.4264,7.28822Q25.0652,7.21638,24.701,7.16235Q24.3367,7.10832,23.9703,7.07223Q23.6038,7.03614,23.236,7.01807Q22.8682,7,22.5,7Q22.1318,7,21.764,7.01807Q21.3962,7.03614,21.0297,7.07223Q20.6633,7.10832,20.299,7.16235Q19.9348,7.21638,19.5736,7.28822Q19.2125,7.36006,18.8553,7.44953Q18.4981,7.539,18.145699999999998,7.6459Q17.7934,7.75279,17.4467,7.87684Q17.099899999999998,8.00089,16.759700000000002,8.14181Q16.41955,8.28272,16.086669999999998,8.44016Q15.7538,8.5976,15.42905,8.771180000000001Q15.1043,8.94476,14.78846,9.13407Q14.47262,9.32338,14.166450000000001,9.52796Q13.86027,9.73253,13.56451,9.95189Q13.26875,10.171240000000001,12.9841,10.40484Q12.69946,10.63844,12.42662,10.885729999999999Q12.153780000000001,11.13302,11.8934,11.3934Q11.63302,11.653780000000001,11.385729999999999,11.92661Q11.13844,12.19946,10.90484,12.4841Q10.671240000000001,12.76875,10.45189,13.06451Q10.23253,13.36027,10.02796,13.666450000000001Q9.82338,13.97262,9.63407,14.28846Q9.44476,14.6043,9.271180000000001,14.92905Q9.0976,15.2538,8.94016,15.58667Q8.78272,15.91955,8.64181,16.259700000000002Q8.50089,16.599899999999998,8.37684,16.9467Q8.252790000000001,17.2934,8.14589,17.645699999999998Q8.039,17.9981,7.94953,18.3553Q7.86006,18.7125,7.78822,19.0736Q7.71638,19.4348,7.66235,19.799Q7.60832,20.1633,7.57223,20.5297Q7.53614,20.8962,7.51807,21.264Q7.5,21.6318,7.5,22Q7.5,22.3682,7.51807,22.736Q7.53614,23.1038,7.57223,23.4703Q7.60832,23.8367,7.66235,24.201Q7.71638,24.5652,7.78822,24.9264Q7.86006,25.2875,7.94953,25.6447Q8.039,26.0019,8.14589,26.3543Q8.252790000000001,26.7066,8.37684,27.0533Q8.50089,27.4,8.64181,27.7402Q8.78272,28.0804,8.94016,28.4133Q9.0976,28.7462,9.271180000000001,29.0709Q9.44476,29.3957,9.63407,29.7115Q9.82338,30.0274,10.02796,30.3335Q10.23253,30.6397,10.45189,30.9355Q10.671240000000001,31.2313,10.90484,31.5159Q11.13844,31.8005,11.385729999999999,32.0734Q11.63302,32.346199999999996,11.8934,32.6066Q12.153780000000001,32.867000000000004,12.42661,33.1143Q12.69946,33.361599999999996,12.9841,33.5952Q13.26875,33.8288,13.56451,34.048100000000005Q13.86027,34.2675,14.166450000000001,34.472Q14.47262,34.6766,14.78846,34.865899999999996Q15.1043,35.0552,15.42905,35.2288Q15.7538,35.4024,16.086669999999998,35.559799999999996Q16.41955,35.7173,16.759700000000002,35.8582Q17.099899999999998,35.9991,17.4467,36.1232Q17.7934,36.2472,18.145699999999998,36.3541Q18.4981,36.461,18.8553,36.5505Q19.2125,36.6399,19.5736,36.7118Q19.9348,36.7836,20.299,36.837599999999995Q20.6633,36.8917,21.0297,36.927800000000005Q21.3962,36.963899999999995,21.764,36.981899999999996Q22.1318,37,22.5,37Q22.8682,37,23.236,36.981899999999996Q23.6038,36.963899999999995,23.9703,36.927800000000005Q24.3367,36.8917,24.701,36.837599999999995Q25.0652,36.7836,25.4264,36.7118Q25.7875,36.6399,26.1447,36.5505Q26.5019,36.461,26.8543,36.3541Q27.2066,36.2472,27.5533,36.1232Q27.9,35.9991,28.2402,35.8582Q28.5804,35.7173,28.9133,35.559799999999996Q29.2462,35.4024,29.5709,35.2288Q29.8957,35.0552,30.2115,34.865899999999996Q30.5274,34.6766,30.8335,34.472Q31.1397,34.2675,31.4355,34.048100000000005Q31.7313,33.8288,32.0159,33.5952Q32.3005,33.361599999999996,32.5734,33.1143Q32.846199999999996,32.867000000000004,33.1066,32.6066Q33.367000000000004,32.346199999999996,33.6143,32.0734Q33.861599999999996,31.8005,34.0952,31.5159Q34.3288,31.2313,34.548100000000005,30.9355Q34.7675,30.6397,34.972,30.3335Q35.1766,30.0274,35.365899999999996,29.7115Q35.5552,29.3957,35.7288,29.0709Q35.9024,28.7462,36.059799999999996,28.4133Q36.2173,28.0804,36.3582,27.7402Q36.4991,27.4,36.6232,27.0533Q36.7472,26.7066,36.8541,26.3543Q36.961,26.0019,37.0505,25.6447Q37.1399,25.2875,37.2118,24.9264Q37.2836,24.5652,37.337599999999995,24.201Q37.3917,23.8367,37.427800000000005,23.4703Q37.463899999999995,23.1038,37.481899999999996,22.736Q37.5,22.3682,37.5,22Z" fill="#FFFFFF" fill-opacity="0.699999988079071"/></g><g><path d="M19.45,16.275L21.22,16.275L20.65,20.939999999999998L26.08,20.939999999999998L26.65,16.275L28.42,16.275L27.04,27.54L25.27,27.54L25.869999999999997,22.59L20.44,22.59L19.84,27.54L18.07,27.54L19.45,16.275Z" fill="#FFFFFF" fill-opacity="0.699999988079071"/></g></g></g></svg>