<svg xmlns="http://www.w3.org/2000/svg" xmlns:xlink="http://www.w3.org/1999/xlink" fill="none" version="1.1" width="24" height="24" viewBox="0 0 24 24"><defs><clipPath id="master_svg0_287_2405"><rect x="0" y="0" width="24" height="24" rx="0"/></clipPath></defs><g><g clip-path="url(#master_svg0_287_2405)"><g><path d="M19.529600000000002,21.4607Q20.1176,20.9478,19.8278,20.2233L13.02132,3.20702Q12.74474,2.515549,12,2.515549Q11.25526,2.515549,10.97868,3.20702L4.172181,20.2233Q3.882375,20.9478,4.470413,21.4607Q5.05845,21.9737,5.73691,21.5882L11.06138,18.5629Q12,18.0296,12.93862,18.5629L18.2631,21.5882Q18.941499999999998,21.9737,19.529600000000002,21.4607ZM12.09285,3.57841L18.8993,20.5946Q18.9257,20.6605,18.8722,20.7071Q18.8188,20.7538,18.7571,20.7187L13.43263,17.6935Q12,16.8795,10.56737,17.6935L5.24291,20.7187Q5.18123,20.7538,5.12777,20.7071Q5.0743100000000005,20.6605,5.1006599999999995,20.5946L11.90715,3.57841Q11.9323,3.51555,12,3.51555Q12.0677,3.51555,12.09285,3.57841Z" fill-rule="evenodd" fill="#FFFFFF" fill-opacity="1" style="mix-blend-mode:passthrough"/></g></g></g></svg>