<svg xmlns="http://www.w3.org/2000/svg" xmlns:xlink="http://www.w3.org/1999/xlink" fill="none" version="1.1" width="24" height="24" viewBox="0 0 24 24"><defs><clipPath id="master_svg0_287_2444"><rect x="0" y="0" width="24" height="24" rx="0"/></clipPath></defs><g><g clip-path="url(#master_svg0_287_2444)"><g><path d="M14.0778,22.8039L14.0787,22.8038Q14.1214,22.7959,14.1622,22.7807Q14.2029,22.7655,14.2404,22.7435Q14.2779,22.7216,14.3111,22.6934Q14.3443,22.6653,14.3721,22.6319Q14.3999,22.5985,14.4215,22.5607Q14.4431,22.523,14.4579,22.4821Q14.4727,22.4413,14.4802,22.3984Q14.4877,22.3556,14.4877,22.3121Q14.4877,22.2629,14.4781,22.2146Q14.4685,22.1663,14.4496,22.1208Q14.4308,22.0753,14.4034,22.0343Q14.376,21.9934,14.3412,21.9586Q14.3064,21.9237,14.2655,21.8964Q14.2245,21.869,14.179,21.8502Q14.1335,21.8313,14.0852,21.8217Q14.0369,21.8121,13.9877,21.8121Q13.9418,21.8121,13.8967,21.8205L13.8957,21.8207L13.7677,21.8444Q13.6474,21.8658,13.5235,21.8848Q13.2743,21.9228,13.023,21.9483Q12.5144,22,12,22Q7.85786,22,4.928929999999999,19.0711Q2,16.1421,2.000001,12Q2,7.85786,4.928929999999999,4.928929999999999Q7.85786,2,12,2.000001Q16.1421,2,19.0711,4.928929999999999Q22,7.85786,22,12Q22,13.022,21.7972,14.0139L21.797,14.015L21.7968,14.0159L22.7765,14.2164L22.7766,14.2162L22.7766,14.2158Q23,13.124,23,12Q23,7.44365,19.7782,4.221830000000001Q16.5564,1,12,1.000001Q7.44365,1.000003,4.221830000000001,4.221830000000001Q1,7.44365,1.000001,12Q1.000003,16.5563,4.221830000000001,19.7782Q7.44365,23,12,23Q12.5651,23,13.1241,22.9432Q13.4004,22.9152,13.6746,22.8733Q13.8109,22.8524,13.9497,22.8277L14.0778,22.8039Z" fill-rule="evenodd" fill="#FFFFFF" fill-opacity="1"/></g><g><ellipse cx="12" cy="12" rx="2" ry="2" fill="#FFFFFF" fill-opacity="1"/><ellipse cx="12" cy="12" rx="2" ry="2" fill-opacity="0" stroke-opacity="1" stroke="#FFFFFF" fill="none" stroke-width="1" stroke-linecap="ROUND" stroke-linejoin="round"/></g><g><path d="M8.059999942779541,14.5Q8.059999942779541,14.57369,8.05277994277954,14.64703Q8.045549942779541,14.72036,8.031179942779541,14.79263Q8.01679994277954,14.86491,7.995409942779541,14.93543Q7.974019942779541,15.00594,7.945819942779541,15.07402Q7.917619942779541,15.14211,7.882879942779541,15.20709Q7.848139942779541,15.27208,7.80719994277954,15.33335Q7.766259942779541,15.39462,7.719519942779542,15.45159Q7.67276994277954,15.50855,7.620659942779541,15.56066Q7.568549942779541,15.61277,7.5115899427795405,15.65952Q7.45462994277954,15.70626,7.39334994277954,15.7472Q7.332079942779541,15.78814,7.2670999427795415,15.82288Q7.202109942779542,15.85762,7.134019942779541,15.88582Q7.065939942779541,15.91402,6.995429942779541,15.93541Q6.924909942779541,15.9568,6.8526399427795415,15.97118Q6.7803599427795405,15.98555,6.707029942779541,15.99278Q6.633689942779541,16,6.559999942779541,16Q6.486309942779541,16,6.412969942779541,15.99278Q6.339639942779542,15.98555,6.267359942779541,15.97118Q6.195089942779541,15.9568,6.124569942779541,15.93541Q6.0540559427795415,15.91402,5.985974942779541,15.88582Q5.917893942779541,15.85762,5.852904942779541,15.82288Q5.7879159427795415,15.78814,5.726644942779541,15.7472Q5.665372942779541,15.70626,5.608409942779541,15.65952Q5.551446942779541,15.61277,5.499339942779541,15.56066Q5.447232942779541,15.50855,5.400483942779541,15.45159Q5.353735942779541,15.39462,5.312795942779541,15.33335Q5.271854942779541,15.27208,5.237117942779541,15.20709Q5.202380942779541,15.14211,5.174180942779541,15.07402Q5.145980542779541,15.00594,5.124589442779541,14.93543Q5.103198242779541,14.86491,5.088822042779541,14.79263Q5.074445742779541,14.72036,5.067222852779541,14.64703Q5.059999942779541,14.57369,5.059999942779541,14.5Q5.059999942779541,14.42631,5.067222852779541,14.35297Q5.074445742779541,14.27964,5.088822042779541,14.20736Q5.103198242779541,14.13509,5.124589442779541,14.06457Q5.145980542779541,13.99405,5.174180942779541,13.92597Q5.202380942779541,13.857890000000001,5.237117942779541,13.7929Q5.271854942779541,13.727920000000001,5.312795942779541,13.666640000000001Q5.353735942779541,13.60537,5.400483942779541,13.54841Q5.447232942779541,13.49145,5.499339942779541,13.43934Q5.551446942779541,13.387229999999999,5.608409942779541,13.34048Q5.665372942779541,13.29374,5.726644942779541,13.252790000000001Q5.7879159427795415,13.21185,5.852904942779541,13.17712Q5.917893942779541,13.14238,5.985974942779541,13.114180000000001Q6.0540559427795415,13.08598,6.124569942779541,13.064589999999999Q6.195089942779541,13.043199999999999,6.267359942779541,13.02882Q6.339639942779542,13.01445,6.412969942779541,13.00722Q6.486309942779541,13,6.559999942779541,13Q6.633689942779541,13,6.707029942779541,13.00722Q6.7803599427795405,13.01445,6.8526399427795415,13.02882Q6.924909942779541,13.043199999999999,6.995429942779541,13.064589999999999Q7.065939942779541,13.08598,7.134019942779541,13.114180000000001Q7.202109942779542,13.14238,7.2670999427795415,13.17712Q7.332079942779541,13.21185,7.393359942779541,13.252790000000001Q7.45462994277954,13.29374,7.5115899427795405,13.34048Q7.568549942779541,13.387229999999999,7.620659942779541,13.43934Q7.67276994277954,13.49145,7.719519942779542,13.54841Q7.766259942779541,13.60537,7.80719994277954,13.666640000000001Q7.848139942779541,13.727920000000001,7.882879942779541,13.7929Q7.917619942779541,13.857890000000001,7.945819942779541,13.92597Q7.974019942779541,13.99405,7.995409942779541,14.06457Q8.01679994277954,14.13509,8.031179942779541,14.20736Q8.045549942779541,14.27964,8.05277994277954,14.35297Q8.059999942779541,14.42631,8.059999942779541,14.5Z" fill="#FFFFFF" fill-opacity="1"/><path d="M17.49999994277954,12Q17.49999994277954,12.14207,17.49279994277954,12.28345Q17.492199942779543,12.29609,17.492199942779543,12.30876Q17.492199942779543,12.358,17.50179994277954,12.4063Q17.51139994277954,12.4546,17.530299942779543,12.5001Q17.54909994277954,12.5456,17.57649994277954,12.58654Q17.60379994277954,12.62749,17.638599942779543,12.66231Q17.673499942779543,12.69713,17.714399942779544,12.72449Q17.75539994277954,12.751850000000001,17.80089994277954,12.7707Q17.84629994277954,12.789539999999999,17.894599942779543,12.799150000000001Q17.94289994277954,12.80876,17.992199942779543,12.80876Q18.03979994277954,12.80876,18.086599942779543,12.79976Q18.13339994277954,12.790759999999999,18.17769994277954,12.77308Q18.22189994277954,12.755410000000001,18.26199994277954,12.729700000000001Q18.30209994277954,12.70398,18.33669994277954,12.67115Q18.37119994277954,12.63832,18.398899942779543,12.59956Q18.42659994277954,12.5608,18.44649994277954,12.51751Q18.46639994277954,12.47421,18.47779994277954,12.42794Q18.48909994277954,12.38166,18.49159994277954,12.33407Q18.49999994277954,12.16741,18.49999994277954,12Q18.49999994277954,9.30761,16.596199942779542,7.40381Q14.69238994277954,5.499999,11.999999942779542,5.499999Q9.307609942779541,5.5,7.4038099427795405,7.40381Q5.500002942779541,9.30761,5.500002942779541,12Q5.500002942779541,12.33307,5.533398942779541,12.66261L5.533537942779541,12.663979999999999Q5.538801942779541,12.715810000000001,5.554634942779541,12.76544Q5.3372499427795415,12.89432,5.145786442779541,13.08579Q4.559999942779541,13.67157,4.559999942779541,14.5Q4.559999942779541,15.32843,5.145786342779541,15.91421Q5.731573942779541,16.5,6.559999942779541,16.5Q6.907709942779541,16.5,7.2126699427795415,16.3968Q7.306069942779541,16.4985,7.4038099427795405,16.5962Q9.307609942779541,18.5,11.999999942779542,18.5Q12.16738994277954,18.5,12.334069942779541,18.4916Q12.38165994277954,18.4891,12.427929942779542,18.477800000000002Q12.474209942779542,18.4664,12.51749994277954,18.4465Q12.560799942779541,18.4266,12.59955994277954,18.398899999999998Q12.63831994277954,18.3712,12.671149942779541,18.3367Q12.70397994277954,18.3021,12.72969994277954,18.262Q12.75540994277954,18.221899999999998,12.773089942779542,18.1777Q12.790759942779541,18.1334,12.799759942779541,18.0866Q12.808759942779542,18.0398,12.808759942779542,17.9922Q12.808759942779542,17.9429,12.799149942779541,17.8946Q12.78954994277954,17.8463,12.77069994277954,17.800800000000002Q12.75184994277954,17.7554,12.724499942779541,17.714399999999998Q12.69713994277954,17.6735,12.66230994277954,17.6386Q12.62748994277954,17.6038,12.586549942779541,17.5765Q12.54559994277954,17.5491,12.500099942779542,17.5303Q12.454609942779541,17.511400000000002,12.40630994277954,17.5018Q12.35800994277954,17.4922,12.308759942779542,17.4922Q12.296099942779541,17.4922,12.28344994277954,17.492800000000003Q12.14206994277954,17.5,11.999999942779542,17.5Q9.721829942779541,17.5,8.110909942779541,15.88909Q8.081989942779542,15.86016,8.053509942779542,15.83084Q8.559999942779541,15.27031,8.559999942779541,14.5Q8.559999942779541,13.67157,7.974209942779542,13.08579Q7.388429942779541,12.5,6.559999942779541,12.5Q6.541139942779541,12.5,6.522419942779541,12.5003Q6.4999999427795405,12.251439999999999,6.4999999427795405,12Q6.4999999427795405,9.72183,8.11091994277954,8.11091Q9.721829942779541,6.5,11.999999942779542,6.499999Q14.278179942779541,6.5,15.889099942779541,8.11091Q17.49999994277954,9.72183,17.49999994277954,12ZM5.852892942779541,13.79289Q6.145789942779541,13.5,6.559999942779541,13.5Q6.974209942779541,13.5,7.267109942779541,13.79289Q7.559999942779541,14.08579,7.559999942779541,14.5Q7.559999942779541,14.91421,7.267109942779541,15.20711Q6.974209942779541,15.5,6.559999942779541,15.5Q6.145789942779541,15.5,5.852892942779541,15.20711Q5.559999942779541,14.91421,5.559999942779541,14.5Q5.559999942779541,14.08579,5.852892942779541,13.79289Z" fill-rule="evenodd" fill="#FFFFFF" fill-opacity="1"/></g><g><ellipse cx="18" cy="18" rx="3" ry="3" fill-opacity="0" stroke-opacity="1" stroke="#FFFFFF" fill="none" stroke-width="1"/></g><g><path d="M20.853613,20.146506L22.85355,22.14645Q22.92388,22.21677,22.96194,22.30866Q23,22.40054,23,22.5Q23,22.54925,22.99039,22.59754Q22.98078,22.64584,22.96194,22.69134Q22.94309,22.73684,22.91573,22.77778Q22.88838,22.81873,22.85355,22.85355Q22.81873,22.88838,22.77779,22.91573Q22.73684,22.94309,22.69134,22.96194Q22.64584,22.98078,22.59754,22.99039Q22.54925,23,22.5,23Q22.40054,23,22.30866,22.96194Q22.21677,22.92388,22.14645,22.85355L20.146447,20.853553Q20.07612,20.783227,20.03806,20.691342Q20,20.5994562,20,20.5Q20,20.4507543,20.009607,20.4024549Q20.019215,20.354155,20.03806,20.308658Q20.056906,20.263161,20.084265,20.222215Q20.111625,20.181269,20.146447,20.146447Q20.181269,20.111625,20.222215,20.084265Q20.263161,20.056906,20.308658,20.03806Q20.354155,20.019215,20.4024549,20.009607Q20.4507543,20,20.5,20Q20.5994562,20,20.691342,20.03806Q20.783227,20.07612,20.853553,20.146447L20.853613,20.146506Z" fill-rule="evenodd" fill="#FFFFFF" fill-opacity="1"/></g></g></g></svg>