<svg xmlns="http://www.w3.org/2000/svg" xmlns:xlink="http://www.w3.org/1999/xlink" fill="none" version="1.1" width="24" height="24" viewBox="0 0 24 24"><defs><clipPath id="master_svg0_287_2511"><rect x="0" y="0" width="24" height="24" rx="0"/></clipPath></defs><g><g clip-path="url(#master_svg0_287_2511)"><g><path d="M5,3L7,3Q7.04925,3,7.09755,2.990393Q7.14584,2.980785,7.19134,2.9619400000000002Q7.23684,2.943094,7.27778,2.9157349999999997Q7.31873,2.888375,7.35355,2.853553Q7.38837,2.818731,7.41573,2.7777849999999997Q7.44309,2.736839,7.46194,2.691342Q7.48078,2.645845,7.49039,2.597545Q7.5,2.549246,7.5,2.5Q7.5,2.450754,7.49039,2.402455Q7.48078,2.354155,7.46194,2.308658Q7.44309,2.263161,7.41573,2.222215Q7.38837,2.181269,7.35355,2.146447Q7.31873,2.111625,7.27778,2.0842652Q7.23684,2.0569057,7.19134,2.0380602Q7.14584,2.0192147,7.09755,2.00960736Q7.04925,2,7,2L5,2Q3.7573600000000003,2,2.87868,2.87868Q2,3.7573600000000003,2,5L2,6Q2,6.04924,2.00960736,6.09754Q2.0192147,6.14584,2.0380602,6.19134Q2.0569057,6.23684,2.0842652,6.27778Q2.111625,6.31873,2.146447,6.35355Q2.181269,6.38837,2.222215,6.41573Q2.263161,6.44309,2.308658,6.46194Q2.354155,6.48078,2.402455,6.49039Q2.450754,6.5,2.5,6.5Q2.549246,6.5,2.597545,6.49039Q2.645845,6.48078,2.691342,6.46194Q2.736839,6.44309,2.7777849999999997,6.41573Q2.818731,6.38837,2.853553,6.35355Q2.888375,6.31873,2.9157349999999997,6.27778Q2.943094,6.23684,2.9619400000000002,6.19134Q2.980785,6.14584,2.990393,6.09755Q3,6.04925,3,6L3,5Q3,4.17157,3.5857900000000003,3.5857900000000003Q4.17157,3,5,3ZM17,2L19,2Q20.2426,2,21.1213,2.87868Q22,3.7573600000000003,22,5L22,6Q22,6.04924,21.9904,6.09754Q21.9808,6.14584,21.9619,6.19134Q21.9431,6.23684,21.9157,6.27778Q21.8884,6.31873,21.8536,6.35355Q21.8187,6.38837,21.7778,6.41573Q21.7368,6.44309,21.6913,6.46194Q21.6458,6.48078,21.5975,6.49039Q21.5492,6.5,21.5,6.5Q21.4508,6.5,21.4025,6.49039Q21.3542,6.48078,21.3087,6.46194Q21.2632,6.44309,21.2222,6.41573Q21.1813,6.38837,21.1464,6.35355Q21.1116,6.31873,21.0843,6.27778Q21.0569,6.23684,21.0381,6.19134Q21.0192,6.14584,21.0096,6.09755Q21,6.04925,21,6L21,5Q21,4.17157,20.4142,3.5857900000000003Q19.8284,3,19,3L17,3Q16.9508,3,16.9025,2.990393Q16.8542,2.980785,16.8087,2.9619400000000002Q16.763199999999998,2.943094,16.7222,2.9157349999999997Q16.6813,2.888375,16.6464,2.853553Q16.6116,2.818731,16.5843,2.7777849999999997Q16.5569,2.736839,16.5381,2.691342Q16.519199999999998,2.645845,16.5096,2.597545Q16.5,2.549246,16.5,2.5Q16.5,2.450754,16.5096,2.402455Q16.519199999999998,2.354155,16.5381,2.308658Q16.5569,2.263161,16.5843,2.222215Q16.6116,2.181269,16.6464,2.146447Q16.6813,2.111625,16.7222,2.0842652Q16.763199999999998,2.0569057,16.8087,2.0380602Q16.8542,2.0192147,16.9025,2.00960736Q16.9508,2,17,2ZM6.73223,15.7678Q7.46447,16.5,8.5,16.5L15.5,16.5Q16.5355,16.5,17.2678,15.7678Q18,15.0355,18,14L18,9.5Q18,8.87868,17.5607,8.43934Q17.121299999999998,8,16.5,8L14.9281,8Q14.7676,8,14.6785,7.86641L14.1535,7.07889Q13.7676,6.5,13.0719,6.5L10.92815,6.5Q10.23241,6.5,9.84648,7.07889L9.32147,7.86641Q9.23241,8,9.071850000000001,8L7.5,8Q6.87868,8,6.43934,8.43934Q6,8.87868,6,9.5L6,14Q6,15.0355,6.73223,15.7678ZM16.5607,15.0607Q16.121299999999998,15.5,15.5,15.5L8.5,15.5Q7.87868,15.5,7.43934,15.0607Q7,14.6213,7,14L7,9.5Q7,9,7.5,9L9.071850000000001,9Q9.76759,9,10.15352,8.421109999999999L10.67853,7.63359Q10.76759,7.5,10.92815,7.5L13.0719,7.5Q13.2324,7.5,13.3215,7.63359L13.8465,8.421109999999999Q14.2324,9,14.9281,9L16.5,9Q17,9,17,9.5L17,14Q17,14.6213,16.5607,15.0607ZM12,13.5Q12.0737,13.5,12.147,13.4928Q12.2204,13.4856,12.2926,13.4712Q12.3649,13.4568,12.4354,13.4354Q12.5059,13.414,12.574,13.3858Q12.6421,13.3576,12.7071,13.3229Q12.7721,13.2881,12.8334,13.2472Q12.8946,13.2063,12.9516,13.1595Q13.0086,13.1128,13.0607,13.0607Q13.1128,13.0086,13.1595,12.9516Q13.2063,12.8946,13.2472,12.8334Q13.2881,12.7721,13.3229,12.7071Q13.3576,12.6421,13.3858,12.574Q13.414,12.5059,13.4354,12.4354Q13.4568,12.3649,13.4712,12.2926Q13.4856,12.2204,13.4928,12.147Q13.5,12.0737,13.5,12Q13.5,11.92631,13.4928,11.85297Q13.4856,11.77964,13.4712,11.70736Q13.4568,11.63509,13.4354,11.56457Q13.414,11.49405,13.3858,11.42597Q13.3576,11.35789,13.3229,11.2929Q13.2881,11.22792,13.2472,11.16664Q13.2063,11.10537,13.1595,11.04841Q13.1128,10.99145,13.0607,10.93934Q13.0086,10.88723,12.9516,10.84048Q12.8946,10.79374,12.8334,10.7528Q12.7721,10.71185,12.7071,10.67712Q12.6421,10.64238,12.574,10.61418Q12.5059,10.58598,12.4354,10.56459Q12.3649,10.5432,12.2926,10.52882Q12.2204,10.51445,12.147,10.50722Q12.0737,10.5,12,10.5Q11.92631,10.5,11.85297,10.50722Q11.77964,10.51445,11.70736,10.52882Q11.63509,10.5432,11.56457,10.56459Q11.49405,10.58598,11.42597,10.61418Q11.35789,10.64238,11.2929,10.67712Q11.22792,10.71185,11.16664,10.7528Q11.10537,10.79374,11.04841,10.84048Q10.99145,10.88723,10.93934,10.93934Q10.88723,10.99145,10.84048,11.04841Q10.79373,11.10537,10.75279,11.16664Q10.71185,11.22792,10.67712,11.2929Q10.64238,11.35789,10.61418,11.42597Q10.58598,11.49405,10.56459,11.56457Q10.5432,11.63509,10.52882,11.70736Q10.51445,11.77964,10.50722,11.85297Q10.5,11.92631,10.5,12Q10.5,12.0737,10.50722,12.147Q10.51445,12.2204,10.52882,12.2926Q10.5432,12.3649,10.56459,12.4354Q10.58598,12.5059,10.61418,12.574Q10.64238,12.6421,10.67712,12.7071Q10.71185,12.7721,10.75279,12.8334Q10.79373,12.8946,10.84048,12.9516Q10.88723,13.0086,10.93934,13.0607Q10.99145,13.1128,11.04841,13.1595Q11.10537,13.2063,11.16664,13.2472Q11.22792,13.2881,11.2929,13.3229Q11.35789,13.3576,11.42597,13.3858Q11.49405,13.414,11.56457,13.4354Q11.63509,13.4568,11.70736,13.4712Q11.77964,13.4856,11.85297,13.4928Q11.92631,13.5,12,13.5ZM2,18Q2,17.9508,2.00960736,17.9025Q2.0192147,17.8542,2.0380602,17.8087Q2.0569057,17.763199999999998,2.0842652,17.7222Q2.111625,17.6813,2.146447,17.6464Q2.181269,17.6116,2.222215,17.5843Q2.263161,17.5569,2.308658,17.5381Q2.354155,17.519199999999998,2.402455,17.5096Q2.450754,17.5,2.5,17.5Q2.549246,17.5,2.597545,17.5096Q2.645845,17.519199999999998,2.691342,17.5381Q2.736839,17.5569,2.7777849999999997,17.5843Q2.818731,17.6116,2.853553,17.6464Q2.888375,17.6813,2.9157349999999997,17.7222Q2.943094,17.763199999999998,2.9619400000000002,17.8087Q2.980785,17.8542,2.990393,17.9025Q3,17.9508,3,18L3,19Q3,19.8284,3.5857900000000003,20.4142Q4.17157,21,5,21L7,21Q7.04925,21,7.09755,21.0096Q7.14584,21.0192,7.19134,21.0381Q7.23684,21.0569,7.27778,21.0843Q7.31873,21.1116,7.35355,21.1464Q7.38837,21.1813,7.41573,21.2222Q7.44309,21.2632,7.46194,21.3087Q7.48078,21.3542,7.49039,21.4025Q7.5,21.4508,7.5,21.5Q7.5,21.5492,7.49039,21.5975Q7.48078,21.6458,7.46194,21.6913Q7.44309,21.7368,7.41573,21.7778Q7.38837,21.8187,7.35355,21.8536Q7.31873,21.8884,7.27778,21.9157Q7.23684,21.9431,7.19134,21.9619Q7.14584,21.9808,7.09755,21.9904Q7.04925,22,7,22L5,22Q3.7573600000000003,22,2.87868,21.1213Q2,20.2426,2,19L2,18ZM21,18Q21,17.9508,21.0096,17.9025Q21.0192,17.8542,21.0381,17.8087Q21.0569,17.763199999999998,21.0843,17.7222Q21.1116,17.6813,21.1464,17.6464Q21.1813,17.6116,21.2222,17.5843Q21.2632,17.5569,21.3087,17.5381Q21.3542,17.519199999999998,21.4025,17.5096Q21.4508,17.5,21.5,17.5Q21.5492,17.5,21.5975,17.5096Q21.6458,17.519199999999998,21.6913,17.5381Q21.7368,17.5569,21.7778,17.5843Q21.8187,17.6116,21.8536,17.6464Q21.8884,17.6813,21.9157,17.7222Q21.9431,17.763199999999998,21.9619,17.8087Q21.9808,17.8542,21.9904,17.9025Q22,17.9508,22,18L22,19Q22,20.2426,21.1213,21.1213Q20.2426,22,19,22L17,22Q16.9508,22,16.9025,21.9904Q16.8542,21.9808,16.8087,21.9619Q16.763199999999998,21.9431,16.7222,21.9157Q16.6813,21.8884,16.6464,21.8536Q16.6116,21.8187,16.5843,21.7778Q16.5569,21.7368,16.5381,21.6913Q16.519199999999998,21.6458,16.5096,21.5975Q16.5,21.5492,16.5,21.5Q16.5,21.4508,16.5096,21.4025Q16.519199999999998,21.3542,16.5381,21.3087Q16.5569,21.2632,16.5843,21.2222Q16.6116,21.1813,16.6464,21.1464Q16.6813,21.1116,16.7222,21.0843Q16.763199999999998,21.0569,16.8087,21.0381Q16.8542,21.0192,16.9025,21.0096Q16.9508,21,17,21L19,21Q19.8284,21,20.4142,20.4142Q21,19.8284,21,19L21,18Z" fill-rule="evenodd" fill="#FFFFFF" fill-opacity="1" style="mix-blend-mode:passthrough"/></g></g></g></svg>