<svg xmlns="http://www.w3.org/2000/svg" xmlns:xlink="http://www.w3.org/1999/xlink" fill="none" version="1.1" width="24" height="24" viewBox="0 0 24 24"><defs><clipPath id="master_svg0_287_2453"><rect x="0" y="0" width="24" height="24" rx="0"/></clipPath></defs><g clip-path="url(#master_svg0_287_2453)"><g><path d="M5.48466,23L8.70612,23C9.73591,23,10.19078,22.5863,10.19078,21.6127L10.19078,2.38345C10.19078,1.404187,9.73591,1,8.70612,1L5.48466,1C4.454873,1,4,1.419928,4,2.38345L4,21.6127C4,22.5863,4.454873,23,5.48466,23ZM15.3089,23L18.5154,23C19.5601,23,20,22.5863,20,21.6127L20,2.38345C20,1.404187,19.5601,1,18.5154,1L15.3089,1C14.2641,1,13.80917,1.419928,13.80917,2.38345L13.80917,21.6127C13.80917,22.5863,14.2641,23,15.3089,23Z" fill="#FFFFFF" fill-opacity="0.699999988079071" style="mix-blend-mode:passthrough"/></g></g></svg>