<svg xmlns="http://www.w3.org/2000/svg" xmlns:xlink="http://www.w3.org/1999/xlink" fill="none" version="1.1" width="40" height="40" viewBox="0 0 40 40"><defs><clipPath id="master_svg0_287_2477"><rect x="0" y="0" width="40" height="40" rx="0"/></clipPath></defs><g clip-path="url(#master_svg0_287_2477)"><g><path d="M19.5,1.25Q19.5,1.2007539999999999,19.5096,1.152455Q19.5192,1.104155,19.5381,1.0586579999999999Q19.5569,1.013161,19.5843,0.972215Q19.6116,0.931269,19.6464,0.896447Q19.6813,0.861625,19.7222,0.8342652Q19.7632,0.8069057,19.8087,0.7880602Q19.8542,0.7692147,19.9025,0.75960736Q19.9508,0.75,20,0.75Q20.0492,0.75,20.0975,0.75960736Q20.1458,0.7692147,20.1913,0.7880602Q20.2368,0.8069057,20.2778,0.8342652Q20.3187,0.861625,20.3536,0.896447Q20.3884,0.931269,20.4157,0.972215Q20.4431,1.013161,20.4619,1.0586579999999999Q20.4808,1.104155,20.4904,1.152455Q20.5,1.2007539999999999,20.5,1.25L20.5,2.84066Q20.9056,2.85248,21.3102,2.88345Q21.7148,2.91442,22.1175,2.96448Q22.5202,3.01453,22.92,3.08356Q23.3199,3.15258,23.7161,3.24042Q24.1122,3.32826,24.5038,3.43472Q24.8953,3.54118,25.2814,3.66603Q25.6675,3.79087,26.0473,3.93382Q26.4271,4.07676,26.7997,4.23749Q27.1723,4.39822,27.5368,4.57638Q27.9014,4.75453,28.2572,4.94971Q28.6129,5.1449,28.9591,5.35667Q29.3052,5.56844,29.6409,5.79633Q29.9767,6.02422,30.3013,6.26772Q30.6259,6.51122,30.9386,6.76979Q31.2513,7.02835,31.5515,7.30141Q31.8517,7.57446,32.1386,7.86139Q32.4255,8.14832,32.6986,8.44848Q32.9716,8.74865,33.2302,9.06138Q33.4888,9.37412,33.7323,9.69872Q33.9758,10.02332,34.2036,10.35906Q34.4315,10.6948,34.6433,11.0409Q34.8551,11.3871,35.0503,11.7428Q35.2454,12.0986,35.4236,12.4632Q35.6018,12.8277,35.7625,13.2003Q35.9232,13.5729,36.0662,13.9527Q36.2091,14.3325,36.334,14.7186Q36.4588,15.1047,36.5653,15.4962Q36.6717,15.8878,36.7595,16.2839Q36.8474,16.6801,36.9164,17.08Q36.9854,17.4798,37.0355,17.8825Q37.0855,18.2852,37.1165,18.6898Q37.1475,19.0944,37.1593,19.5L38.75,19.5Q38.7992,19.5,38.8475,19.5096Q38.8958,19.5192,38.9413,19.5381Q38.9868,19.5569,39.0278,19.5843Q39.0687,19.6116,39.1035,19.6464Q39.1384,19.6813,39.1657,19.7222Q39.1931,19.7632,39.2119,19.8087Q39.2308,19.8542,39.2404,19.9025Q39.25,19.9508,39.25,20Q39.25,20.0492,39.2404,20.0975Q39.2308,20.1458,39.2119,20.1913Q39.1931,20.2368,39.1657,20.2778Q39.1384,20.3187,39.1035,20.3536Q39.0687,20.3884,39.0278,20.4157Q38.9868,20.4431,38.9413,20.4619Q38.8958,20.4808,38.8475,20.4904Q38.7992,20.5,38.75,20.5L37.1593,20.5Q37.1475,20.9056,37.1165,21.3102Q37.0856,21.7148,37.0355,22.1175Q36.9854,22.5202,36.9164,22.92Q36.8474,23.3199,36.7596,23.7161Q36.6717,24.1122,36.5653,24.5038Q36.4588,24.8954,36.334,25.2815Q36.2091,25.6676,36.0662,26.0473Q35.9232,26.4271,35.7625,26.7997Q35.6018,27.1723,35.4236,27.5369Q35.2455,27.9014,35.0503,28.2572Q34.8551,28.613,34.6433,28.9591Q34.4316,29.3052,34.2037,29.641Q33.9758,29.9767,33.7323,30.3013Q33.4888,30.6259,33.2302,30.9387Q32.9717,31.2514,32.6986,31.5516Q32.4256,31.8517,32.1386,32.1387Q31.8517,32.4256,31.5515,32.6987Q31.2514,32.9717,30.9386,33.2303Q30.6259,33.4888,30.3013,33.7323Q29.9767,33.9758,29.641,34.2037Q29.3052,34.4316,28.9591,34.6434Q28.6129,34.8552,28.2572,35.0504Q27.9014,35.2455,27.5368,35.4237Q27.1723,35.6019,26.7997,35.7626Q26.4271,35.9233,26.0473,36.0663Q25.6676,36.2092,25.2815,36.334Q24.8953,36.4589,24.5038,36.5654Q24.1122,36.6718,23.7161,36.7597Q23.3199,36.8475,22.92,36.9165Q22.5202,36.9855,22.1175,37.0356Q21.7148,37.0857,21.3102,37.1166Q20.9056,37.1476,20.5,37.1594L20.5,38.75Q20.5,38.7992,20.4904,38.8475Q20.4808,38.8958,20.4619,38.9413Q20.4431,38.9868,20.4157,39.0278Q20.3884,39.0687,20.3536,39.1035Q20.3187,39.1384,20.2778,39.1657Q20.2368,39.1931,20.1913,39.2119Q20.1458,39.2308,20.0975,39.2404Q20.0492,39.25,20,39.25Q19.9508,39.25,19.9025,39.2404Q19.8542,39.2308,19.8087,39.2119Q19.7632,39.1931,19.7222,39.1657Q19.6813,39.1384,19.6464,39.1035Q19.6116,39.0687,19.5843,39.0278Q19.5569,38.9868,19.5381,38.9413Q19.5192,38.8958,19.5096,38.8475Q19.5,38.7992,19.5,38.75L19.5,37.1594Q19.0944,37.1476,18.6898,37.1166Q18.2852,37.0857,17.8825,37.0356Q17.4798,36.9856,17.0799,36.9165Q16.6801,36.8475,16.2839,36.7597Q15.8878,36.6719,15.4962,36.5654Q15.1046,36.4589,14.7185,36.3341Q14.3324,36.2093,13.9526,36.0663Q13.5729,35.9234,13.2003,35.7626Q12.8277,35.6019,12.4631,35.4238Q12.0985,35.2456,11.7427,35.0504Q11.387,34.8552,11.0408,34.6435Q10.69471,34.4317,10.35896,34.2038Q10.02322,33.9759,9.69861,33.7324Q9.37401,33.4889,9.06127,33.2303Q8.74854,32.9718,8.44837,32.6987Q8.1482,32.4257,7.86127,32.1387Q7.57433,31.8518,7.30128,31.5516Q7.02822,31.2515,6.76966,30.9387Q6.51109,30.626,6.26759,30.3014Q6.02409,29.9768,5.79619,29.641Q5.5683,29.3053,5.35653,28.9591Q5.14475,28.613,4.94957,28.2572Q4.75439,27.9015,4.57623,27.5369Q4.39808,27.1723,4.23735,26.7997Q4.07662,26.4271,3.93367,26.0474Q3.79072,25.6676,3.66588,25.2815Q3.54104,24.8954,3.43458,24.5038Q3.32812,24.1122,3.24028,23.7161Q3.15244,23.3199,3.08342,22.9201Q3.0144,22.5202,2.96434,22.1175Q2.91429,21.7148,2.88332,21.3102Q2.85235,20.9056,2.84053,20.5L1.25,20.5Q1.2007539999999999,20.5,1.152455,20.4904Q1.104155,20.4808,1.0586579999999999,20.4619Q1.013161,20.4431,0.972215,20.4157Q0.931269,20.3884,0.896447,20.3536Q0.861625,20.3187,0.8342652,20.2778Q0.8069057,20.2368,0.7880602,20.1913Q0.7692147,20.1458,0.75960736,20.0975Q0.75,20.0492,0.75,20Q0.75,19.9508,0.75960736,19.9025Q0.7692147,19.8542,0.7880602,19.8087Q0.8069057,19.7632,0.8342652,19.7222Q0.861625,19.6813,0.896447,19.6464Q0.931269,19.6116,0.972215,19.5843Q1.013161,19.5569,1.0586579999999999,19.5381Q1.104155,19.5192,1.152455,19.5096Q1.2007539999999999,19.5,1.25,19.5L2.84054,19.5Q2.85236,19.0944,2.88333,18.6898Q2.9143,18.2852,2.96435,17.8825Q3.01441,17.4798,3.08343,17.08Q3.15246,16.6801,3.2403,16.2839Q3.32814,15.8878,3.4346,15.4962Q3.54106,15.1046,3.6659,14.7185Q3.79075,14.3324,3.93369,13.9527Q4.076639999999999,13.5729,4.23737,13.2003Q4.3980999999999995,12.8277,4.5762599999999996,12.4631Q4.75441,12.0985,4.9496,11.7428Q5.14478,11.387,5.35656,11.0409Q5.56833,10.69476,5.79622,10.35901Q6.02412,10.02327,6.26762,9.69867Q6.51112,9.37406,6.76969,9.06133Q7.02825,8.7486,7.30131,8.44843Q7.57436,8.14826,7.8613,7.86133Q8.14823,7.5744,8.4484,7.30135Q8.74857,7.02829,9.0613,6.76973Q9.37404,6.51117,9.69864,6.26767Q10.02324,6.02417,10.35899,5.79628Q10.69474,5.56839,11.0409,5.35661Q11.387,5.14484,11.7428,4.94966Q12.0985,4.75448,12.4631,4.5763300000000005Q12.8277,4.39817,13.2003,4.237439999999999Q13.5729,4.07672,13.9527,3.93377Q14.3324,3.79083,14.7185,3.66599Q15.1046,3.54115,15.4962,3.43469Q15.8878,3.32823,16.2839,3.24039Q16.6801,3.15255,17.08,3.08353Q17.4798,3.01451,17.8825,2.96446Q18.2852,2.91441,18.6898,2.88344Q19.0944,2.85247,19.5,2.84065L19.5,1.25ZM19.5,3.84111Q19.119,3.85289,18.7389,3.88263Q18.3588,3.91237,17.9806,3.95999Q17.6023,4.00761,17.2267,4.073Q16.8511,4.1384,16.479100000000003,4.22143Q16.107,4.30445,15.7392,4.40493Q15.3715,4.5054,15.0089,4.6231Q14.6462,4.7407900000000005,14.2896,4.87545Q13.9329,5.01011,13.583,5.16143Q13.2331,5.31275,12.8907,5.4804Q12.5483,5.64804,12.2142,5.83164Q11.8801,6.01524,11.555,6.21438Q11.2299,6.41353,10.9146,6.62777Q10.59924,6.84202,10.29435,7.07089Q9.98946,7.29976,9.6957,7.54275Q9.40194,7.78574,9.11996,8.042300000000001Q8.83798,8.29887,8.5684,8.568439999999999Q8.298829999999999,8.83801,8.042259999999999,9.11999Q7.78569,9.40197,7.5427,9.69573Q7.29971,9.98949,7.07084,10.29437Q6.84197,10.59926,6.62772,10.9146Q6.41347,11.2299,6.21432,11.555Q6.01518,11.8801,5.83158,12.2142Q5.64798,12.5483,5.48033,12.8907Q5.31268,13.2331,5.16136,13.583Q5.01003,13.9329,4.87537,14.2896Q4.74071,14.6463,4.62301,15.0089Q4.50531,15.3715,4.40484,15.7392Q4.30436,16.107,4.22133,16.479100000000003Q4.1383,16.8511,4.072900000000001,17.2267Q4.0075,17.6023,3.95988,17.9806Q3.91226,18.3588,3.88252,18.7389Q3.85278,19.119,3.84099,19.5L10,19.5Q10.04924,19.5,10.09754,19.5096Q10.14584,19.5192,10.19134,19.5381Q10.23684,19.5569,10.27778,19.5843Q10.31873,19.6116,10.35355,19.6464Q10.38837,19.6813,10.41573,19.7222Q10.44309,19.7632,10.46194,19.8087Q10.48078,19.8542,10.49039,19.9025Q10.5,19.9508,10.5,20Q10.5,20.0492,10.49039,20.0975Q10.48078,20.1458,10.46194,20.1913Q10.44309,20.2368,10.41573,20.2778Q10.38837,20.3187,10.35355,20.3536Q10.31873,20.3884,10.27778,20.4157Q10.23684,20.4431,10.19134,20.4619Q10.14584,20.4808,10.09754,20.4904Q10.04924,20.5,10,20.5L3.84098,20.5Q3.85277,20.8811,3.88251,21.2611Q3.91225,21.6412,3.95987,22.0194Q4.007490000000001,22.3977,4.07289,22.7733Q4.13829,23.1489,4.22132,23.5209Q4.30434,23.893,4.40482,24.2608Q4.5052900000000005,24.6285,4.62299,24.9912Q4.74069,25.3538,4.87535,25.7104Q5.01001,26.0671,5.16133,26.417Q5.31265,26.7669,5.4803,27.1093Q5.64795,27.4517,5.83155,27.7858Q6.01515,28.1199,6.21429,28.445Q6.41344,28.7701,6.62769,29.0854Q6.84194,29.4008,7.07081,29.7057Q7.29968,30.0106,7.54267,30.3043Q7.78566,30.5981,8.04223,30.8801Q8.2988,31.162,8.56837,31.4316Q8.83795,31.7012,9.11993,31.9578Q9.40191,32.2143,9.69567,32.457300000000004Q9.98943,32.7003,10.29432,32.9292Q10.59921,33.1581,10.9145,33.3723Q11.2299,33.5865,11.555,33.7857Q11.8801,33.9848,12.2142,34.1684Q12.5483,34.352,12.8907,34.5197Q13.2331,34.6873,13.583,34.8386Q13.9329,34.99,14.2896,35.1246Q14.6462,35.2593,15.0088,35.377Q15.3715,35.4947,15.7392,35.5952Q16.107,35.6956,16.479100000000003,35.7787Q16.8511,35.8617,17.2267,35.9271Q17.6023,35.9925,17.9806,36.0401Q18.3588,36.0877,18.7389,36.1175Q19.1189,36.1472,19.5,36.159L19.5,30Q19.5,29.9508,19.5096,29.9025Q19.5192,29.8542,19.5381,29.8087Q19.5569,29.7632,19.5843,29.7222Q19.6116,29.6813,19.6464,29.6464Q19.6813,29.6116,19.7222,29.5843Q19.7632,29.5569,19.8087,29.5381Q19.8542,29.5192,19.9025,29.5096Q19.9508,29.5,20,29.5Q20.0492,29.5,20.0975,29.5096Q20.1458,29.5192,20.1913,29.5381Q20.2368,29.5569,20.2778,29.5843Q20.3187,29.6116,20.3536,29.6464Q20.3884,29.6813,20.4157,29.7222Q20.4431,29.7632,20.4619,29.8087Q20.4808,29.8542,20.4904,29.9025Q20.5,29.9508,20.5,30L20.5,36.159Q20.8811,36.1472,21.2611,36.1174Q21.6412,36.0877,22.0194,36.0401Q22.3977,35.9925,22.7733,35.9271Q23.1488,35.8617,23.5209,35.7786Q23.893,35.6956,24.2608,35.5951Q24.6285,35.4946,24.9911,35.3769Q25.3537,35.2592,25.7104,35.1246Q26.067,34.9899,26.417,34.8386Q26.7669,34.6873,27.1093,34.5196Q27.4517,34.352,27.7858,34.1684Q28.1199,33.9848,28.445,33.7856Q28.77,33.5865,29.0854,33.3722Q29.4007,33.158,29.7056,32.9291Q30.0105,32.700199999999995,30.3042,32.457300000000004Q30.598,32.2143,30.88,31.9577Q31.162,31.7011,31.4315,31.4316Q31.7011,31.162,31.9577,30.88Q32.214200000000005,30.598,32.4572,30.3043Q32.700199999999995,30.0105,32.9291,29.7056Q33.1579,29.4007,33.3722,29.0854Q33.5864,28.7701,33.7856,28.445Q33.9847,28.1199,34.1683,27.7858Q34.3519,27.4517,34.5196,27.1093Q34.6872,26.7669,34.8385,26.417Q34.9898,26.0671,35.1245,25.7104Q35.2592,25.3537,35.3769,24.9911Q35.4946,24.6285,35.595,24.2608Q35.6955,23.893,35.7785,23.5209Q35.8616,23.1488,35.927,22.7733Q35.9924,22.3977,36.04,22.0194Q36.0876,21.6412,36.1173,21.2611Q36.1471,20.8811,36.1589,20.5L30,20.5Q29.9508,20.5,29.9025,20.4904Q29.8542,20.4808,29.8087,20.4619Q29.7632,20.4431,29.7222,20.4157Q29.6813,20.3884,29.6464,20.3536Q29.6116,20.3187,29.5843,20.2778Q29.5569,20.2368,29.5381,20.1913Q29.5192,20.1458,29.5096,20.0975Q29.5,20.0492,29.5,20Q29.5,19.9508,29.5096,19.9025Q29.5192,19.8542,29.5381,19.8087Q29.5569,19.7632,29.5843,19.7222Q29.6116,19.6813,29.6464,19.6464Q29.6813,19.6116,29.7222,19.5843Q29.7632,19.5569,29.8087,19.5381Q29.8542,19.5192,29.9025,19.5096Q29.9508,19.5,30,19.5L36.1589,19.5Q36.1471,19.119,36.1173,18.7389Q36.0876,18.3588,36.04,17.9806Q35.9923,17.6023,35.9269,17.2267Q35.8615,16.8512,35.7785,16.479100000000003Q35.6955,16.107,35.595,15.7393Q35.4945,15.3715,35.3768,15.0089Q35.2591,14.6463,35.1245,14.2896Q34.9898,13.933,34.8385,13.5831Q34.6872,13.2331,34.5195,12.8908Q34.3519,12.5484,34.1683,12.2143Q33.9847,11.8801,33.7856,11.5551Q33.5864,11.23,33.3722,10.9146Q33.1579,10.59931,32.929,10.29443Q32.700199999999995,9.98954,32.4572,9.69578Q32.214200000000005,9.40202,31.9576,9.12005Q31.7011,8.83807,31.4315,8.5685Q31.1619,8.298919999999999,30.88,8.04236Q30.598,7.78579,30.3042,7.54281Q30.0105,7.29982,29.7056,7.07095Q29.4007,6.84207,29.0854,6.62783Q28.77,6.41358,28.4449,6.21444Q28.1199,6.01529,27.7857,5.83169Q27.4516,5.64809,27.1092,5.48045Q26.7669,5.3128,26.4169,5.16148Q26.067,5.01016,25.7104,4.8755Q25.3537,4.74084,24.9911,4.623139999999999Q24.6285,4.50544,24.2608,4.40496Q23.893,4.3044899999999995,23.5209,4.22146Q23.1488,4.13843,22.7733,4.07303Q22.3977,4.00763,22.0194,3.96001Q21.6412,3.91238,21.2611,3.88264Q20.8811,3.8529,20.5,3.84111L20.5,10Q20.5,10.04924,20.4904,10.09754Q20.4808,10.14584,20.4619,10.19134Q20.4431,10.23684,20.4157,10.27778Q20.3884,10.31873,20.3536,10.35355Q20.3187,10.38837,20.2778,10.41573Q20.2368,10.44309,20.1913,10.46194Q20.1458,10.48078,20.0975,10.49039Q20.0492,10.5,20,10.5Q19.9508,10.5,19.9025,10.49039Q19.8542,10.48078,19.8087,10.46194Q19.7632,10.44309,19.7222,10.41573Q19.6813,10.38837,19.6464,10.35355Q19.6116,10.31873,19.5843,10.27778Q19.5569,10.23684,19.5381,10.19134Q19.5192,10.14584,19.5096,10.09754Q19.5,10.04924,19.5,10L19.5,3.84111Z" fill-rule="evenodd" fill="#F48123" fill-opacity="0.699999988079071" style="mix-blend-mode:passthrough"/></g></g></svg>