<svg xmlns="http://www.w3.org/2000/svg" xmlns:xlink="http://www.w3.org/1999/xlink" fill="none" version="1.1" width="56" height="56" viewBox="0 0 56 56"><defs><linearGradient x1="0.5" y1="0" x2="0.5" y2="1" id="master_svg0_31_704"><stop offset="0%" stop-color="#151515" stop-opacity="1"/><stop offset="100%" stop-color="#333333" stop-opacity="1"/></linearGradient><clipPath id="master_svg1_287_2188"><rect x="40" y="40" width="24" height="24" rx="0"/></clipPath></defs><g><g transform="matrix(1,0,0,-1,0,112)" style="opacity:0.699999988079071;"><ellipse cx="28" cy="84" rx="28" ry="28" fill="url(#master_svg0_31_704)" fill-opacity="1"/><path d="M56,84Q56,84.6874,55.9663,85.37389999999999Q55.9325,86.0604,55.8652,86.7445Q55.7978,87.4285,55.6969,88.10849999999999Q55.5961,88.7884,55.462,89.4625Q55.3279,90.13669999999999,55.1609,90.80340000000001Q54.9939,91.4702,54.7943,92.128Q54.5948,92.78569999999999,54.3632,93.43289999999999Q54.1317,94.0801,53.8686,94.7151Q53.6056,95.3502,53.3117,95.97149999999999Q53.0178,96.5929,52.6938,97.1991Q52.3698,97.8053,52.0164,98.3949Q51.663,98.9844,51.2811,99.556Q50.8993,100.1275,50.4898,100.6796Q50.0803,101.23169999999999,49.6443,101.763Q49.2082,102.29429999999999,48.7466,102.8036Q48.285,103.3129,47.799,103.799Q47.3129,104.285,46.8036,104.7466Q46.2943,105.2082,45.763,105.6443Q45.2317,106.0803,44.6796,106.4898Q44.1275,106.8993,43.556,107.28110000000001Q42.9844,107.663,42.3949,108.0164Q41.8053,108.3698,41.1991,108.69380000000001Q40.5929,109.0178,39.9715,109.3117Q39.3502,109.60560000000001,38.7151,109.8686Q38.0801,110.1317,37.4329,110.3632Q36.7857,110.59479999999999,36.128,110.79429999999999Q35.4702,110.9939,34.8034,111.1609Q34.1367,111.3279,33.4625,111.462Q32.7884,111.5961,32.1085,111.6969Q31.4285,111.7978,30.7445,111.8652Q30.0604,111.9325,29.3739,111.96629999999999Q28.6874,112,28,112Q27.3126,112,26.6261,111.96629999999999Q25.9396,111.9325,25.2555,111.8652Q24.5715,111.7978,23.8915,111.6969Q23.2116,111.5961,22.5375,111.462Q21.8633,111.3279,21.1966,111.1609Q20.5298,110.9939,19.872,110.79429999999999Q19.2143,110.59479999999999,18.5671,110.3632Q17.9199,110.1317,17.2849,109.8686Q16.6498,109.60560000000001,16.0285,109.3117Q15.4071,109.0178,14.8009,108.69380000000001Q14.1947,108.3698,13.6051,108.0164Q13.0156,107.663,12.444,107.28110000000001Q11.8725,106.8993,11.3204,106.4898Q10.7683,106.0803,10.237,105.6443Q9.70565,105.2082,9.19635,104.7466Q8.68705,104.285,8.20101,103.799Q7.71497,103.3129,7.25337,102.8036Q6.79176,102.29429999999999,6.35571,101.763Q5.91965,101.23169999999999,5.51019,100.6796Q5.10073,100.1275,4.71885,99.556Q4.33697,98.9844,3.9836,98.3949Q3.63022,97.8053,3.3062,97.1991Q2.98218,96.5929,2.6883,95.97149999999999Q2.39441,95.3502,2.13137,94.7151Q1.86833,94.0801,1.63677,93.43289999999999Q1.4052,92.78569999999999,1.20567,92.128Q1.00614,91.4702,0.839125,90.80340000000001Q0.67211,90.13669999999999,0.538012,89.4625Q0.403914,88.7884,0.303058,88.10849999999999Q0.202201,87.4285,0.134828,86.7445Q0.0674544,86.0604,0.0337272,85.37389999999999Q0,84.6874,0,84Q0,83.3126,0.0337272,82.62610000000001Q0.0674544,81.9396,0.134828,81.2555Q0.202201,80.5715,0.303058,79.89150000000001Q0.403914,79.2116,0.538012,78.5375Q0.67211,77.8633,0.839125,77.1966Q1.00614,76.5298,1.20567,75.872Q1.4052,75.21430000000001,1.63677,74.5671Q1.86833,73.9199,2.13137,73.2849Q2.39441,72.6498,2.6883,72.02850000000001Q2.98218,71.4071,3.3062,70.8009Q3.63022,70.1947,3.9836,69.6051Q4.33697,69.0156,4.71885,68.444Q5.10073,67.8725,5.51019,67.3204Q5.91965,66.7683,6.35571,66.237Q6.79176,65.70565,7.25337,65.19635Q7.71497,64.68705,8.20101,64.20101Q8.68705,63.71497,9.19635,63.253370000000004Q9.70565,62.79176,10.237,62.35571Q10.7683,61.91965,11.3204,61.51019Q11.8725,61.10073,12.444,60.71885Q13.0156,60.33697,13.6051,59.9836Q14.1947,59.63022,14.8009,59.3062Q15.4071,58.98218,16.0285,58.6883Q16.6498,58.39441,17.2849,58.13137Q17.9199,57.86833,18.5671,57.63677Q19.2143,57.4052,19.872,57.20567Q20.5298,57.00614,21.1966,56.839125Q21.8633,56.67211,22.5375,56.538012Q23.2116,56.403914,23.8915,56.303058Q24.5715,56.202201,25.2555,56.134828Q25.9396,56.0674544,26.6261,56.0337272Q27.3126,56,28,56Q28.6874,56,29.3739,56.0337272Q30.0604,56.0674544,30.7445,56.134828Q31.4285,56.202201,32.1085,56.303058Q32.7884,56.403914,33.4625,56.538012Q34.1367,56.67211,34.8034,56.839125Q35.4702,57.00614,36.128,57.20567Q36.7857,57.4052,37.4329,57.63677Q38.0801,57.86833,38.7151,58.13137Q39.3502,58.39441,39.9715,58.6883Q40.5929,58.98218,41.1991,59.3062Q41.8053,59.63022,42.3949,59.9836Q42.9844,60.33697,43.556,60.71885Q44.1275,61.10073,44.6796,61.51019Q45.2317,61.91965,45.763,62.35571Q46.2943,62.79176,46.8036,63.253370000000004Q47.3129,63.71497,47.799,64.20101Q48.285,64.68705,48.7466,65.19635Q49.2082,65.70565,49.6443,66.237Q50.0803,66.7683,50.4898,67.3204Q50.8993,67.8725,51.2811,68.444Q51.663,69.0156,52.0164,69.6051Q52.3698,70.1947,52.6938,70.8009Q53.0178,71.4071,53.3117,72.02850000000001Q53.6056,72.6498,53.8686,73.2849Q54.1317,73.9199,54.3632,74.5671Q54.5948,75.21430000000001,54.7943,75.872Q54.9939,76.5298,55.1609,77.1966Q55.3279,77.8633,55.462,78.5375Q55.5961,79.2116,55.6969,79.89150000000001Q55.7978,80.5715,55.8652,81.2555Q55.9325,81.9396,55.9663,82.62610000000001Q56,83.3126,56,84ZM55,84Q55,83.3372,54.9675,82.6752Q54.935,82.0132,54.87,81.3535Q54.805,80.6939,54.7078,80.03829999999999Q54.6105,79.3826,54.4812,78.7326Q54.3519,78.0825,54.1908,77.4395Q54.0298,76.7966,53.8374,76.1623Q53.645,75.52799999999999,53.4217,74.904Q53.1984,74.2799,52.9447,73.6675Q52.6911,73.0552,52.4077,72.456Q52.1243,71.85679999999999,51.8119,71.2723Q51.4994,70.6877,51.1587,70.1192Q50.8179,69.5507,50.4497,68.9996Q50.0814,68.4485,49.6866,67.9161Q49.2918,67.3837,48.8713,66.8714Q48.4508,66.359,48.0057,65.86791Q47.5606,65.3768,47.0919,64.90812Q46.6232,64.43944,46.1321,63.99432Q45.641,63.5492,45.1286,63.12872Q44.6163,62.70823,44.0839,62.3134Q43.5515,61.91856,43.0004,61.55032Q42.4493,61.18208,41.8808,60.84133Q41.3123,60.500569999999996,40.7277,60.18813Q40.1432,59.87568,39.544,59.59229Q38.9448,59.3089,38.3324,59.05525Q37.7201,58.8016,37.096,58.57831Q36.472,58.35502,35.8377,58.16261Q35.2034,57.97021,34.5605,57.80916Q33.9175,57.64811,33.2674,57.5188Q32.6174,57.38949,31.9617,57.29223Q31.3061,57.19498,30.6465,57.13001Q29.9868,57.06505,29.3248,57.03252Q28.6628,57,28,57Q27.3372,57,26.6752,57.03252Q26.0132,57.06505,25.3535,57.13001Q24.6939,57.19498,24.0383,57.29223Q23.3826,57.38949,22.7326,57.5188Q22.0825,57.64811,21.4395,57.80916Q20.7966,57.97021,20.1623,58.16261Q19.528,58.35502,18.904,58.57831Q18.2799,58.8016,17.6675,59.05525Q17.0552,59.3089,16.456,59.59229Q15.8568,59.87568,15.2723,60.18813Q14.6877,60.500569999999996,14.1192,60.84133Q13.5507,61.18208,12.9996,61.55032Q12.4485,61.91856,11.9161,62.3134Q11.3837,62.70823,10.8714,63.12872Q10.359,63.5492,9.86791,63.99432Q9.3768,64.43944,8.90812,64.90812Q8.43944,65.3768,7.99432,65.86791Q7.5492,66.359,7.12872,66.8714Q6.70823,67.3837,6.3134,67.9161Q5.91856,68.4485,5.55032,68.9996Q5.18208,69.5507,4.84133,70.1192Q4.50057,70.6877,4.18813,71.2723Q3.87568,71.85679999999999,3.59229,72.456Q3.3089,73.0552,3.05525,73.6675Q2.8016,74.2799,2.57831,74.904Q2.35502,75.52799999999999,2.16261,76.1623Q1.97021,76.7966,1.80916,77.4395Q1.64811,78.0825,1.5188,78.7326Q1.38949,79.3826,1.29223,80.03829999999999Q1.19498,80.6939,1.13001,81.3535Q1.06505,82.0132,1.03252,82.6752Q1,83.3372,1,84Q1,84.6628,1.03252,85.3248Q1.06505,85.9868,1.13001,86.6465Q1.19498,87.3061,1.29223,87.96170000000001Q1.38949,88.6174,1.5188,89.26740000000001Q1.64811,89.91749999999999,1.80916,90.56049999999999Q1.97021,91.2034,2.16261,91.8377Q2.35502,92.47200000000001,2.57831,93.096Q2.8016,93.7201,3.05525,94.3324Q3.3089,94.9448,3.59229,95.544Q3.87568,96.14320000000001,4.18813,96.7277Q4.50057,97.3123,4.84133,97.8808Q5.18208,98.4493,5.55032,99.0004Q5.91856,99.5515,6.3134,100.0839Q6.70823,100.61619999999999,7.12872,101.1286Q7.5492,101.64099999999999,7.99432,102.13210000000001Q8.43944,102.6232,8.90812,103.09190000000001Q9.3768,103.5606,9.86791,104.00569999999999Q10.359,104.4508,10.8714,104.87129999999999Q11.3837,105.2918,11.9161,105.6866Q12.4485,106.0814,12.9996,106.4497Q13.5507,106.81790000000001,14.1192,107.15870000000001Q14.6877,107.49940000000001,15.2723,107.81190000000001Q15.8568,108.1243,16.456,108.4077Q17.0552,108.6911,17.6675,108.9447Q18.2799,109.19839999999999,18.904,109.4217Q19.528,109.64500000000001,20.1623,109.8374Q20.7966,110.0298,21.4395,110.1908Q22.0825,110.3519,22.7326,110.4812Q23.3826,110.6105,24.0383,110.70779999999999Q24.6939,110.805,25.3535,110.87Q26.0132,110.935,26.6752,110.9675Q27.3372,111,28,111Q28.6628,111,29.3248,110.9675Q29.9868,110.935,30.6465,110.87Q31.3061,110.805,31.9617,110.70779999999999Q32.6174,110.6105,33.2674,110.4812Q33.9175,110.3519,34.5605,110.1908Q35.2034,110.0298,35.8377,109.8374Q36.472,109.64500000000001,37.096,109.4217Q37.7201,109.19839999999999,38.3324,108.9447Q38.9448,108.6911,39.544,108.4077Q40.1432,108.1243,40.7277,107.81190000000001Q41.3123,107.49940000000001,41.8808,107.15870000000001Q42.4493,106.81790000000001,43.0004,106.4497Q43.5515,106.0814,44.0839,105.6866Q44.6162,105.2918,45.1286,104.87129999999999Q45.641,104.4508,46.1321,104.00569999999999Q46.6232,103.5606,47.0919,103.09190000000001Q47.5606,102.6232,48.0057,102.13210000000001Q48.4508,101.64099999999999,48.8713,101.1286Q49.2918,100.6163,49.6866,100.0839Q50.0814,99.5515,50.4497,99.0004Q50.8179,98.4493,51.1587,97.8808Q51.4994,97.3123,51.8119,96.7277Q52.1243,96.14320000000001,52.4077,95.544Q52.6911,94.9448,52.9447,94.3324Q53.1984,93.7201,53.4217,93.096Q53.645,92.47200000000001,53.8374,91.8377Q54.0298,91.2034,54.1908,90.56049999999999Q54.3519,89.91749999999999,54.4812,89.26740000000001Q54.6105,88.6174,54.7078,87.96170000000001Q54.805,87.3061,54.87,86.6465Q54.935,85.9868,54.9675,85.3248Q55,84.6628,55,84Z" fill="#FFFFFF" fill-opacity="0.30000001192092896"/></g><g transform="matrix(0,-1,-1,0,80,80)" clip-path="url(#master_svg1_287_2188)"><g><path d="M62,55.68C62,55.79201,62.000226887,55.84928,62.0223236,55.89191C62.0413433,55.9286,62.0713957,55.95866,62.108089,55.97768C62.150718,55.99977,62.207989,56,62.32,56L62.68,56C62.792011,56,62.849282,55.99977,62.891912,55.97768C62.928604,55.95866,62.958657,55.9286,62.977676,55.89191C62.999773,55.84928,63,55.79201,63,55.68L63,48.32C63,48.207989,62.999773,48.150718,62.977676,48.108089C62.958657,48.0713957,62.928604,48.0413433,62.891912,48.0223236C62.849282,48.000226745,62.792011,48,62.68,48L62.32,48C62.207989,48,62.150718,48.000226745,62.108089,48.0223236C62.0713957,48.0413433,62.0413433,48.0713957,62.0223236,48.108089C62.000226745,48.150718,62,48.207989,62,48.32L62,55.68Z" fill="#FFFFFF" fill-opacity="0.699999988079071"/></g><g><path d="M49,48L49,44.028954Q49,43.5452611,48.54757,43.374195Q48.09514,43.203128,47.77511,43.5658197L40.625081,51.66919Q40.595103,51.70317,40.571721,51.74198Q40.548339,51.780789999999996,40.532314,51.82317Q40.51629,51.86555,40.508145,51.91012Q40.5,51.95469,40.5,52Q40.5,52.04531,40.508145,52.08988Q40.51629,52.13445,40.532314,52.17683Q40.548339,52.219210000000004,40.571721,52.25803Q40.595103,52.29683,40.625081,52.33081L47.77511,60.434200000000004Q48.09513,60.7969,48.54757,60.6258Q49,60.4547,49,59.971000000000004L49,56L59,56Q59.0492,56,59.0975,55.9904Q59.1458,55.9808,59.1913,55.9619Q59.2368,55.9431,59.2778,55.9157Q59.3187,55.888400000000004,59.3536,55.8536Q59.388400000000004,55.8187,59.4157,55.7778Q59.4431,55.7368,59.4619,55.6913Q59.4808,55.6458,59.4904,55.5975Q59.5,55.5492,59.5,55.5L59.5,48.5Q59.5,48.45075,59.4904,48.40245Q59.4808,48.35415,59.4619,48.30866Q59.4431,48.26316,59.4157,48.22221Q59.388400000000004,48.18127,59.3536,48.14645Q59.3187,48.11162,59.2778,48.08426Q59.2368,48.0569,59.1913,48.03806Q59.1458,48.01921,59.0975,48.00961Q59.0492,48,59,48L49,48ZM48,44.82239L48,48.5Q48,48.54925,48.00961,48.59755Q48.01921,48.64584,48.03806,48.69134Q48.0569,48.73684,48.08426,48.77778Q48.11162,48.81873,48.14645,48.85355Q48.18127,48.88837,48.22221,48.915729999999996Q48.26316,48.94309,48.30866,48.96194Q48.35415,48.98078,48.40245,48.99039Q48.45075,49,48.5,49L58.5,49L58.5,55L48.5,55Q48.45075,55,48.40245,55.0096Q48.35415,55.0192,48.30866,55.0381Q48.26316,55.0569,48.22221,55.0843Q48.18127,55.111599999999996,48.14645,55.1464Q48.11162,55.1813,48.08426,55.2222Q48.0569,55.2632,48.03806,55.3087Q48.01921,55.3542,48.00961,55.4025Q48,55.4508,48,55.5L48,59.1776L41.666811,52L48,44.82239Z" fill-rule="evenodd" fill="#FFFFFF" fill-opacity="0.699999988079071" style="mix-blend-mode:passthrough"/></g></g></g></svg>