<svg xmlns="http://www.w3.org/2000/svg" xmlns:xlink="http://www.w3.org/1999/xlink" fill="none" version="1.1" width="24" height="24" viewBox="0 0 24 24"><defs><clipPath id="master_svg0_287_2476"><rect x="0" y="0" width="24" height="24" rx="0"/></clipPath></defs><g><g clip-path="url(#master_svg0_287_2476)"><g><g style="opacity:0;"></g><g><path d="M22.836,7.81779C23.0071,7.81779,23.1799,7.66743,23.1799,7.48759L23.1799,6.33753C23.1799,3.85261,21.4292,2.26811,18.6763,2.26811L18.5304,2.26811L18.5304,0.915796C18.5304,0.50419098,18.1245,0.381252,17.7755,0.6233960000000001L15.3922,2.2199400000000002C15.0407,2.45833,15.0377,2.73827,15.3922,2.97668L17.7755,4.57321C18.1245,4.80788,18.5304,4.68204,18.5304,4.27916L18.5304,2.91729L18.6734,2.91729C21.0156,2.91729,22.4938,4.25549,22.4938,6.36287L22.4938,7.48759C22.4938,7.66743,22.6512,7.81779,22.836,7.81779ZM0.846935,15.7183C0.665146,15.7183,0.5,15.8761,0.5,16.0559L0.5,17.2031C0.5,19.8595,2.45779,21.7111,5.46191,21.7111L5.60486,21.7111L5.60486,23.0709C5.60486,23.475,6.01068,23.6054,6.35975,23.3633L8.7353,21.7638C9.09461,21.5284,9.09759,21.2484,8.7353,21.0071L6.35975,19.4135C6.01068,19.1713,5.60486,19.3046,5.60486,19.7L5.60486,21.0619L5.45721,21.0619C2.7211,21.0619,1.1861899999999999,19.318,1.1861899999999999,17.1807L1.1861899999999999,16.0559C1.1861899999999999,15.8761,1.031712,15.7183,0.846935,15.7183Z" fill="#FFFFFF" fill-opacity="1" style="mix-blend-mode:passthrough"/><path d="M22.457,7.86428Q22.6166,8.017800000000001,22.836,8.017800000000001Q23.0458,8.017800000000001,23.2083,7.86659Q23.3799,7.70701,23.3799,7.48759L23.3799,6.33753Q23.3799,4.38457,22.0946,3.22261Q20.8336,2.0827299999999997,18.7304,2.0683L18.7304,0.915796Q18.7304,0.4718109,18.3512,0.336133Q18.0131,0.21514499999999998,17.6615,0.4590707L15.2809,2.05377Q14.9283,2.2928699999999997,14.9274,2.59772Q14.9265,2.90456,15.2806,3.14265L17.6642,4.73938Q18.015,4.97522,18.3519,4.85334Q18.7304,4.71641,18.7304,4.27916L18.7304,3.11754Q20.3687,3.13229,21.3279,3.99826Q22.2938,4.87031,22.2938,6.36287L22.2938,7.48759Q22.2938,7.70734,22.457,7.86428ZM23.1799,6.33753C23.1799,3.853,21.4297,2.26861,18.6776,2.26811L18.6763,2.26811L18.5304,2.26811L18.5304,0.915796C18.5304,0.50419098,18.1245,0.381252,17.7755,0.6233960000000001L15.3922,2.2199400000000002C15.0407,2.45833,15.0377,2.73827,15.3922,2.97668L17.7755,4.57321C18.1245,4.80788,18.5304,4.68204,18.5304,4.27916L18.5304,2.91729L18.6734,2.91729C18.6924,2.91729,18.7114,2.91737,18.7304,2.91755C21.0395,2.93911,22.4938,4.2726299999999995,22.4938,6.36287L22.4938,7.48759C22.4938,7.66743,22.6512,7.81779,22.836,7.81779C23.0071,7.81779,23.1799,7.66743,23.1799,7.48759L23.1799,6.33753ZM0.3,16.0559L0.3,17.2031Q0.3,19.2963,1.71908,20.6005Q3.12749,21.8949,5.40486,21.9109L5.40486,23.0709Q5.40485,23.5096,5.78295,23.6474Q6.12271,23.7711,6.47374,23.5276L8.847,21.9297Q9.20502,21.6952,9.2059,21.3882Q9.20678,21.0808,8.84616,20.8407L6.47117,19.2474Q6.12386,19.0064,5.78338,19.1296Q5.40485,19.2665,5.40486,19.7L5.40486,20.8617Q3.53699,20.847,2.43483,19.7791Q1.38619,18.7632,1.38619,17.1807L1.38619,16.0559Q1.38619,15.8377,1.2275239999999998,15.6785Q1.067873,15.5183,0.846935,15.5183Q0.629162,15.5183,0.4662255,15.6759Q0.3,15.8368,0.3,16.0559ZM5.60486,21.7111L5.46191,21.7111C2.45779,21.7111,0.5,19.8595,0.5,17.2031L0.5,16.0559C0.5,15.8761,0.665146,15.7183,0.846935,15.7183C1.031712,15.7183,1.1861899999999999,15.8761,1.1861899999999999,16.0559L1.1861899999999999,17.1807C1.1861899999999999,19.3043,2.70153,21.0396,5.40486,21.0617C5.42226,21.0618,5.43971,21.0619,5.45721,21.0619L5.60486,21.0619L5.60486,19.7C5.60486,19.3046,6.01068,19.1713,6.35975,19.4135L8.7353,21.0071C9.09759,21.2484,9.09461,21.5284,8.7353,21.7638L6.35975,23.3633C6.01068,23.6054,5.60486,23.475,5.60486,23.0709L5.60486,21.7111Z" fill-rule="evenodd" fill="#FFFFFF" fill-opacity="1"/></g><g><path d="M6.4213815625,17.39999990463257L17.5764515625,17.39999990463257C18.630751562500002,17.39999990463257,19.3903515625,16.61039990463257,19.3903515625,15.534119904632568L19.3903515625,8.448459904632568C19.3903515625,7.3721709046325685,18.630751562500002,6.599999904632568,17.5764515625,6.599999904632568L6.4213815625,6.599999904632568C5.3670505625,6.599999904632568,4.6103515625,7.3721709046325685,4.6103515625,8.448459904632568L4.6103515625,15.534119904632568C4.6103515625,16.61039990463257,5.3670505625,17.39999990463257,6.4213815625,17.39999990463257ZM6.4587415625,16.670599904632567C5.8149515625,16.670599904632567,5.3554585625,16.19321990463257,5.3554585625,15.509049904632569L5.3554585625,8.473499904632568C5.3554585625,7.795029904632568,5.8149515625,7.324948904632568,6.4587415625,7.324948904632568L17.5315515625,7.324948904632568C18.185751562500002,7.324948904632568,18.6406515625,7.795029904632568,18.6406515625,8.473499904632568L18.6406515625,15.509049904632569C18.6406515625,16.19321990463257,18.185751562500002,16.670599904632567,17.5315515625,16.670599904632567L6.4587415625,16.670599904632567Z" fill="#FFFFFF" fill-opacity="1" style="mix-blend-mode:passthrough"/><path d="M4.5103516625,8.448459904632568L4.5103515625,15.534119904632568Q4.5103515625,16.383529904632567,5.0486035625,16.940199904632568Q5.5899315625,17.499999904632567,6.4213815625,17.499999904632567L17.5764515625,17.499999904632567Q18.408151562500002,17.499999904632567,18.9505515625,16.940299904632568Q19.490351562500003,16.383279904632566,19.490351562500003,15.534119904632568L19.490351562500003,8.448459904632568Q19.490351562500003,7.600679904632568,18.9501515625,7.050554904632568Q18.4094515625,6.499999904632569,17.5764515625,6.500000204632569L6.4213815625,6.499999904632569Q5.5885845625,6.499999904632569,5.0490645625,7.0506349046325685Q4.5103518625,7.600449904632568,4.5103516625,8.448459904632568ZM5.1923805625,16.80109990463257Q4.7103515625,16.302649904632567,4.7103515625,15.534119904632568L4.7103515625,8.448459904632568Q4.7103515625,7.682099904632569,5.1919205625,7.190606904632569Q5.6726215625,6.699999904632568,6.4213815625,6.699999904632568L17.5764515625,6.699999904632568Q18.3255515625,6.699999904632568,18.8074515625,7.190686904632568Q19.2903515625,7.682469904632568,19.2903515625,8.448459904632568L19.2903515625,15.534119904632568Q19.2903515625,16.302269904632567,18.8069515625,16.80109990463257Q18.3234515625,17.299999904632568,17.5764515625,17.299999904632568L6.4213815625,17.299999904632568Q5.6747515625,17.299999904632568,5.1923805625,16.80109990463257ZM6.4587415625,16.77059990463257L17.5315515625,16.77059990463257Q18.0648515625,16.77059990463257,18.4037515625,16.415429904632568Q18.7406515625,16.062409904632567,18.7406515625,15.509049904632569L18.7406515625,8.473499904632568Q18.7406515625,7.924399904632568,18.4033515625,7.575312904632568Q18.0648515625,7.224948904632568,17.5315515625,7.224948904632568L6.4587415625,7.224948904632568Q5.9320415625,7.224948904632568,5.5937385625000005,7.575340904632569Q5.2554595625000005,7.925709904632568,5.2554595625000005,8.473499904632568L5.2554595625000005,15.509049904632569Q5.2554585625,16.06107990463257,5.5933075625,16.41539990463257Q5.9320015625,16.77059990463257,6.4587415625,16.77059990463257ZM18.2591515625,16.27734990463257Q17.9792515625,16.57060990463257,17.5315515625,16.57060990463257L6.4587415625,16.57060990463257Q6.0176515625,16.57060990463257,5.7380515625,16.277379904632568Q5.4554595625,15.981019904632568,5.4554595625,15.509049904632569L5.4554585625000005,8.473499904632568Q5.4554595625,8.00650990463257,5.7376215625,7.714259904632568Q6.0169415625,7.4249489046325685,6.4587415625,7.4249489046325685L17.5315515625,7.4249489046325685Q17.9799515625,7.4249489046325685,18.2595515625,7.714289904632569Q18.540651562500003,8.005239904632568,18.540651562500003,8.473499904632568L18.540651562500003,15.509049904632569Q18.540651562500003,15.982289904632568,18.2591515625,16.27734990463257Z" fill-rule="evenodd" fill="#FFFFFF" fill-opacity="1"/></g></g></g></g></svg>