<svg xmlns="http://www.w3.org/2000/svg" xmlns:xlink="http://www.w3.org/1999/xlink" fill="none" version="1.1" width="16" height="16" viewBox="0 0 16 16"><defs><clipPath id="master_svg0_287_2520"><rect x="0" y="0" width="16" height="16" rx="0"/></clipPath></defs><g clip-path="url(#master_svg0_287_2520)"><g><path d="M8.6869240234375,7.06066L11.9798240234375,10.35355Q12.0501440234375,10.42388,12.1420340234375,10.46194Q12.2339140234375,10.5,12.3333740234375,10.5Q12.3826140234375,10.5,12.4309140234375,10.49039Q12.4792140234375,10.48078,12.5247140234375,10.46194Q12.5702140234375,10.44309,12.6111540234375,10.41573Q12.6521040234375,10.38837,12.6869240234375,10.35355Q12.7217440234375,10.31873,12.7491040234375,10.27778Q12.7764640234375,10.23684,12.7953140234375,10.19134Q12.8141540234375,10.14584,12.8237640234375,10.09755Q12.8333740234375,10.04925,12.8333740234375,10Q12.8333740234375,9.90054,12.7953140234375,9.80866Q12.7572540234375,9.71677,12.6869240234375,9.64645L9.3940340234375,6.353553Q8.9546940234375,5.9142136,8.3333740234375,5.9142136Q7.7120540234375,5.9142136,7.2727140234375,6.353554L3.9798210234375,9.64645Q3.9094940234375,9.71677,3.8714340234374998,9.80866Q3.8333740234375,9.90054,3.8333740234375,10Q3.8333740234375,10.04925,3.8429810234375,10.09755Q3.8525890234375,10.14584,3.8714340234374998,10.19134Q3.8902800234375,10.23684,3.9176390234375,10.27778Q3.9449990234375,10.31873,3.9798210234375,10.35355Q4.0146430234375,10.38837,4.0555890234375,10.41573Q4.0965350234375,10.44309,4.1420320234375,10.46194Q4.1875290234375,10.48078,4.2358289234375,10.49039Q4.2841283234375,10.5,4.3333740234375,10.5Q4.4328302234375,10.5,4.5247160234375,10.46194Q4.6166010234375,10.42388,4.6869270234375,10.35355L4.6871410234375,10.35334L7.9798240234375,7.06066Q8.1262640234375,6.914214,8.3333740234375,6.914214Q8.5404840234375,6.914214,8.6869240234375,7.06066Z" fill-rule="evenodd" fill="#FFFFFF" fill-opacity="0.30000001192092896" style="mix-blend-mode:passthrough"/></g></g></svg>