<svg xmlns="http://www.w3.org/2000/svg" xmlns:xlink="http://www.w3.org/1999/xlink" fill="none" version="1.1" width="24" height="24" viewBox="0 0 24 24"><defs><clipPath id="master_svg0_287_2399"><rect x="0" y="0" width="24" height="24" rx="0"/></clipPath></defs><g clip-path="url(#master_svg0_287_2399)"><g><path d="M4.57538,4.57538Q1.5,7.65076,1.5,12Q1.5,16.3492,4.57538,19.4246Q7.65075,22.5,12,22.5Q16.3492,22.5,19.4246,19.4246Q22.5,16.3492,22.5,12Q22.5,7.65075,19.4246,4.57538Q16.3492,1.5,12,1.5Q7.65075,1.5,4.57538,4.57538ZM5.28248,18.7175Q2.5,15.935,2.5,12Q2.5,8.064969999999999,5.28248,5.28248Q8.064969999999999,2.5,12,2.5Q15.935,2.5,18.7175,5.28248Q21.5,8.064969999999999,21.5,12Q21.5,15.935,18.7175,18.7175Q15.935,21.5,12,21.5Q8.064969999999999,21.5,5.28248,18.7175Z" fill-rule="evenodd" fill="#FFFFFF" fill-opacity="1" style="mix-blend-mode:passthrough"/></g><g><path d="M11.5041410390625,5.9999499688Q11.5041460390625,5.9507074,11.5137570390625,5.9024119Q11.5233680390625,5.854116,11.5422150390625,5.808624Q11.5610630390625,5.763131,11.5884230390625,5.722189Q11.6157840390625,5.681247,11.6506050390625,5.646429Q11.6854270390625,5.611611,11.7263710390625,5.584255Q11.7673160390625,5.556899,11.8128110390625,5.538055Q11.8583050390625,5.519212,11.9066018390625,5.509606Q11.9548983390625,5.5,12.0041408540625,5.5Q12.0533865390625,5.5,12.1016860390625,5.509607Q12.1499850390625,5.519215,12.1954820390625,5.53806Q12.2409800390625,5.556906,12.2819260390625,5.584265Q12.3228720390625,5.611625,12.3576940390625,5.646447Q12.3925160390625,5.681269,12.4198760390625,5.722215Q12.4472350390625,5.763161,12.4660810390625,5.808658Q12.4849260390625,5.854155,12.4945330390625,5.9024549Q12.5041410390625,5.9507543,12.5041410390625,6L12.5041410390625,6.0000500312L12.5035610390625,11.79731L16.5965400390625,15.89029L16.5967900390625,15.89055Q16.6671200390625,15.96087,16.7051800390625,16.052799999999998Q16.7432400390625,16.1446,16.7432400390625,16.2441Q16.7432400390625,16.293300000000002,16.7336300390625,16.3416Q16.724030039062498,16.3899,16.7051800390625,16.4354Q16.6863300390625,16.4809,16.6589800390625,16.521900000000002Q16.6316200390625,16.5628,16.5967900390625,16.5977Q16.5619700390625,16.6325,16.5210300390625,16.6598Q16.4800800390625,16.6872,16.4345800390625,16.706Q16.3890800390625,16.724899999999998,16.3407900390625,16.7345Q16.2924900390625,16.7441,16.2432400390625,16.7441Q16.1437800390625,16.7441,16.0519000390625,16.706Q15.9600100390625,16.668,15.8896900390625,16.5977L11.6499870390625,12.357949999999999Q11.5796510390625,12.28762,11.5415910390625,12.19572Q11.5035300390625,12.103819999999999,11.5035400390625,12.004349999999999L11.5041410390625,5.999999999999499L11.5041410390625,5.9999499688Z" fill-rule="evenodd" fill="#FFFFFF" fill-opacity="1" style="mix-blend-mode:passthrough"/></g></g></svg>